<mxfile host="drawio-plugin" modified="2022-03-05T07:41:32.801Z" agent="5.0 (Windows NT 6.2; Win64; x64) AppleWebKit/537.36 (KHTML, like Gecko) Chrome/89.0.4389.114 Safari/537.36" etag="KhufhYxDHAG5AIgTEi0d" version="14.7.4" type="embed"><diagram id="MH2KmMIe_1Jt84VI3jU6" name="Page-1"><mxGraphModel dx="1865" dy="1339" grid="1" gridSize="10" guides="1" tooltips="1" connect="1" arrows="1" fold="1" page="1" pageScale="1" pageWidth="1169" pageHeight="827" background="#EFF3FC" math="0" shadow="0"><root><mxCell id="0"/><mxCell id="1" parent="0"/><mxCell id="0rB0F-Ur0wucUoMe_7N4-1" value="beacons" style="shape=table;startSize=30;container=1;collapsible=1;childLayout=tableLayout;fixedRows=1;rowLines=0;fontStyle=1;align=center;resizeLast=1;rounded=0;sketch=0;shadow=0;swimlaneFillColor=#ffffff;fontFamily=Helvetica;perimeterSpacing=0;strokeColor=#3399FF;fillColor=#99CCFF;" parent="1" vertex="1"><mxGeometry x="-150" y="-10" width="290" height="180" as="geometry"><mxRectangle x="-600" y="380" width="60" height="30" as="alternateBounds"/></mxGeometry></mxCell><mxCell id="0rB0F-Ur0wucUoMe_7N4-5" value="" style="shape=partialRectangle;collapsible=0;dropTarget=0;pointerEvents=0;fillColor=none;top=0;left=0;bottom=0;right=0;points=[[0,0.5],[1,0.5]];portConstraint=eastwest;fontFamily=Helvetica;" parent="0rB0F-Ur0wucUoMe_7N4-1" vertex="1"><mxGeometry y="30" width="290" height="30" as="geometry"/></mxCell><mxCell id="0rB0F-Ur0wucUoMe_7N4-6" value="PK" style="shape=partialRectangle;connectable=0;fillColor=none;top=0;left=0;bottom=0;right=0;editable=1;overflow=hidden;fontFamily=Helvetica;fontStyle=1" parent="0rB0F-Ur0wucUoMe_7N4-5" vertex="1"><mxGeometry width="30" height="30" as="geometry"><mxRectangle width="30" height="30" as="alternateBounds"/></mxGeometry></mxCell><mxCell id="0rB0F-Ur0wucUoMe_7N4-7" value="id" style="shape=partialRectangle;connectable=0;fillColor=none;top=0;left=0;bottom=0;right=0;align=left;spacingLeft=6;overflow=hidden;fontColor=#3399FF;fontFamily=Helvetica;fontStyle=1" parent="0rB0F-Ur0wucUoMe_7N4-5" vertex="1"><mxGeometry x="30" width="170" height="30" as="geometry"><mxRectangle width="170" height="30" as="alternateBounds"/></mxGeometry></mxCell><mxCell id="0rB0F-Ur0wucUoMe_7N4-51" value="String" style="shape=partialRectangle;connectable=0;fillColor=none;top=0;left=0;bottom=0;right=0;align=left;spacingLeft=6;overflow=hidden;fontFamily=Helvetica;fontStyle=1" parent="0rB0F-Ur0wucUoMe_7N4-5" vertex="1"><mxGeometry x="200" width="90" height="30" as="geometry"><mxRectangle width="90" height="30" as="alternateBounds"/></mxGeometry></mxCell><mxCell id="0rB0F-Ur0wucUoMe_7N4-11" value="" style="shape=partialRectangle;collapsible=0;dropTarget=0;pointerEvents=0;fillColor=none;top=0;left=0;bottom=0;right=0;points=[[0,0.5],[1,0.5]];portConstraint=eastwest;fontFamily=Helvetica;" parent="0rB0F-Ur0wucUoMe_7N4-1" vertex="1"><mxGeometry y="60" width="290" height="30" as="geometry"/></mxCell><mxCell id="0rB0F-Ur0wucUoMe_7N4-12" value="PK" style="shape=partialRectangle;connectable=0;fillColor=none;top=0;left=0;bottom=0;right=0;editable=1;overflow=hidden;fontFamily=Helvetica;fontStyle=1" parent="0rB0F-Ur0wucUoMe_7N4-11" vertex="1"><mxGeometry width="30" height="30" as="geometry"><mxRectangle width="30" height="30" as="alternateBounds"/></mxGeometry></mxCell><mxCell id="0rB0F-Ur0wucUoMe_7N4-13" value="uuid" style="shape=partialRectangle;connectable=0;fillColor=none;top=0;left=0;bottom=0;right=0;align=left;spacingLeft=6;overflow=hidden;fontColor=#3399FF;fontFamily=Helvetica;fontStyle=1" parent="0rB0F-Ur0wucUoMe_7N4-11" vertex="1"><mxGeometry x="30" width="170" height="30" as="geometry"><mxRectangle width="170" height="30" as="alternateBounds"/></mxGeometry></mxCell><mxCell id="0rB0F-Ur0wucUoMe_7N4-53" value="String" style="shape=partialRectangle;connectable=0;fillColor=none;top=0;left=0;bottom=0;right=0;align=left;spacingLeft=6;overflow=hidden;fontFamily=Helvetica;fontStyle=1;flipV=1;flipH=1;" parent="0rB0F-Ur0wucUoMe_7N4-11" vertex="1"><mxGeometry x="200" width="90" height="30" as="geometry"><mxRectangle width="90" height="30" as="alternateBounds"/></mxGeometry></mxCell><mxCell id="0rB0F-Ur0wucUoMe_7N4-64" style="shape=partialRectangle;collapsible=0;dropTarget=0;pointerEvents=0;fillColor=none;top=0;left=0;bottom=0;right=0;points=[[0,0.5],[1,0.5]];portConstraint=eastwest;fontFamily=Helvetica;" parent="0rB0F-Ur0wucUoMe_7N4-1" vertex="1"><mxGeometry y="90" width="290" height="30" as="geometry"/></mxCell><mxCell id="0rB0F-Ur0wucUoMe_7N4-65" style="shape=partialRectangle;connectable=0;fillColor=none;top=0;left=0;bottom=0;right=0;editable=1;overflow=hidden;fontFamily=Helvetica;fontStyle=1" parent="0rB0F-Ur0wucUoMe_7N4-64" vertex="1"><mxGeometry width="30" height="30" as="geometry"><mxRectangle width="30" height="30" as="alternateBounds"/></mxGeometry></mxCell><mxCell id="0rB0F-Ur0wucUoMe_7N4-66" value="latitude" style="shape=partialRectangle;connectable=0;fillColor=none;top=0;left=0;bottom=0;right=0;align=left;spacingLeft=6;overflow=hidden;fontColor=#3399FF;fontFamily=Helvetica;fontStyle=1" parent="0rB0F-Ur0wucUoMe_7N4-64" vertex="1"><mxGeometry x="30" width="170" height="30" as="geometry"><mxRectangle width="170" height="30" as="alternateBounds"/></mxGeometry></mxCell><mxCell id="0rB0F-Ur0wucUoMe_7N4-67" value="double" style="shape=partialRectangle;connectable=0;fillColor=none;top=0;left=0;bottom=0;right=0;align=left;spacingLeft=6;overflow=hidden;fontFamily=Helvetica;fontStyle=1" parent="0rB0F-Ur0wucUoMe_7N4-64" vertex="1"><mxGeometry x="200" width="90" height="30" as="geometry"><mxRectangle width="90" height="30" as="alternateBounds"/></mxGeometry></mxCell><mxCell id="0rB0F-Ur0wucUoMe_7N4-60" style="shape=partialRectangle;collapsible=0;dropTarget=0;pointerEvents=0;fillColor=none;top=0;left=0;bottom=0;right=0;points=[[0,0.5],[1,0.5]];portConstraint=eastwest;fontFamily=Helvetica;" parent="0rB0F-Ur0wucUoMe_7N4-1" vertex="1"><mxGeometry y="120" width="290" height="30" as="geometry"/></mxCell><mxCell id="0rB0F-Ur0wucUoMe_7N4-61" style="shape=partialRectangle;connectable=0;fillColor=none;top=0;left=0;bottom=0;right=0;editable=1;overflow=hidden;fontFamily=Helvetica;fontStyle=1" parent="0rB0F-Ur0wucUoMe_7N4-60" vertex="1"><mxGeometry width="30" height="30" as="geometry"><mxRectangle width="30" height="30" as="alternateBounds"/></mxGeometry></mxCell><mxCell id="0rB0F-Ur0wucUoMe_7N4-62" value="longitude" style="shape=partialRectangle;connectable=0;fillColor=none;top=0;left=0;bottom=0;right=0;align=left;spacingLeft=6;overflow=hidden;fontColor=#3399FF;fontFamily=Helvetica;fontStyle=1" parent="0rB0F-Ur0wucUoMe_7N4-60" vertex="1"><mxGeometry x="30" width="170" height="30" as="geometry"><mxRectangle width="170" height="30" as="alternateBounds"/></mxGeometry></mxCell><mxCell id="0rB0F-Ur0wucUoMe_7N4-63" value="double" style="shape=partialRectangle;connectable=0;fillColor=none;top=0;left=0;bottom=0;right=0;align=left;spacingLeft=6;overflow=hidden;fontFamily=Helvetica;fontStyle=1" parent="0rB0F-Ur0wucUoMe_7N4-60" vertex="1"><mxGeometry x="200" width="90" height="30" as="geometry"><mxRectangle width="90" height="30" as="alternateBounds"/></mxGeometry></mxCell><mxCell id="0rB0F-Ur0wucUoMe_7N4-56" style="shape=partialRectangle;collapsible=0;dropTarget=0;pointerEvents=0;fillColor=none;top=0;left=0;bottom=0;right=0;points=[[0,0.5],[1,0.5]];portConstraint=eastwest;fontFamily=Helvetica;" parent="0rB0F-Ur0wucUoMe_7N4-1" vertex="1"><mxGeometry y="150" width="290" height="30" as="geometry"/></mxCell><mxCell id="0rB0F-Ur0wucUoMe_7N4-57" value="FK" style="shape=partialRectangle;connectable=0;fillColor=none;top=0;left=0;bottom=0;right=0;editable=1;overflow=hidden;fontFamily=Helvetica;fontStyle=1" parent="0rB0F-Ur0wucUoMe_7N4-56" vertex="1"><mxGeometry width="30" height="30" as="geometry"><mxRectangle width="30" height="30" as="alternateBounds"/></mxGeometry></mxCell><mxCell id="0rB0F-Ur0wucUoMe_7N4-58" value="levelId" style="shape=partialRectangle;connectable=0;fillColor=none;top=0;left=0;bottom=0;right=0;align=left;spacingLeft=6;overflow=hidden;fontFamily=Helvetica;fontStyle=1;fontColor=#3399FF;" parent="0rB0F-Ur0wucUoMe_7N4-56" vertex="1"><mxGeometry x="30" width="170" height="30" as="geometry"><mxRectangle width="170" height="30" as="alternateBounds"/></mxGeometry></mxCell><mxCell id="0rB0F-Ur0wucUoMe_7N4-59" value="String" style="shape=partialRectangle;connectable=0;fillColor=none;top=0;left=0;bottom=0;right=0;align=left;spacingLeft=6;overflow=hidden;fontFamily=Helvetica;fontStyle=1" parent="0rB0F-Ur0wucUoMe_7N4-56" vertex="1"><mxGeometry x="200" width="90" height="30" as="geometry"><mxRectangle width="90" height="30" as="alternateBounds"/></mxGeometry></mxCell><mxCell id="0rB0F-Ur0wucUoMe_7N4-146" value="buildings" style="shape=table;startSize=30;container=1;collapsible=1;childLayout=tableLayout;fixedRows=1;rowLines=0;fontStyle=1;align=center;resizeLast=1;rounded=0;sketch=0;shadow=0;swimlaneFillColor=#ffffff;fontFamily=Helvetica;perimeterSpacing=0;strokeColor=#3399FF;fillColor=#99CCFF;" parent="1" vertex="1"><mxGeometry x="390" y="370" width="270" height="390" as="geometry"><mxRectangle x="520" y="400" width="60" height="30" as="alternateBounds"/></mxGeometry></mxCell><mxCell id="0rB0F-Ur0wucUoMe_7N4-147" value="" style="shape=partialRectangle;collapsible=0;dropTarget=0;pointerEvents=0;fillColor=none;top=0;left=0;bottom=0;right=0;points=[[0,0.5],[1,0.5]];portConstraint=eastwest;fontFamily=Helvetica;" parent="0rB0F-Ur0wucUoMe_7N4-146" vertex="1"><mxGeometry y="30" width="270" height="30" as="geometry"/></mxCell><mxCell id="0rB0F-Ur0wucUoMe_7N4-148" value="PK" style="shape=partialRectangle;connectable=0;fillColor=none;top=0;left=0;bottom=0;right=0;editable=1;overflow=hidden;fontFamily=Helvetica;fontStyle=1" parent="0rB0F-Ur0wucUoMe_7N4-147" vertex="1"><mxGeometry width="30" height="30" as="geometry"><mxRectangle width="30" height="30" as="alternateBounds"/></mxGeometry></mxCell><mxCell id="0rB0F-Ur0wucUoMe_7N4-149" value="id" style="shape=partialRectangle;connectable=0;fillColor=none;top=0;left=0;bottom=0;right=0;align=left;spacingLeft=6;overflow=hidden;fontColor=#3399FF;fontFamily=Helvetica;fontStyle=1" parent="0rB0F-Ur0wucUoMe_7N4-147" vertex="1"><mxGeometry x="30" width="170" height="30" as="geometry"><mxRectangle width="170" height="30" as="alternateBounds"/></mxGeometry></mxCell><mxCell id="0rB0F-Ur0wucUoMe_7N4-150" value="String" style="shape=partialRectangle;connectable=0;fillColor=none;top=0;left=0;bottom=0;right=0;align=left;spacingLeft=6;overflow=hidden;fontFamily=Helvetica;fontStyle=1" parent="0rB0F-Ur0wucUoMe_7N4-147" vertex="1"><mxGeometry x="200" width="70" height="30" as="geometry"><mxRectangle width="70" height="30" as="alternateBounds"/></mxGeometry></mxCell><mxCell id="0rB0F-Ur0wucUoMe_7N4-151" value="" style="shape=partialRectangle;collapsible=0;dropTarget=0;pointerEvents=0;fillColor=none;top=0;left=0;bottom=0;right=0;points=[[0,0.5],[1,0.5]];portConstraint=eastwest;sketch=0;strokeWidth=1;fontFamily=Helvetica;" parent="0rB0F-Ur0wucUoMe_7N4-146" vertex="1"><mxGeometry y="60" width="270" height="30" as="geometry"/></mxCell><mxCell id="0rB0F-Ur0wucUoMe_7N4-152" value="" style="shape=partialRectangle;connectable=0;fillColor=none;top=0;left=0;bottom=0;right=0;editable=1;overflow=hidden;fontFamily=Helvetica;fontStyle=1" parent="0rB0F-Ur0wucUoMe_7N4-151" vertex="1"><mxGeometry width="30" height="30" as="geometry"><mxRectangle width="30" height="30" as="alternateBounds"/></mxGeometry></mxCell><mxCell id="0rB0F-Ur0wucUoMe_7N4-153" value="address" style="shape=partialRectangle;connectable=0;fillColor=none;top=0;left=0;bottom=0;right=0;align=left;spacingLeft=6;overflow=hidden;fontColor=#3399FF;fontFamily=Helvetica;fontStyle=1" parent="0rB0F-Ur0wucUoMe_7N4-151" vertex="1"><mxGeometry x="30" width="170" height="30" as="geometry"><mxRectangle width="170" height="30" as="alternateBounds"/></mxGeometry></mxCell><mxCell id="0rB0F-Ur0wucUoMe_7N4-154" value="String" style="shape=partialRectangle;connectable=0;fillColor=none;top=0;left=0;bottom=0;right=0;align=left;spacingLeft=6;overflow=hidden;fontFamily=Helvetica;fontStyle=1" parent="0rB0F-Ur0wucUoMe_7N4-151" vertex="1"><mxGeometry x="200" width="70" height="30" as="geometry"><mxRectangle width="70" height="30" as="alternateBounds"/></mxGeometry></mxCell><mxCell id="0rB0F-Ur0wucUoMe_7N4-155" value="" style="shape=partialRectangle;collapsible=0;dropTarget=0;pointerEvents=0;fillColor=none;top=0;left=0;bottom=0;right=0;points=[[0,0.5],[1,0.5]];portConstraint=eastwest;fontFamily=Helvetica;" parent="0rB0F-Ur0wucUoMe_7N4-146" vertex="1"><mxGeometry y="90" width="270" height="30" as="geometry"/></mxCell><mxCell id="0rB0F-Ur0wucUoMe_7N4-156" value="" style="shape=partialRectangle;connectable=0;fillColor=none;top=0;left=0;bottom=0;right=0;editable=1;overflow=hidden;fontFamily=Helvetica;fontStyle=1" parent="0rB0F-Ur0wucUoMe_7N4-155" vertex="1"><mxGeometry width="30" height="30" as="geometry"><mxRectangle width="30" height="30" as="alternateBounds"/></mxGeometry></mxCell><mxCell id="0rB0F-Ur0wucUoMe_7N4-157" value="name" style="shape=partialRectangle;connectable=0;fillColor=none;top=0;left=0;bottom=0;right=0;align=left;spacingLeft=6;overflow=hidden;fontColor=#3399FF;fontFamily=Helvetica;fontStyle=1" parent="0rB0F-Ur0wucUoMe_7N4-155" vertex="1"><mxGeometry x="30" width="170" height="30" as="geometry"><mxRectangle width="170" height="30" as="alternateBounds"/></mxGeometry></mxCell><mxCell id="0rB0F-Ur0wucUoMe_7N4-158" value="String" style="shape=partialRectangle;connectable=0;fillColor=none;top=0;left=0;bottom=0;right=0;align=left;spacingLeft=6;overflow=hidden;fontFamily=Helvetica;fontStyle=1;flipV=1;flipH=1;" parent="0rB0F-Ur0wucUoMe_7N4-155" vertex="1"><mxGeometry x="200" width="70" height="30" as="geometry"><mxRectangle width="70" height="30" as="alternateBounds"/></mxGeometry></mxCell><mxCell id="0rB0F-Ur0wucUoMe_7N4-159" style="shape=partialRectangle;collapsible=0;dropTarget=0;pointerEvents=0;fillColor=none;top=0;left=0;bottom=0;right=0;points=[[0,0.5],[1,0.5]];portConstraint=eastwest;fontFamily=Helvetica;" parent="0rB0F-Ur0wucUoMe_7N4-146" vertex="1"><mxGeometry y="120" width="270" height="30" as="geometry"/></mxCell><mxCell id="0rB0F-Ur0wucUoMe_7N4-160" style="shape=partialRectangle;connectable=0;fillColor=none;top=0;left=0;bottom=0;right=0;editable=1;overflow=hidden;fontFamily=Helvetica;fontStyle=1" parent="0rB0F-Ur0wucUoMe_7N4-159" vertex="1"><mxGeometry width="30" height="30" as="geometry"><mxRectangle width="30" height="30" as="alternateBounds"/></mxGeometry></mxCell><mxCell id="0rB0F-Ur0wucUoMe_7N4-161" value="latitude" style="shape=partialRectangle;connectable=0;fillColor=none;top=0;left=0;bottom=0;right=0;align=left;spacingLeft=6;overflow=hidden;fontColor=#3399FF;fontFamily=Helvetica;fontStyle=1" parent="0rB0F-Ur0wucUoMe_7N4-159" vertex="1"><mxGeometry x="30" width="170" height="30" as="geometry"><mxRectangle width="170" height="30" as="alternateBounds"/></mxGeometry></mxCell><mxCell id="0rB0F-Ur0wucUoMe_7N4-162" value="double" style="shape=partialRectangle;connectable=0;fillColor=none;top=0;left=0;bottom=0;right=0;align=left;spacingLeft=6;overflow=hidden;fontFamily=Helvetica;fontStyle=1" parent="0rB0F-Ur0wucUoMe_7N4-159" vertex="1"><mxGeometry x="200" width="70" height="30" as="geometry"><mxRectangle width="70" height="30" as="alternateBounds"/></mxGeometry></mxCell><mxCell id="0rB0F-Ur0wucUoMe_7N4-323" style="shape=partialRectangle;collapsible=0;dropTarget=0;pointerEvents=0;fillColor=none;top=0;left=0;bottom=0;right=0;points=[[0,0.5],[1,0.5]];portConstraint=eastwest;fontFamily=Helvetica;" parent="0rB0F-Ur0wucUoMe_7N4-146" vertex="1"><mxGeometry y="150" width="270" height="30" as="geometry"/></mxCell><mxCell id="0rB0F-Ur0wucUoMe_7N4-324" style="shape=partialRectangle;connectable=0;fillColor=none;top=0;left=0;bottom=0;right=0;editable=1;overflow=hidden;fontFamily=Helvetica;fontStyle=1" parent="0rB0F-Ur0wucUoMe_7N4-323" vertex="1"><mxGeometry width="30" height="30" as="geometry"><mxRectangle width="30" height="30" as="alternateBounds"/></mxGeometry></mxCell><mxCell id="0rB0F-Ur0wucUoMe_7N4-325" value="longitude" style="shape=partialRectangle;connectable=0;fillColor=none;top=0;left=0;bottom=0;right=0;align=left;spacingLeft=6;overflow=hidden;fontColor=#3399FF;fontFamily=Helvetica;fontStyle=1" parent="0rB0F-Ur0wucUoMe_7N4-323" vertex="1"><mxGeometry x="30" width="170" height="30" as="geometry"><mxRectangle width="170" height="30" as="alternateBounds"/></mxGeometry></mxCell><mxCell id="0rB0F-Ur0wucUoMe_7N4-326" value="double" style="shape=partialRectangle;connectable=0;fillColor=none;top=0;left=0;bottom=0;right=0;align=left;spacingLeft=6;overflow=hidden;fontFamily=Helvetica;fontStyle=1" parent="0rB0F-Ur0wucUoMe_7N4-323" vertex="1"><mxGeometry x="200" width="70" height="30" as="geometry"><mxRectangle width="70" height="30" as="alternateBounds"/></mxGeometry></mxCell><mxCell id="0rB0F-Ur0wucUoMe_7N4-163" style="shape=partialRectangle;collapsible=0;dropTarget=0;pointerEvents=0;fillColor=none;top=0;left=0;bottom=0;right=0;points=[[0,0.5],[1,0.5]];portConstraint=eastwest;fontFamily=Helvetica;" parent="0rB0F-Ur0wucUoMe_7N4-146" vertex="1"><mxGeometry y="180" width="270" height="30" as="geometry"/></mxCell><mxCell id="0rB0F-Ur0wucUoMe_7N4-164" style="shape=partialRectangle;connectable=0;fillColor=none;top=0;left=0;bottom=0;right=0;editable=1;overflow=hidden;fontFamily=Helvetica;fontStyle=1" parent="0rB0F-Ur0wucUoMe_7N4-163" vertex="1"><mxGeometry width="30" height="30" as="geometry"><mxRectangle width="30" height="30" as="alternateBounds"/></mxGeometry></mxCell><mxCell id="0rB0F-Ur0wucUoMe_7N4-165" value="width" style="shape=partialRectangle;connectable=0;fillColor=none;top=0;left=0;bottom=0;right=0;align=left;spacingLeft=6;overflow=hidden;fontColor=#3399FF;fontFamily=Helvetica;fontStyle=1" parent="0rB0F-Ur0wucUoMe_7N4-163" vertex="1"><mxGeometry x="30" width="170" height="30" as="geometry"><mxRectangle width="170" height="30" as="alternateBounds"/></mxGeometry></mxCell><mxCell id="0rB0F-Ur0wucUoMe_7N4-166" value="double" style="shape=partialRectangle;connectable=0;fillColor=none;top=0;left=0;bottom=0;right=0;align=left;spacingLeft=6;overflow=hidden;fontFamily=Helvetica;fontStyle=1" parent="0rB0F-Ur0wucUoMe_7N4-163" vertex="1"><mxGeometry x="200" width="70" height="30" as="geometry"><mxRectangle width="70" height="30" as="alternateBounds"/></mxGeometry></mxCell><mxCell id="0rB0F-Ur0wucUoMe_7N4-171" style="shape=partialRectangle;collapsible=0;dropTarget=0;pointerEvents=0;fillColor=none;top=0;left=0;bottom=0;right=0;points=[[0,0.5],[1,0.5]];portConstraint=eastwest;fontFamily=Helvetica;" parent="0rB0F-Ur0wucUoMe_7N4-146" vertex="1"><mxGeometry y="210" width="270" height="30" as="geometry"/></mxCell><mxCell id="0rB0F-Ur0wucUoMe_7N4-172" style="shape=partialRectangle;connectable=0;fillColor=none;top=0;left=0;bottom=0;right=0;editable=1;overflow=hidden;fontFamily=Helvetica;fontStyle=1" parent="0rB0F-Ur0wucUoMe_7N4-171" vertex="1"><mxGeometry width="30" height="30" as="geometry"><mxRectangle width="30" height="30" as="alternateBounds"/></mxGeometry></mxCell><mxCell id="0rB0F-Ur0wucUoMe_7N4-173" value="height" style="shape=partialRectangle;connectable=0;fillColor=none;top=0;left=0;bottom=0;right=0;align=left;spacingLeft=6;overflow=hidden;fontColor=#3399FF;fontFamily=Helvetica;fontStyle=1" parent="0rB0F-Ur0wucUoMe_7N4-171" vertex="1"><mxGeometry x="30" width="170" height="30" as="geometry"><mxRectangle width="170" height="30" as="alternateBounds"/></mxGeometry></mxCell><mxCell id="0rB0F-Ur0wucUoMe_7N4-174" value="double" style="shape=partialRectangle;connectable=0;fillColor=none;top=0;left=0;bottom=0;right=0;align=left;spacingLeft=6;overflow=hidden;fontFamily=Helvetica;fontStyle=1" parent="0rB0F-Ur0wucUoMe_7N4-171" vertex="1"><mxGeometry x="200" width="70" height="30" as="geometry"><mxRectangle width="70" height="30" as="alternateBounds"/></mxGeometry></mxCell><mxCell id="0rB0F-Ur0wucUoMe_7N4-175" style="shape=partialRectangle;collapsible=0;dropTarget=0;pointerEvents=0;fillColor=none;top=0;left=0;bottom=0;right=0;points=[[0,0.5],[1,0.5]];portConstraint=eastwest;fontFamily=Helvetica;" parent="0rB0F-Ur0wucUoMe_7N4-146" vertex="1"><mxGeometry y="240" width="270" height="30" as="geometry"/></mxCell><mxCell id="0rB0F-Ur0wucUoMe_7N4-176" style="shape=partialRectangle;connectable=0;fillColor=none;top=0;left=0;bottom=0;right=0;editable=1;overflow=hidden;fontFamily=Helvetica;fontStyle=1" parent="0rB0F-Ur0wucUoMe_7N4-175" vertex="1"><mxGeometry width="30" height="30" as="geometry"><mxRectangle width="30" height="30" as="alternateBounds"/></mxGeometry></mxCell><mxCell id="0rB0F-Ur0wucUoMe_7N4-177" value="phoneNumber" style="shape=partialRectangle;connectable=0;fillColor=none;top=0;left=0;bottom=0;right=0;align=left;spacingLeft=6;overflow=hidden;fontColor=#3399FF;fontFamily=Helvetica;fontStyle=1" parent="0rB0F-Ur0wucUoMe_7N4-175" vertex="1"><mxGeometry x="30" width="170" height="30" as="geometry"><mxRectangle width="170" height="30" as="alternateBounds"/></mxGeometry></mxCell><mxCell id="0rB0F-Ur0wucUoMe_7N4-178" value="String" style="shape=partialRectangle;connectable=0;fillColor=none;top=0;left=0;bottom=0;right=0;align=left;spacingLeft=6;overflow=hidden;fontFamily=Helvetica;fontStyle=1" parent="0rB0F-Ur0wucUoMe_7N4-175" vertex="1"><mxGeometry x="200" width="70" height="30" as="geometry"><mxRectangle width="70" height="30" as="alternateBounds"/></mxGeometry></mxCell><mxCell id="0rB0F-Ur0wucUoMe_7N4-179" style="shape=partialRectangle;collapsible=0;dropTarget=0;pointerEvents=0;fillColor=none;top=0;left=0;bottom=0;right=0;points=[[0,0.5],[1,0.5]];portConstraint=eastwest;fontFamily=Helvetica;" parent="0rB0F-Ur0wucUoMe_7N4-146" vertex="1"><mxGeometry y="270" width="270" height="30" as="geometry"/></mxCell><mxCell id="0rB0F-Ur0wucUoMe_7N4-180" style="shape=partialRectangle;connectable=0;fillColor=none;top=0;left=0;bottom=0;right=0;editable=1;overflow=hidden;fontFamily=Helvetica;fontStyle=1" parent="0rB0F-Ur0wucUoMe_7N4-179" vertex="1"><mxGeometry width="30" height="30" as="geometry"><mxRectangle width="30" height="30" as="alternateBounds"/></mxGeometry></mxCell><mxCell id="0rB0F-Ur0wucUoMe_7N4-181" value="workingHours" style="shape=partialRectangle;connectable=0;fillColor=none;top=0;left=0;bottom=0;right=0;align=left;spacingLeft=6;overflow=hidden;fontColor=#3399FF;fontFamily=Helvetica;fontStyle=1" parent="0rB0F-Ur0wucUoMe_7N4-179" vertex="1"><mxGeometry x="30" width="170" height="30" as="geometry"><mxRectangle width="170" height="30" as="alternateBounds"/></mxGeometry></mxCell><mxCell id="0rB0F-Ur0wucUoMe_7N4-182" value="String" style="shape=partialRectangle;connectable=0;fillColor=none;top=0;left=0;bottom=0;right=0;align=left;spacingLeft=6;overflow=hidden;fontFamily=Helvetica;fontStyle=1" parent="0rB0F-Ur0wucUoMe_7N4-179" vertex="1"><mxGeometry x="200" width="70" height="30" as="geometry"><mxRectangle width="70" height="30" as="alternateBounds"/></mxGeometry></mxCell><mxCell id="0rB0F-Ur0wucUoMe_7N4-183" style="shape=partialRectangle;collapsible=0;dropTarget=0;pointerEvents=0;fillColor=none;top=0;left=0;bottom=0;right=0;points=[[0,0.5],[1,0.5]];portConstraint=eastwest;fontFamily=Helvetica;" parent="0rB0F-Ur0wucUoMe_7N4-146" vertex="1"><mxGeometry y="300" width="270" height="30" as="geometry"/></mxCell><mxCell id="0rB0F-Ur0wucUoMe_7N4-184" style="shape=partialRectangle;connectable=0;fillColor=none;top=0;left=0;bottom=0;right=0;editable=1;overflow=hidden;fontFamily=Helvetica;fontStyle=1" parent="0rB0F-Ur0wucUoMe_7N4-183" vertex="1"><mxGeometry width="30" height="30" as="geometry"><mxRectangle width="30" height="30" as="alternateBounds"/></mxGeometry></mxCell><mxCell id="0rB0F-Ur0wucUoMe_7N4-185" value="imageAsByteArray" style="shape=partialRectangle;connectable=0;fillColor=none;top=0;left=0;bottom=0;right=0;align=left;spacingLeft=6;overflow=hidden;fontColor=#3399FF;fontFamily=Helvetica;fontStyle=1" parent="0rB0F-Ur0wucUoMe_7N4-183" vertex="1"><mxGeometry x="30" width="170" height="30" as="geometry"><mxRectangle width="170" height="30" as="alternateBounds"/></mxGeometry></mxCell><mxCell id="0rB0F-Ur0wucUoMe_7N4-186" value="byte[]" style="shape=partialRectangle;connectable=0;fillColor=none;top=0;left=0;bottom=0;right=0;align=left;spacingLeft=6;overflow=hidden;fontFamily=Helvetica;fontStyle=1" parent="0rB0F-Ur0wucUoMe_7N4-183" vertex="1"><mxGeometry x="200" width="70" height="30" as="geometry"><mxRectangle width="70" height="30" as="alternateBounds"/></mxGeometry></mxCell><mxCell id="0rB0F-Ur0wucUoMe_7N4-187" style="shape=partialRectangle;collapsible=0;dropTarget=0;pointerEvents=0;fillColor=none;top=0;left=0;bottom=0;right=0;points=[[0,0.5],[1,0.5]];portConstraint=eastwest;fontFamily=Helvetica;" parent="0rB0F-Ur0wucUoMe_7N4-146" vertex="1"><mxGeometry y="330" width="270" height="30" as="geometry"/></mxCell><mxCell id="0rB0F-Ur0wucUoMe_7N4-188" value="" style="shape=partialRectangle;connectable=0;fillColor=none;top=0;left=0;bottom=0;right=0;editable=1;overflow=hidden;fontFamily=Helvetica;fontStyle=1" parent="0rB0F-Ur0wucUoMe_7N4-187" vertex="1"><mxGeometry width="30" height="30" as="geometry"><mxRectangle width="30" height="30" as="alternateBounds"/></mxGeometry></mxCell><mxCell id="0rB0F-Ur0wucUoMe_7N4-189" value="mimeType" style="shape=partialRectangle;connectable=0;fillColor=none;top=0;left=0;bottom=0;right=0;align=left;spacingLeft=6;overflow=hidden;fontColor=#3399FF;fontFamily=Helvetica;fontStyle=1" parent="0rB0F-Ur0wucUoMe_7N4-187" vertex="1"><mxGeometry x="30" width="170" height="30" as="geometry"><mxRectangle width="170" height="30" as="alternateBounds"/></mxGeometry></mxCell><mxCell id="0rB0F-Ur0wucUoMe_7N4-190" value="String" style="shape=partialRectangle;connectable=0;fillColor=none;top=0;left=0;bottom=0;right=0;align=left;spacingLeft=6;overflow=hidden;fontFamily=Helvetica;fontStyle=1" parent="0rB0F-Ur0wucUoMe_7N4-187" vertex="1"><mxGeometry x="200" width="70" height="30" as="geometry"><mxRectangle width="70" height="30" as="alternateBounds"/></mxGeometry></mxCell><mxCell id="0rB0F-Ur0wucUoMe_7N4-191" style="shape=partialRectangle;collapsible=0;dropTarget=0;pointerEvents=0;fillColor=none;top=0;left=0;bottom=0;right=0;points=[[0,0.5],[1,0.5]];portConstraint=eastwest;fontFamily=Helvetica;" parent="0rB0F-Ur0wucUoMe_7N4-146" vertex="1"><mxGeometry y="360" width="270" height="30" as="geometry"/></mxCell><mxCell id="0rB0F-Ur0wucUoMe_7N4-192" style="shape=partialRectangle;connectable=0;fillColor=none;top=0;left=0;bottom=0;right=0;editable=1;overflow=hidden;fontFamily=Helvetica;fontStyle=1" parent="0rB0F-Ur0wucUoMe_7N4-191" vertex="1"><mxGeometry width="30" height="30" as="geometry"><mxRectangle width="30" height="30" as="alternateBounds"/></mxGeometry></mxCell><mxCell id="0rB0F-Ur0wucUoMe_7N4-193" value="createdBy" style="shape=partialRectangle;connectable=0;fillColor=none;top=0;left=0;bottom=0;right=0;align=left;spacingLeft=6;overflow=hidden;fontColor=#3399FF;fontFamily=Helvetica;fontStyle=1" parent="0rB0F-Ur0wucUoMe_7N4-191" vertex="1"><mxGeometry x="30" width="170" height="30" as="geometry"><mxRectangle width="170" height="30" as="alternateBounds"/></mxGeometry></mxCell><mxCell id="0rB0F-Ur0wucUoMe_7N4-194" value="String" style="shape=partialRectangle;connectable=0;fillColor=none;top=0;left=0;bottom=0;right=0;align=left;spacingLeft=6;overflow=hidden;fontFamily=Helvetica;fontStyle=1" parent="0rB0F-Ur0wucUoMe_7N4-191" vertex="1"><mxGeometry x="200" width="70" height="30" as="geometry"><mxRectangle width="70" height="30" as="alternateBounds"/></mxGeometry></mxCell><mxCell id="0rB0F-Ur0wucUoMe_7N4-277" value="history" style="shape=table;startSize=30;container=1;collapsible=1;childLayout=tableLayout;fixedRows=1;rowLines=0;fontStyle=1;align=center;resizeLast=1;rounded=0;sketch=0;shadow=0;swimlaneFillColor=#ffffff;fontFamily=Helvetica;perimeterSpacing=0;strokeColor=#3399FF;fillColor=#99CCFF;" parent="1" vertex="1"><mxGeometry x="360" y="-350" width="320" height="320" as="geometry"><mxRectangle x="360" y="-350" width="60" height="30" as="alternateBounds"/></mxGeometry></mxCell><mxCell id="0rB0F-Ur0wucUoMe_7N4-278" value="" style="shape=partialRectangle;collapsible=0;dropTarget=0;pointerEvents=0;fillColor=none;top=0;left=0;bottom=0;right=0;points=[[0,0.5],[1,0.5]];portConstraint=eastwest;fontFamily=Helvetica;" parent="0rB0F-Ur0wucUoMe_7N4-277" vertex="1"><mxGeometry y="30" width="320" height="30" as="geometry"/></mxCell><mxCell id="0rB0F-Ur0wucUoMe_7N4-279" value="PK" style="shape=partialRectangle;connectable=0;fillColor=none;top=0;left=0;bottom=0;right=0;editable=1;overflow=hidden;fontFamily=Helvetica;fontStyle=1" parent="0rB0F-Ur0wucUoMe_7N4-278" vertex="1"><mxGeometry width="30" height="30" as="geometry"><mxRectangle width="30" height="30" as="alternateBounds"/></mxGeometry></mxCell><mxCell id="0rB0F-Ur0wucUoMe_7N4-280" value="id" style="shape=partialRectangle;connectable=0;fillColor=none;top=0;left=0;bottom=0;right=0;align=left;spacingLeft=6;overflow=hidden;fontColor=#3399FF;fontFamily=Helvetica;fontStyle=1" parent="0rB0F-Ur0wucUoMe_7N4-278" vertex="1"><mxGeometry x="30" width="180" height="30" as="geometry"><mxRectangle width="180" height="30" as="alternateBounds"/></mxGeometry></mxCell><mxCell id="0rB0F-Ur0wucUoMe_7N4-281" value="String" style="shape=partialRectangle;connectable=0;fillColor=none;top=0;left=0;bottom=0;right=0;align=left;spacingLeft=6;overflow=hidden;fontFamily=Helvetica;fontStyle=1" parent="0rB0F-Ur0wucUoMe_7N4-278" vertex="1"><mxGeometry x="210" width="110" height="30" as="geometry"><mxRectangle width="110" height="30" as="alternateBounds"/></mxGeometry></mxCell><mxCell id="0rB0F-Ur0wucUoMe_7N4-286" value="" style="shape=partialRectangle;collapsible=0;dropTarget=0;pointerEvents=0;fillColor=none;top=0;left=0;bottom=0;right=0;points=[[0,0.5],[1,0.5]];portConstraint=eastwest;fontFamily=Helvetica;" parent="0rB0F-Ur0wucUoMe_7N4-277" vertex="1"><mxGeometry y="60" width="320" height="30" as="geometry"/></mxCell><mxCell id="0rB0F-Ur0wucUoMe_7N4-287" value="" style="shape=partialRectangle;connectable=0;fillColor=none;top=0;left=0;bottom=0;right=0;editable=1;overflow=hidden;fontFamily=Helvetica;fontStyle=1" parent="0rB0F-Ur0wucUoMe_7N4-286" vertex="1"><mxGeometry width="30" height="30" as="geometry"><mxRectangle width="30" height="30" as="alternateBounds"/></mxGeometry></mxCell><mxCell id="0rB0F-Ur0wucUoMe_7N4-288" value="timestamp" style="shape=partialRectangle;connectable=0;fillColor=none;top=0;left=0;bottom=0;right=0;align=left;spacingLeft=6;overflow=hidden;fontColor=#3399FF;fontFamily=Helvetica;fontStyle=1" parent="0rB0F-Ur0wucUoMe_7N4-286" vertex="1"><mxGeometry x="30" width="180" height="30" as="geometry"><mxRectangle width="180" height="30" as="alternateBounds"/></mxGeometry></mxCell><mxCell id="0rB0F-Ur0wucUoMe_7N4-289" value="LocalDateTime" style="shape=partialRectangle;connectable=0;fillColor=none;top=0;left=0;bottom=0;right=0;align=left;spacingLeft=6;overflow=hidden;fontFamily=Helvetica;fontStyle=1;flipV=1;flipH=1;" parent="0rB0F-Ur0wucUoMe_7N4-286" vertex="1"><mxGeometry x="210" width="110" height="30" as="geometry"><mxRectangle width="110" height="30" as="alternateBounds"/></mxGeometry></mxCell><mxCell id="0rB0F-Ur0wucUoMe_7N4-290" style="shape=partialRectangle;collapsible=0;dropTarget=0;pointerEvents=0;fillColor=none;top=0;left=0;bottom=0;right=0;points=[[0,0.5],[1,0.5]];portConstraint=eastwest;fontFamily=Helvetica;" parent="0rB0F-Ur0wucUoMe_7N4-277" vertex="1"><mxGeometry y="90" width="320" height="30" as="geometry"/></mxCell><mxCell id="0rB0F-Ur0wucUoMe_7N4-291" style="shape=partialRectangle;connectable=0;fillColor=none;top=0;left=0;bottom=0;right=0;editable=1;overflow=hidden;fontFamily=Helvetica;fontStyle=1" parent="0rB0F-Ur0wucUoMe_7N4-290" vertex="1"><mxGeometry width="30" height="30" as="geometry"><mxRectangle width="30" height="30" as="alternateBounds"/></mxGeometry></mxCell><mxCell id="0rB0F-Ur0wucUoMe_7N4-292" value="latitude" style="shape=partialRectangle;connectable=0;fillColor=none;top=0;left=0;bottom=0;right=0;align=left;spacingLeft=6;overflow=hidden;fontColor=#3399FF;fontFamily=Helvetica;fontStyle=1" parent="0rB0F-Ur0wucUoMe_7N4-290" vertex="1"><mxGeometry x="30" width="180" height="30" as="geometry"><mxRectangle width="180" height="30" as="alternateBounds"/></mxGeometry></mxCell><mxCell id="0rB0F-Ur0wucUoMe_7N4-293" value="double" style="shape=partialRectangle;connectable=0;fillColor=none;top=0;left=0;bottom=0;right=0;align=left;spacingLeft=6;overflow=hidden;fontFamily=Helvetica;fontStyle=1" parent="0rB0F-Ur0wucUoMe_7N4-290" vertex="1"><mxGeometry x="210" width="110" height="30" as="geometry"><mxRectangle width="110" height="30" as="alternateBounds"/></mxGeometry></mxCell><mxCell id="0rB0F-Ur0wucUoMe_7N4-331" style="shape=partialRectangle;collapsible=0;dropTarget=0;pointerEvents=0;fillColor=none;top=0;left=0;bottom=0;right=0;points=[[0,0.5],[1,0.5]];portConstraint=eastwest;fontFamily=Helvetica;" parent="0rB0F-Ur0wucUoMe_7N4-277" vertex="1"><mxGeometry y="120" width="320" height="30" as="geometry"/></mxCell><mxCell id="0rB0F-Ur0wucUoMe_7N4-332" style="shape=partialRectangle;connectable=0;fillColor=none;top=0;left=0;bottom=0;right=0;editable=1;overflow=hidden;fontFamily=Helvetica;fontStyle=1" parent="0rB0F-Ur0wucUoMe_7N4-331" vertex="1"><mxGeometry width="30" height="30" as="geometry"><mxRectangle width="30" height="30" as="alternateBounds"/></mxGeometry></mxCell><mxCell id="0rB0F-Ur0wucUoMe_7N4-333" value="longitude" style="shape=partialRectangle;connectable=0;fillColor=none;top=0;left=0;bottom=0;right=0;align=left;spacingLeft=6;overflow=hidden;fontColor=#3399FF;fontFamily=Helvetica;fontStyle=1" parent="0rB0F-Ur0wucUoMe_7N4-331" vertex="1"><mxGeometry x="30" width="180" height="30" as="geometry"><mxRectangle width="180" height="30" as="alternateBounds"/></mxGeometry></mxCell><mxCell id="0rB0F-Ur0wucUoMe_7N4-334" value="double" style="shape=partialRectangle;connectable=0;fillColor=none;top=0;left=0;bottom=0;right=0;align=left;spacingLeft=6;overflow=hidden;fontFamily=Helvetica;fontStyle=1" parent="0rB0F-Ur0wucUoMe_7N4-331" vertex="1"><mxGeometry x="210" width="110" height="30" as="geometry"><mxRectangle width="110" height="30" as="alternateBounds"/></mxGeometry></mxCell><mxCell id="i9lH0kLctUFSdABLEqn4-5" style="shape=partialRectangle;collapsible=0;dropTarget=0;pointerEvents=0;fillColor=none;top=0;left=0;bottom=0;right=0;points=[[0,0.5],[1,0.5]];portConstraint=eastwest;fontFamily=Helvetica;" parent="0rB0F-Ur0wucUoMe_7N4-277" vertex="1"><mxGeometry y="150" width="320" height="30" as="geometry"/></mxCell><mxCell id="i9lH0kLctUFSdABLEqn4-6" style="shape=partialRectangle;connectable=0;fillColor=none;top=0;left=0;bottom=0;right=0;editable=1;overflow=hidden;fontFamily=Helvetica;fontStyle=1" parent="i9lH0kLctUFSdABLEqn4-5" vertex="1"><mxGeometry width="30" height="30" as="geometry"><mxRectangle width="30" height="30" as="alternateBounds"/></mxGeometry></mxCell><mxCell id="i9lH0kLctUFSdABLEqn4-7" value="deviceId" style="shape=partialRectangle;connectable=0;fillColor=none;top=0;left=0;bottom=0;right=0;align=left;spacingLeft=6;overflow=hidden;fontColor=#3399FF;fontFamily=Helvetica;fontStyle=1" parent="i9lH0kLctUFSdABLEqn4-5" vertex="1"><mxGeometry x="30" width="180" height="30" as="geometry"><mxRectangle width="180" height="30" as="alternateBounds"/></mxGeometry></mxCell><mxCell id="i9lH0kLctUFSdABLEqn4-8" value="String" style="shape=partialRectangle;connectable=0;fillColor=none;top=0;left=0;bottom=0;right=0;align=left;spacingLeft=6;overflow=hidden;fontFamily=Helvetica;fontStyle=1" parent="i9lH0kLctUFSdABLEqn4-5" vertex="1"><mxGeometry x="210" width="110" height="30" as="geometry"><mxRectangle width="110" height="30" as="alternateBounds"/></mxGeometry></mxCell><mxCell id="0rB0F-Ur0wucUoMe_7N4-314" style="shape=partialRectangle;collapsible=0;dropTarget=0;pointerEvents=0;fillColor=none;top=0;left=0;bottom=0;right=0;points=[[0,0.5],[1,0.5]];portConstraint=eastwest;fontFamily=Helvetica;" parent="0rB0F-Ur0wucUoMe_7N4-277" vertex="1"><mxGeometry y="180" width="320" height="30" as="geometry"/></mxCell><mxCell id="0rB0F-Ur0wucUoMe_7N4-315" value="FK" style="shape=partialRectangle;connectable=0;fillColor=none;top=0;left=0;bottom=0;right=0;editable=1;overflow=hidden;fontFamily=Helvetica;fontStyle=1" parent="0rB0F-Ur0wucUoMe_7N4-314" vertex="1"><mxGeometry width="30" height="30" as="geometry"><mxRectangle width="30" height="30" as="alternateBounds"/></mxGeometry></mxCell><mxCell id="0rB0F-Ur0wucUoMe_7N4-316" value="levelId" style="shape=partialRectangle;connectable=0;fillColor=none;top=0;left=0;bottom=0;right=0;align=left;spacingLeft=6;overflow=hidden;fontColor=#3399FF;fontFamily=Helvetica;fontStyle=1" parent="0rB0F-Ur0wucUoMe_7N4-314" vertex="1"><mxGeometry x="30" width="180" height="30" as="geometry"><mxRectangle width="180" height="30" as="alternateBounds"/></mxGeometry></mxCell><mxCell id="0rB0F-Ur0wucUoMe_7N4-317" value="String" style="shape=partialRectangle;connectable=0;fillColor=none;top=0;left=0;bottom=0;right=0;align=left;spacingLeft=6;overflow=hidden;fontFamily=Helvetica;fontStyle=1" parent="0rB0F-Ur0wucUoMe_7N4-314" vertex="1"><mxGeometry x="210" width="110" height="30" as="geometry"><mxRectangle width="110" height="30" as="alternateBounds"/></mxGeometry></mxCell><mxCell id="0rB0F-Ur0wucUoMe_7N4-347" style="shape=partialRectangle;collapsible=0;dropTarget=0;pointerEvents=0;fillColor=none;top=0;left=0;bottom=0;right=0;points=[[0,0.5],[1,0.5]];portConstraint=eastwest;fontFamily=Helvetica;" parent="0rB0F-Ur0wucUoMe_7N4-277" vertex="1"><mxGeometry y="210" width="320" height="30" as="geometry"/></mxCell><mxCell id="0rB0F-Ur0wucUoMe_7N4-348" style="shape=partialRectangle;connectable=0;fillColor=none;top=0;left=0;bottom=0;right=0;editable=1;overflow=hidden;fontFamily=Helvetica;fontStyle=1" parent="0rB0F-Ur0wucUoMe_7N4-347" vertex="1"><mxGeometry width="30" height="30" as="geometry"><mxRectangle width="30" height="30" as="alternateBounds"/></mxGeometry></mxCell><mxCell id="0rB0F-Ur0wucUoMe_7N4-349" value="heartRate" style="shape=partialRectangle;connectable=0;fillColor=none;top=0;left=0;bottom=0;right=0;align=left;spacingLeft=6;overflow=hidden;fontFamily=Helvetica;fontStyle=1;fontColor=#3399FF;" parent="0rB0F-Ur0wucUoMe_7N4-347" vertex="1"><mxGeometry x="30" width="180" height="30" as="geometry"><mxRectangle width="180" height="30" as="alternateBounds"/></mxGeometry></mxCell><mxCell id="0rB0F-Ur0wucUoMe_7N4-350" value="int" style="shape=partialRectangle;connectable=0;fillColor=none;top=0;left=0;bottom=0;right=0;align=left;spacingLeft=6;overflow=hidden;fontFamily=Helvetica;fontStyle=1" parent="0rB0F-Ur0wucUoMe_7N4-347" vertex="1"><mxGeometry x="210" width="110" height="30" as="geometry"><mxRectangle width="110" height="30" as="alternateBounds"/></mxGeometry></mxCell><mxCell id="0rB0F-Ur0wucUoMe_7N4-351" style="shape=partialRectangle;collapsible=0;dropTarget=0;pointerEvents=0;fillColor=none;top=0;left=0;bottom=0;right=0;points=[[0,0.5],[1,0.5]];portConstraint=eastwest;fontFamily=Helvetica;" parent="0rB0F-Ur0wucUoMe_7N4-277" vertex="1"><mxGeometry y="240" width="320" height="30" as="geometry"/></mxCell><mxCell id="0rB0F-Ur0wucUoMe_7N4-352" style="shape=partialRectangle;connectable=0;fillColor=none;top=0;left=0;bottom=0;right=0;editable=1;overflow=hidden;fontFamily=Helvetica;fontStyle=1" parent="0rB0F-Ur0wucUoMe_7N4-351" vertex="1"><mxGeometry width="30" height="30" as="geometry"><mxRectangle width="30" height="30" as="alternateBounds"/></mxGeometry></mxCell><mxCell id="0rB0F-Ur0wucUoMe_7N4-353" value="bodyTemperature" style="shape=partialRectangle;connectable=0;fillColor=none;top=0;left=0;bottom=0;right=0;align=left;spacingLeft=6;overflow=hidden;fontFamily=Helvetica;fontStyle=1;fontColor=#3399FF;" parent="0rB0F-Ur0wucUoMe_7N4-351" vertex="1"><mxGeometry x="30" width="180" height="30" as="geometry"><mxRectangle width="180" height="30" as="alternateBounds"/></mxGeometry></mxCell><mxCell id="0rB0F-Ur0wucUoMe_7N4-354" value="double" style="shape=partialRectangle;connectable=0;fillColor=none;top=0;left=0;bottom=0;right=0;align=left;spacingLeft=6;overflow=hidden;fontFamily=Helvetica;fontStyle=1" parent="0rB0F-Ur0wucUoMe_7N4-351" vertex="1"><mxGeometry x="210" width="110" height="30" as="geometry"><mxRectangle width="110" height="30" as="alternateBounds"/></mxGeometry></mxCell><mxCell id="0rB0F-Ur0wucUoMe_7N4-355" style="shape=partialRectangle;collapsible=0;dropTarget=0;pointerEvents=0;fillColor=none;top=0;left=0;bottom=0;right=0;points=[[0,0.5],[1,0.5]];portConstraint=eastwest;fontFamily=Helvetica;" parent="0rB0F-Ur0wucUoMe_7N4-277" vertex="1"><mxGeometry y="270" width="320" height="20" as="geometry"/></mxCell><mxCell id="0rB0F-Ur0wucUoMe_7N4-356" style="shape=partialRectangle;connectable=0;fillColor=none;top=0;left=0;bottom=0;right=0;editable=1;overflow=hidden;fontFamily=Helvetica;fontStyle=1" parent="0rB0F-Ur0wucUoMe_7N4-355" vertex="1"><mxGeometry width="30" height="20" as="geometry"><mxRectangle width="30" height="20" as="alternateBounds"/></mxGeometry></mxCell><mxCell id="0rB0F-Ur0wucUoMe_7N4-357" value="stepCount" style="shape=partialRectangle;connectable=0;fillColor=none;top=0;left=0;bottom=0;right=0;align=left;spacingLeft=6;overflow=hidden;fontFamily=Helvetica;fontStyle=1;fontColor=#3399FF;" parent="0rB0F-Ur0wucUoMe_7N4-355" vertex="1"><mxGeometry x="30" width="180" height="20" as="geometry"><mxRectangle width="180" height="20" as="alternateBounds"/></mxGeometry></mxCell><mxCell id="0rB0F-Ur0wucUoMe_7N4-358" value="int" style="shape=partialRectangle;connectable=0;fillColor=none;top=0;left=0;bottom=0;right=0;align=left;spacingLeft=6;overflow=hidden;fontFamily=Helvetica;fontStyle=1" parent="0rB0F-Ur0wucUoMe_7N4-355" vertex="1"><mxGeometry x="210" width="110" height="20" as="geometry"><mxRectangle width="110" height="20" as="alternateBounds"/></mxGeometry></mxCell><mxCell id="0rB0F-Ur0wucUoMe_7N4-282" value="" style="shape=partialRectangle;collapsible=0;dropTarget=0;pointerEvents=0;fillColor=none;top=0;left=0;bottom=0;right=0;points=[[0,0.5],[1,0.5]];portConstraint=eastwest;sketch=0;strokeWidth=1;fontFamily=Helvetica;" parent="0rB0F-Ur0wucUoMe_7N4-277" vertex="1"><mxGeometry y="290" width="320" height="30" as="geometry"/></mxCell><mxCell id="0rB0F-Ur0wucUoMe_7N4-283" value="" style="shape=partialRectangle;connectable=0;fillColor=none;top=0;left=0;bottom=0;right=0;editable=1;overflow=hidden;fontFamily=Helvetica;fontStyle=1" parent="0rB0F-Ur0wucUoMe_7N4-282" vertex="1"><mxGeometry width="30" height="30" as="geometry"><mxRectangle width="30" height="30" as="alternateBounds"/></mxGeometry></mxCell><mxCell id="0rB0F-Ur0wucUoMe_7N4-284" value="" style="shape=partialRectangle;connectable=0;fillColor=none;top=0;left=0;bottom=0;right=0;align=left;spacingLeft=6;overflow=hidden;fontColor=#3399FF;fontFamily=Helvetica;fontStyle=1" parent="0rB0F-Ur0wucUoMe_7N4-282" vertex="1"><mxGeometry x="30" width="180" height="30" as="geometry"><mxRectangle width="180" height="30" as="alternateBounds"/></mxGeometry></mxCell><mxCell id="0rB0F-Ur0wucUoMe_7N4-285" value="" style="shape=partialRectangle;connectable=0;fillColor=none;top=0;left=0;bottom=0;right=0;align=left;spacingLeft=6;overflow=hidden;fontFamily=Helvetica;fontStyle=1" parent="0rB0F-Ur0wucUoMe_7N4-282" vertex="1"><mxGeometry x="210" width="110" height="30" as="geometry"><mxRectangle width="110" height="30" as="alternateBounds"/></mxGeometry></mxCell><mxCell id="0rB0F-Ur0wucUoMe_7N4-359" value="building-levels" style="shape=table;startSize=30;container=1;collapsible=1;childLayout=tableLayout;fixedRows=1;rowLines=0;fontStyle=1;align=center;resizeLast=1;rounded=0;sketch=0;shadow=0;swimlaneFillColor=#ffffff;fontFamily=Helvetica;perimeterSpacing=0;strokeColor=#3399FF;fillColor=#99CCFF;" parent="1" vertex="1"><mxGeometry x="-160" y="350" width="320" height="450" as="geometry"><mxRectangle x="-160" y="350" width="60" height="30" as="alternateBounds"/></mxGeometry></mxCell><mxCell id="0rB0F-Ur0wucUoMe_7N4-360" value="" style="shape=partialRectangle;collapsible=0;dropTarget=0;pointerEvents=0;fillColor=none;top=0;left=0;bottom=0;right=0;points=[[0,0.5],[1,0.5]];portConstraint=eastwest;fontFamily=Helvetica;" parent="0rB0F-Ur0wucUoMe_7N4-359" vertex="1"><mxGeometry y="30" width="320" height="30" as="geometry"/></mxCell><mxCell id="0rB0F-Ur0wucUoMe_7N4-361" value="PK" style="shape=partialRectangle;connectable=0;fillColor=none;top=0;left=0;bottom=0;right=0;editable=1;overflow=hidden;fontFamily=Helvetica;fontStyle=1" parent="0rB0F-Ur0wucUoMe_7N4-360" vertex="1"><mxGeometry width="30" height="30" as="geometry"><mxRectangle width="30" height="30" as="alternateBounds"/></mxGeometry></mxCell><mxCell id="0rB0F-Ur0wucUoMe_7N4-362" value="id" style="shape=partialRectangle;connectable=0;fillColor=none;top=0;left=0;bottom=0;right=0;align=left;spacingLeft=6;overflow=hidden;fontColor=#3399FF;fontFamily=Helvetica;fontStyle=1" parent="0rB0F-Ur0wucUoMe_7N4-360" vertex="1"><mxGeometry x="30" width="220" height="30" as="geometry"><mxRectangle width="220" height="30" as="alternateBounds"/></mxGeometry></mxCell><mxCell id="0rB0F-Ur0wucUoMe_7N4-363" value="String" style="shape=partialRectangle;connectable=0;fillColor=none;top=0;left=0;bottom=0;right=0;align=left;spacingLeft=6;overflow=hidden;fontFamily=Helvetica;fontStyle=1" parent="0rB0F-Ur0wucUoMe_7N4-360" vertex="1"><mxGeometry x="250" width="70" height="30" as="geometry"><mxRectangle width="70" height="30" as="alternateBounds"/></mxGeometry></mxCell><mxCell id="0rB0F-Ur0wucUoMe_7N4-364" value="" style="shape=partialRectangle;collapsible=0;dropTarget=0;pointerEvents=0;fillColor=none;top=0;left=0;bottom=0;right=0;points=[[0,0.5],[1,0.5]];portConstraint=eastwest;sketch=0;strokeWidth=1;fontFamily=Helvetica;" parent="0rB0F-Ur0wucUoMe_7N4-359" vertex="1"><mxGeometry y="60" width="320" height="30" as="geometry"/></mxCell><mxCell id="0rB0F-Ur0wucUoMe_7N4-365" value="" style="shape=partialRectangle;connectable=0;fillColor=none;top=0;left=0;bottom=0;right=0;editable=1;overflow=hidden;fontFamily=Helvetica;fontStyle=1" parent="0rB0F-Ur0wucUoMe_7N4-364" vertex="1"><mxGeometry width="30" height="30" as="geometry"><mxRectangle width="30" height="30" as="alternateBounds"/></mxGeometry></mxCell><mxCell id="0rB0F-Ur0wucUoMe_7N4-366" value="number" style="shape=partialRectangle;connectable=0;fillColor=none;top=0;left=0;bottom=0;right=0;align=left;spacingLeft=6;overflow=hidden;fontColor=#3399FF;fontFamily=Helvetica;fontStyle=1" parent="0rB0F-Ur0wucUoMe_7N4-364" vertex="1"><mxGeometry x="30" width="220" height="30" as="geometry"><mxRectangle width="220" height="30" as="alternateBounds"/></mxGeometry></mxCell><mxCell id="0rB0F-Ur0wucUoMe_7N4-367" value="int" style="shape=partialRectangle;connectable=0;fillColor=none;top=0;left=0;bottom=0;right=0;align=left;spacingLeft=6;overflow=hidden;fontFamily=Helvetica;fontStyle=1" parent="0rB0F-Ur0wucUoMe_7N4-364" vertex="1"><mxGeometry x="250" width="70" height="30" as="geometry"><mxRectangle width="70" height="30" as="alternateBounds"/></mxGeometry></mxCell><mxCell id="0rB0F-Ur0wucUoMe_7N4-368" style="shape=partialRectangle;collapsible=0;dropTarget=0;pointerEvents=0;fillColor=none;top=0;left=0;bottom=0;right=0;points=[[0,0.5],[1,0.5]];portConstraint=eastwest;sketch=0;strokeWidth=1;fontFamily=Helvetica;" parent="0rB0F-Ur0wucUoMe_7N4-359" vertex="1"><mxGeometry y="90" width="320" height="30" as="geometry"/></mxCell><mxCell id="0rB0F-Ur0wucUoMe_7N4-369" value="FK" style="shape=partialRectangle;connectable=0;fillColor=none;top=0;left=0;bottom=0;right=0;editable=1;overflow=hidden;fontFamily=Helvetica;fontStyle=1" parent="0rB0F-Ur0wucUoMe_7N4-368" vertex="1"><mxGeometry width="30" height="30" as="geometry"><mxRectangle width="30" height="30" as="alternateBounds"/></mxGeometry></mxCell><mxCell id="0rB0F-Ur0wucUoMe_7N4-370" value="buildingId" style="shape=partialRectangle;connectable=0;fillColor=none;top=0;left=0;bottom=0;right=0;align=left;spacingLeft=6;overflow=hidden;fontColor=#3399FF;fontFamily=Helvetica;fontStyle=1" parent="0rB0F-Ur0wucUoMe_7N4-368" vertex="1"><mxGeometry x="30" width="220" height="30" as="geometry"><mxRectangle width="220" height="30" as="alternateBounds"/></mxGeometry></mxCell><mxCell id="0rB0F-Ur0wucUoMe_7N4-371" value="String" style="shape=partialRectangle;connectable=0;fillColor=none;top=0;left=0;bottom=0;right=0;align=left;spacingLeft=6;overflow=hidden;fontFamily=Helvetica;fontStyle=1" parent="0rB0F-Ur0wucUoMe_7N4-368" vertex="1"><mxGeometry x="250" width="70" height="30" as="geometry"><mxRectangle width="70" height="30" as="alternateBounds"/></mxGeometry></mxCell><mxCell id="0rB0F-Ur0wucUoMe_7N4-372" value="" style="shape=partialRectangle;collapsible=0;dropTarget=0;pointerEvents=0;fillColor=none;top=0;left=0;bottom=0;right=0;points=[[0,0.5],[1,0.5]];portConstraint=eastwest;fontFamily=Helvetica;" parent="0rB0F-Ur0wucUoMe_7N4-359" vertex="1"><mxGeometry y="120" width="320" height="30" as="geometry"/></mxCell><mxCell id="0rB0F-Ur0wucUoMe_7N4-373" value="" style="shape=partialRectangle;connectable=0;fillColor=none;top=0;left=0;bottom=0;right=0;editable=1;overflow=hidden;fontFamily=Helvetica;fontStyle=1" parent="0rB0F-Ur0wucUoMe_7N4-372" vertex="1"><mxGeometry width="30" height="30" as="geometry"><mxRectangle width="30" height="30" as="alternateBounds"/></mxGeometry></mxCell><mxCell id="0rB0F-Ur0wucUoMe_7N4-374" value="southWestLatitude" style="shape=partialRectangle;connectable=0;fillColor=none;top=0;left=0;bottom=0;right=0;align=left;spacingLeft=6;overflow=hidden;fontColor=#3399FF;fontFamily=Helvetica;fontStyle=1" parent="0rB0F-Ur0wucUoMe_7N4-372" vertex="1"><mxGeometry x="30" width="220" height="30" as="geometry"><mxRectangle width="220" height="30" as="alternateBounds"/></mxGeometry></mxCell><mxCell id="0rB0F-Ur0wucUoMe_7N4-375" value="double" style="shape=partialRectangle;connectable=0;fillColor=none;top=0;left=0;bottom=0;right=0;align=left;spacingLeft=6;overflow=hidden;fontFamily=Helvetica;fontStyle=1;flipV=1;flipH=1;" parent="0rB0F-Ur0wucUoMe_7N4-372" vertex="1"><mxGeometry x="250" width="70" height="30" as="geometry"><mxRectangle width="70" height="30" as="alternateBounds"/></mxGeometry></mxCell><mxCell id="0rB0F-Ur0wucUoMe_7N4-376" style="shape=partialRectangle;collapsible=0;dropTarget=0;pointerEvents=0;fillColor=none;top=0;left=0;bottom=0;right=0;points=[[0,0.5],[1,0.5]];portConstraint=eastwest;fontFamily=Helvetica;" parent="0rB0F-Ur0wucUoMe_7N4-359" vertex="1"><mxGeometry y="150" width="320" height="30" as="geometry"/></mxCell><mxCell id="0rB0F-Ur0wucUoMe_7N4-377" style="shape=partialRectangle;connectable=0;fillColor=none;top=0;left=0;bottom=0;right=0;editable=1;overflow=hidden;fontFamily=Helvetica;fontStyle=1" parent="0rB0F-Ur0wucUoMe_7N4-376" vertex="1"><mxGeometry width="30" height="30" as="geometry"><mxRectangle width="30" height="30" as="alternateBounds"/></mxGeometry></mxCell><mxCell id="0rB0F-Ur0wucUoMe_7N4-378" value="southWestLongitude" style="shape=partialRectangle;connectable=0;fillColor=none;top=0;left=0;bottom=0;right=0;align=left;spacingLeft=6;overflow=hidden;fontColor=#3399FF;fontFamily=Helvetica;fontStyle=1" parent="0rB0F-Ur0wucUoMe_7N4-376" vertex="1"><mxGeometry x="30" width="220" height="30" as="geometry"><mxRectangle width="220" height="30" as="alternateBounds"/></mxGeometry></mxCell><mxCell id="0rB0F-Ur0wucUoMe_7N4-379" value="double" style="shape=partialRectangle;connectable=0;fillColor=none;top=0;left=0;bottom=0;right=0;align=left;spacingLeft=6;overflow=hidden;fontFamily=Helvetica;fontStyle=1" parent="0rB0F-Ur0wucUoMe_7N4-376" vertex="1"><mxGeometry x="250" width="70" height="30" as="geometry"><mxRectangle width="70" height="30" as="alternateBounds"/></mxGeometry></mxCell><mxCell id="0rB0F-Ur0wucUoMe_7N4-380" style="shape=partialRectangle;collapsible=0;dropTarget=0;pointerEvents=0;fillColor=none;top=0;left=0;bottom=0;right=0;points=[[0,0.5],[1,0.5]];portConstraint=eastwest;fontFamily=Helvetica;" parent="0rB0F-Ur0wucUoMe_7N4-359" vertex="1"><mxGeometry y="180" width="320" height="30" as="geometry"/></mxCell><mxCell id="0rB0F-Ur0wucUoMe_7N4-381" style="shape=partialRectangle;connectable=0;fillColor=none;top=0;left=0;bottom=0;right=0;editable=1;overflow=hidden;fontFamily=Helvetica;fontStyle=1" parent="0rB0F-Ur0wucUoMe_7N4-380" vertex="1"><mxGeometry width="30" height="30" as="geometry"><mxRectangle width="30" height="30" as="alternateBounds"/></mxGeometry></mxCell><mxCell id="0rB0F-Ur0wucUoMe_7N4-382" value="northEastLatitude" style="shape=partialRectangle;connectable=0;fillColor=none;top=0;left=0;bottom=0;right=0;align=left;spacingLeft=6;overflow=hidden;fontColor=#3399FF;fontFamily=Helvetica;fontStyle=1" parent="0rB0F-Ur0wucUoMe_7N4-380" vertex="1"><mxGeometry x="30" width="220" height="30" as="geometry"><mxRectangle width="220" height="30" as="alternateBounds"/></mxGeometry></mxCell><mxCell id="0rB0F-Ur0wucUoMe_7N4-383" value="double" style="shape=partialRectangle;connectable=0;fillColor=none;top=0;left=0;bottom=0;right=0;align=left;spacingLeft=6;overflow=hidden;fontFamily=Helvetica;fontStyle=1" parent="0rB0F-Ur0wucUoMe_7N4-380" vertex="1"><mxGeometry x="250" width="70" height="30" as="geometry"><mxRectangle width="70" height="30" as="alternateBounds"/></mxGeometry></mxCell><mxCell id="0rB0F-Ur0wucUoMe_7N4-384" style="shape=partialRectangle;collapsible=0;dropTarget=0;pointerEvents=0;fillColor=none;top=0;left=0;bottom=0;right=0;points=[[0,0.5],[1,0.5]];portConstraint=eastwest;fontFamily=Helvetica;" parent="0rB0F-Ur0wucUoMe_7N4-359" vertex="1"><mxGeometry y="210" width="320" height="30" as="geometry"/></mxCell><mxCell id="0rB0F-Ur0wucUoMe_7N4-385" value="" style="shape=partialRectangle;connectable=0;fillColor=none;top=0;left=0;bottom=0;right=0;editable=1;overflow=hidden;fontFamily=Helvetica;fontStyle=1" parent="0rB0F-Ur0wucUoMe_7N4-384" vertex="1"><mxGeometry width="30" height="30" as="geometry"><mxRectangle width="30" height="30" as="alternateBounds"/></mxGeometry></mxCell><mxCell id="0rB0F-Ur0wucUoMe_7N4-386" value="northEastLongitude" style="shape=partialRectangle;connectable=0;fillColor=none;top=0;left=0;bottom=0;right=0;align=left;spacingLeft=6;overflow=hidden;fontFamily=Helvetica;fontStyle=1;fontColor=#3399FF;" parent="0rB0F-Ur0wucUoMe_7N4-384" vertex="1"><mxGeometry x="30" width="220" height="30" as="geometry"><mxRectangle width="220" height="30" as="alternateBounds"/></mxGeometry></mxCell><mxCell id="0rB0F-Ur0wucUoMe_7N4-387" value="double" style="shape=partialRectangle;connectable=0;fillColor=none;top=0;left=0;bottom=0;right=0;align=left;spacingLeft=6;overflow=hidden;fontFamily=Helvetica;fontStyle=1" parent="0rB0F-Ur0wucUoMe_7N4-384" vertex="1"><mxGeometry x="250" width="70" height="30" as="geometry"><mxRectangle width="70" height="30" as="alternateBounds"/></mxGeometry></mxCell><mxCell id="6gP9qJFttQQGHEHYtYaa-1" style="shape=partialRectangle;collapsible=0;dropTarget=0;pointerEvents=0;fillColor=none;top=0;left=0;bottom=0;right=0;points=[[0,0.5],[1,0.5]];portConstraint=eastwest;fontFamily=Helvetica;" parent="0rB0F-Ur0wucUoMe_7N4-359" vertex="1"><mxGeometry y="240" width="320" height="30" as="geometry"/></mxCell><mxCell id="6gP9qJFttQQGHEHYtYaa-2" style="shape=partialRectangle;connectable=0;fillColor=none;top=0;left=0;bottom=0;right=0;editable=1;overflow=hidden;fontFamily=Helvetica;fontStyle=1" parent="6gP9qJFttQQGHEHYtYaa-1" vertex="1"><mxGeometry width="30" height="30" as="geometry"><mxRectangle width="30" height="30" as="alternateBounds"/></mxGeometry></mxCell><mxCell id="6gP9qJFttQQGHEHYtYaa-3" value="scaleStartLatitude" style="shape=partialRectangle;connectable=0;fillColor=none;top=0;left=0;bottom=0;right=0;align=left;spacingLeft=6;overflow=hidden;fontFamily=Helvetica;fontStyle=1;fontColor=#3399FF;" parent="6gP9qJFttQQGHEHYtYaa-1" vertex="1"><mxGeometry x="30" width="220" height="30" as="geometry"><mxRectangle width="220" height="30" as="alternateBounds"/></mxGeometry></mxCell><mxCell id="6gP9qJFttQQGHEHYtYaa-4" value="double" style="shape=partialRectangle;connectable=0;fillColor=none;top=0;left=0;bottom=0;right=0;align=left;spacingLeft=6;overflow=hidden;fontFamily=Helvetica;fontStyle=1" parent="6gP9qJFttQQGHEHYtYaa-1" vertex="1"><mxGeometry x="250" width="70" height="30" as="geometry"><mxRectangle width="70" height="30" as="alternateBounds"/></mxGeometry></mxCell><mxCell id="6gP9qJFttQQGHEHYtYaa-5" style="shape=partialRectangle;collapsible=0;dropTarget=0;pointerEvents=0;fillColor=none;top=0;left=0;bottom=0;right=0;points=[[0,0.5],[1,0.5]];portConstraint=eastwest;fontFamily=Helvetica;" parent="0rB0F-Ur0wucUoMe_7N4-359" vertex="1"><mxGeometry y="270" width="320" height="30" as="geometry"/></mxCell><mxCell id="6gP9qJFttQQGHEHYtYaa-6" style="shape=partialRectangle;connectable=0;fillColor=none;top=0;left=0;bottom=0;right=0;editable=1;overflow=hidden;fontFamily=Helvetica;fontStyle=1" parent="6gP9qJFttQQGHEHYtYaa-5" vertex="1"><mxGeometry width="30" height="30" as="geometry"><mxRectangle width="30" height="30" as="alternateBounds"/></mxGeometry></mxCell><mxCell id="6gP9qJFttQQGHEHYtYaa-7" value="scaleStartLongitude" style="shape=partialRectangle;connectable=0;fillColor=none;top=0;left=0;bottom=0;right=0;align=left;spacingLeft=6;overflow=hidden;fontFamily=Helvetica;fontStyle=1;fontColor=#3399FF;" parent="6gP9qJFttQQGHEHYtYaa-5" vertex="1"><mxGeometry x="30" width="220" height="30" as="geometry"><mxRectangle width="220" height="30" as="alternateBounds"/></mxGeometry></mxCell><mxCell id="6gP9qJFttQQGHEHYtYaa-8" value="double" style="shape=partialRectangle;connectable=0;fillColor=none;top=0;left=0;bottom=0;right=0;align=left;spacingLeft=6;overflow=hidden;fontFamily=Helvetica;fontStyle=1" parent="6gP9qJFttQQGHEHYtYaa-5" vertex="1"><mxGeometry x="250" width="70" height="30" as="geometry"><mxRectangle width="70" height="30" as="alternateBounds"/></mxGeometry></mxCell><mxCell id="6gP9qJFttQQGHEHYtYaa-9" style="shape=partialRectangle;collapsible=0;dropTarget=0;pointerEvents=0;fillColor=none;top=0;left=0;bottom=0;right=0;points=[[0,0.5],[1,0.5]];portConstraint=eastwest;fontFamily=Helvetica;" parent="0rB0F-Ur0wucUoMe_7N4-359" vertex="1"><mxGeometry y="300" width="320" height="30" as="geometry"/></mxCell><mxCell id="6gP9qJFttQQGHEHYtYaa-10" style="shape=partialRectangle;connectable=0;fillColor=none;top=0;left=0;bottom=0;right=0;editable=1;overflow=hidden;fontFamily=Helvetica;fontStyle=1" parent="6gP9qJFttQQGHEHYtYaa-9" vertex="1"><mxGeometry width="30" height="30" as="geometry"><mxRectangle width="30" height="30" as="alternateBounds"/></mxGeometry></mxCell><mxCell id="6gP9qJFttQQGHEHYtYaa-11" value="scaleEndLatitude" style="shape=partialRectangle;connectable=0;fillColor=none;top=0;left=0;bottom=0;right=0;align=left;spacingLeft=6;overflow=hidden;fontFamily=Helvetica;fontStyle=1;fontColor=#3399FF;" parent="6gP9qJFttQQGHEHYtYaa-9" vertex="1"><mxGeometry x="30" width="220" height="30" as="geometry"><mxRectangle width="220" height="30" as="alternateBounds"/></mxGeometry></mxCell><mxCell id="6gP9qJFttQQGHEHYtYaa-12" value="double" style="shape=partialRectangle;connectable=0;fillColor=none;top=0;left=0;bottom=0;right=0;align=left;spacingLeft=6;overflow=hidden;fontFamily=Helvetica;fontStyle=1" parent="6gP9qJFttQQGHEHYtYaa-9" vertex="1"><mxGeometry x="250" width="70" height="30" as="geometry"><mxRectangle width="70" height="30" as="alternateBounds"/></mxGeometry></mxCell><mxCell id="6gP9qJFttQQGHEHYtYaa-13" style="shape=partialRectangle;collapsible=0;dropTarget=0;pointerEvents=0;fillColor=none;top=0;left=0;bottom=0;right=0;points=[[0,0.5],[1,0.5]];portConstraint=eastwest;fontFamily=Helvetica;" parent="0rB0F-Ur0wucUoMe_7N4-359" vertex="1"><mxGeometry y="330" width="320" height="30" as="geometry"/></mxCell><mxCell id="6gP9qJFttQQGHEHYtYaa-14" style="shape=partialRectangle;connectable=0;fillColor=none;top=0;left=0;bottom=0;right=0;editable=1;overflow=hidden;fontFamily=Helvetica;fontStyle=1" parent="6gP9qJFttQQGHEHYtYaa-13" vertex="1"><mxGeometry width="30" height="30" as="geometry"><mxRectangle width="30" height="30" as="alternateBounds"/></mxGeometry></mxCell><mxCell id="6gP9qJFttQQGHEHYtYaa-15" value="scaleEndLongitude" style="shape=partialRectangle;connectable=0;fillColor=none;top=0;left=0;bottom=0;right=0;align=left;spacingLeft=6;overflow=hidden;fontFamily=Helvetica;fontStyle=1;fontColor=#3399FF;" parent="6gP9qJFttQQGHEHYtYaa-13" vertex="1"><mxGeometry x="30" width="220" height="30" as="geometry"><mxRectangle width="220" height="30" as="alternateBounds"/></mxGeometry></mxCell><mxCell id="6gP9qJFttQQGHEHYtYaa-16" value="double" style="shape=partialRectangle;connectable=0;fillColor=none;top=0;left=0;bottom=0;right=0;align=left;spacingLeft=6;overflow=hidden;fontFamily=Helvetica;fontStyle=1" parent="6gP9qJFttQQGHEHYtYaa-13" vertex="1"><mxGeometry x="250" width="70" height="30" as="geometry"><mxRectangle width="70" height="30" as="alternateBounds"/></mxGeometry></mxCell><mxCell id="6gP9qJFttQQGHEHYtYaa-17" style="shape=partialRectangle;collapsible=0;dropTarget=0;pointerEvents=0;fillColor=none;top=0;left=0;bottom=0;right=0;points=[[0,0.5],[1,0.5]];portConstraint=eastwest;fontFamily=Helvetica;" parent="0rB0F-Ur0wucUoMe_7N4-359" vertex="1"><mxGeometry y="360" width="320" height="30" as="geometry"/></mxCell><mxCell id="6gP9qJFttQQGHEHYtYaa-18" style="shape=partialRectangle;connectable=0;fillColor=none;top=0;left=0;bottom=0;right=0;editable=1;overflow=hidden;fontFamily=Helvetica;fontStyle=1" parent="6gP9qJFttQQGHEHYtYaa-17" vertex="1"><mxGeometry width="30" height="30" as="geometry"><mxRectangle width="30" height="30" as="alternateBounds"/></mxGeometry></mxCell><mxCell id="6gP9qJFttQQGHEHYtYaa-19" value="scaleDistance" style="shape=partialRectangle;connectable=0;fillColor=none;top=0;left=0;bottom=0;right=0;align=left;spacingLeft=6;overflow=hidden;fontFamily=Helvetica;fontStyle=1;fontColor=#3399FF;" parent="6gP9qJFttQQGHEHYtYaa-17" vertex="1"><mxGeometry x="30" width="220" height="30" as="geometry"><mxRectangle width="220" height="30" as="alternateBounds"/></mxGeometry></mxCell><mxCell id="6gP9qJFttQQGHEHYtYaa-20" value="double" style="shape=partialRectangle;connectable=0;fillColor=none;top=0;left=0;bottom=0;right=0;align=left;spacingLeft=6;overflow=hidden;fontFamily=Helvetica;fontStyle=1" parent="6gP9qJFttQQGHEHYtYaa-17" vertex="1"><mxGeometry x="250" width="70" height="30" as="geometry"><mxRectangle width="70" height="30" as="alternateBounds"/></mxGeometry></mxCell><mxCell id="0rB0F-Ur0wucUoMe_7N4-388" style="shape=partialRectangle;collapsible=0;dropTarget=0;pointerEvents=0;fillColor=none;top=0;left=0;bottom=0;right=0;points=[[0,0.5],[1,0.5]];portConstraint=eastwest;fontFamily=Helvetica;" parent="0rB0F-Ur0wucUoMe_7N4-359" vertex="1"><mxGeometry y="390" width="320" height="30" as="geometry"/></mxCell><mxCell id="0rB0F-Ur0wucUoMe_7N4-389" style="shape=partialRectangle;connectable=0;fillColor=none;top=0;left=0;bottom=0;right=0;editable=1;overflow=hidden;fontFamily=Helvetica;fontStyle=1" parent="0rB0F-Ur0wucUoMe_7N4-388" vertex="1"><mxGeometry width="30" height="30" as="geometry"><mxRectangle width="30" height="30" as="alternateBounds"/></mxGeometry></mxCell><mxCell id="0rB0F-Ur0wucUoMe_7N4-390" value="imageAsbyteArray" style="shape=partialRectangle;connectable=0;fillColor=none;top=0;left=0;bottom=0;right=0;align=left;spacingLeft=6;overflow=hidden;fontFamily=Helvetica;fontStyle=1;fontColor=#3399FF;" parent="0rB0F-Ur0wucUoMe_7N4-388" vertex="1"><mxGeometry x="30" width="220" height="30" as="geometry"><mxRectangle width="220" height="30" as="alternateBounds"/></mxGeometry></mxCell><mxCell id="0rB0F-Ur0wucUoMe_7N4-391" value="byte[]" style="shape=partialRectangle;connectable=0;fillColor=none;top=0;left=0;bottom=0;right=0;align=left;spacingLeft=6;overflow=hidden;fontFamily=Helvetica;fontStyle=1" parent="0rB0F-Ur0wucUoMe_7N4-388" vertex="1"><mxGeometry x="250" width="70" height="30" as="geometry"><mxRectangle width="70" height="30" as="alternateBounds"/></mxGeometry></mxCell><mxCell id="0rB0F-Ur0wucUoMe_7N4-392" style="shape=partialRectangle;collapsible=0;dropTarget=0;pointerEvents=0;fillColor=none;top=0;left=0;bottom=0;right=0;points=[[0,0.5],[1,0.5]];portConstraint=eastwest;fontFamily=Helvetica;" parent="0rB0F-Ur0wucUoMe_7N4-359" vertex="1"><mxGeometry y="420" width="320" height="30" as="geometry"/></mxCell><mxCell id="0rB0F-Ur0wucUoMe_7N4-393" value="" style="shape=partialRectangle;connectable=0;fillColor=none;top=0;left=0;bottom=0;right=0;editable=1;overflow=hidden;fontFamily=Helvetica;fontStyle=1" parent="0rB0F-Ur0wucUoMe_7N4-392" vertex="1"><mxGeometry width="30" height="30" as="geometry"><mxRectangle width="30" height="30" as="alternateBounds"/></mxGeometry></mxCell><mxCell id="0rB0F-Ur0wucUoMe_7N4-394" value="mimeType" style="shape=partialRectangle;connectable=0;fillColor=none;top=0;left=0;bottom=0;right=0;align=left;spacingLeft=6;overflow=hidden;fontFamily=Helvetica;fontStyle=1;fontColor=#3399FF;" parent="0rB0F-Ur0wucUoMe_7N4-392" vertex="1"><mxGeometry x="30" width="220" height="30" as="geometry"><mxRectangle width="220" height="30" as="alternateBounds"/></mxGeometry></mxCell><mxCell id="0rB0F-Ur0wucUoMe_7N4-395" value="String" style="shape=partialRectangle;connectable=0;fillColor=none;top=0;left=0;bottom=0;right=0;align=left;spacingLeft=6;overflow=hidden;fontFamily=Helvetica;fontStyle=1" parent="0rB0F-Ur0wucUoMe_7N4-392" vertex="1"><mxGeometry x="250" width="70" height="30" as="geometry"><mxRectangle width="70" height="30" as="alternateBounds"/></mxGeometry></mxCell><mxCell id="0rB0F-Ur0wucUoMe_7N4-396" value="areas" style="shape=table;startSize=30;container=1;collapsible=1;childLayout=tableLayout;fixedRows=1;rowLines=0;fontStyle=1;align=center;resizeLast=1;rounded=0;sketch=0;shadow=0;swimlaneFillColor=#ffffff;fontFamily=Helvetica;perimeterSpacing=0;strokeColor=#3399FF;fillColor=#99CCFF;" parent="1" vertex="1"><mxGeometry x="-640" y="350" width="340" height="180" as="geometry"><mxRectangle x="-160" y="20" width="60" height="30" as="alternateBounds"/></mxGeometry></mxCell><mxCell id="0rB0F-Ur0wucUoMe_7N4-397" value="" style="shape=partialRectangle;collapsible=0;dropTarget=0;pointerEvents=0;fillColor=none;top=0;left=0;bottom=0;right=0;points=[[0,0.5],[1,0.5]];portConstraint=eastwest;fontFamily=Helvetica;" parent="0rB0F-Ur0wucUoMe_7N4-396" vertex="1"><mxGeometry y="30" width="340" height="30" as="geometry"/></mxCell><mxCell id="0rB0F-Ur0wucUoMe_7N4-398" value="PK" style="shape=partialRectangle;connectable=0;fillColor=none;top=0;left=0;bottom=0;right=0;editable=1;overflow=hidden;fontFamily=Helvetica;fontStyle=1" parent="0rB0F-Ur0wucUoMe_7N4-397" vertex="1"><mxGeometry width="30" height="30" as="geometry"><mxRectangle width="30" height="30" as="alternateBounds"/></mxGeometry></mxCell><mxCell id="0rB0F-Ur0wucUoMe_7N4-399" value="id" style="shape=partialRectangle;connectable=0;fillColor=none;top=0;left=0;bottom=0;right=0;align=left;spacingLeft=6;overflow=hidden;fontColor=#3399FF;fontFamily=Helvetica;fontStyle=1" parent="0rB0F-Ur0wucUoMe_7N4-397" vertex="1"><mxGeometry x="30" width="170" height="30" as="geometry"><mxRectangle width="170" height="30" as="alternateBounds"/></mxGeometry></mxCell><mxCell id="0rB0F-Ur0wucUoMe_7N4-400" value="String" style="shape=partialRectangle;connectable=0;fillColor=none;top=0;left=0;bottom=0;right=0;align=left;spacingLeft=6;overflow=hidden;fontFamily=Helvetica;fontStyle=1" parent="0rB0F-Ur0wucUoMe_7N4-397" vertex="1"><mxGeometry x="200" width="140" height="30" as="geometry"><mxRectangle width="140" height="30" as="alternateBounds"/></mxGeometry></mxCell><mxCell id="0rB0F-Ur0wucUoMe_7N4-413" style="shape=partialRectangle;collapsible=0;dropTarget=0;pointerEvents=0;fillColor=none;top=0;left=0;bottom=0;right=0;points=[[0,0.5],[1,0.5]];portConstraint=eastwest;fontFamily=Helvetica;" parent="0rB0F-Ur0wucUoMe_7N4-396" vertex="1"><mxGeometry y="60" width="340" height="30" as="geometry"/></mxCell><mxCell id="0rB0F-Ur0wucUoMe_7N4-414" style="shape=partialRectangle;connectable=0;fillColor=none;top=0;left=0;bottom=0;right=0;editable=1;overflow=hidden;fontFamily=Helvetica;fontStyle=1" parent="0rB0F-Ur0wucUoMe_7N4-413" vertex="1"><mxGeometry width="30" height="30" as="geometry"><mxRectangle width="30" height="30" as="alternateBounds"/></mxGeometry></mxCell><mxCell id="0rB0F-Ur0wucUoMe_7N4-415" value="description" style="shape=partialRectangle;connectable=0;fillColor=none;top=0;left=0;bottom=0;right=0;align=left;spacingLeft=6;overflow=hidden;fontColor=#3399FF;fontFamily=Helvetica;fontStyle=1" parent="0rB0F-Ur0wucUoMe_7N4-413" vertex="1"><mxGeometry x="30" width="170" height="30" as="geometry"><mxRectangle width="170" height="30" as="alternateBounds"/></mxGeometry></mxCell><mxCell id="0rB0F-Ur0wucUoMe_7N4-416" value="String" style="shape=partialRectangle;connectable=0;fillColor=none;top=0;left=0;bottom=0;right=0;align=left;spacingLeft=6;overflow=hidden;fontFamily=Helvetica;fontStyle=1" parent="0rB0F-Ur0wucUoMe_7N4-413" vertex="1"><mxGeometry x="200" width="140" height="30" as="geometry"><mxRectangle width="140" height="30" as="alternateBounds"/></mxGeometry></mxCell><mxCell id="0rB0F-Ur0wucUoMe_7N4-421" style="shape=partialRectangle;collapsible=0;dropTarget=0;pointerEvents=0;fillColor=none;top=0;left=0;bottom=0;right=0;points=[[0,0.5],[1,0.5]];portConstraint=eastwest;fontFamily=Helvetica;" parent="0rB0F-Ur0wucUoMe_7N4-396" vertex="1"><mxGeometry y="90" width="340" height="30" as="geometry"/></mxCell><mxCell id="0rB0F-Ur0wucUoMe_7N4-422" value="" style="shape=partialRectangle;connectable=0;fillColor=none;top=0;left=0;bottom=0;right=0;editable=1;overflow=hidden;fontFamily=Helvetica;fontStyle=1" parent="0rB0F-Ur0wucUoMe_7N4-421" vertex="1"><mxGeometry width="30" height="30" as="geometry"><mxRectangle width="30" height="30" as="alternateBounds"/></mxGeometry></mxCell><mxCell id="0rB0F-Ur0wucUoMe_7N4-423" value="name" style="shape=partialRectangle;connectable=0;fillColor=none;top=0;left=0;bottom=0;right=0;align=left;spacingLeft=6;overflow=hidden;fontFamily=Helvetica;fontStyle=1;fontColor=#3399FF;" parent="0rB0F-Ur0wucUoMe_7N4-421" vertex="1"><mxGeometry x="30" width="170" height="30" as="geometry"><mxRectangle width="170" height="30" as="alternateBounds"/></mxGeometry></mxCell><mxCell id="0rB0F-Ur0wucUoMe_7N4-424" value="String" style="shape=partialRectangle;connectable=0;fillColor=none;top=0;left=0;bottom=0;right=0;align=left;spacingLeft=6;overflow=hidden;fontFamily=Helvetica;fontStyle=1" parent="0rB0F-Ur0wucUoMe_7N4-421" vertex="1"><mxGeometry x="200" width="140" height="30" as="geometry"><mxRectangle width="140" height="30" as="alternateBounds"/></mxGeometry></mxCell><mxCell id="0rB0F-Ur0wucUoMe_7N4-425" style="shape=partialRectangle;collapsible=0;dropTarget=0;pointerEvents=0;fillColor=none;top=0;left=0;bottom=0;right=0;points=[[0,0.5],[1,0.5]];portConstraint=eastwest;fontFamily=Helvetica;" parent="0rB0F-Ur0wucUoMe_7N4-396" vertex="1"><mxGeometry y="120" width="340" height="30" as="geometry"/></mxCell><mxCell id="0rB0F-Ur0wucUoMe_7N4-426" value="FK" style="shape=partialRectangle;connectable=0;fillColor=none;top=0;left=0;bottom=0;right=0;editable=1;overflow=hidden;fontFamily=Helvetica;fontStyle=1" parent="0rB0F-Ur0wucUoMe_7N4-425" vertex="1"><mxGeometry width="30" height="30" as="geometry"><mxRectangle width="30" height="30" as="alternateBounds"/></mxGeometry></mxCell><mxCell id="0rB0F-Ur0wucUoMe_7N4-427" value="levelId" style="shape=partialRectangle;connectable=0;fillColor=none;top=0;left=0;bottom=0;right=0;align=left;spacingLeft=6;overflow=hidden;fontFamily=Helvetica;fontStyle=1;fontColor=#3399FF;" parent="0rB0F-Ur0wucUoMe_7N4-425" vertex="1"><mxGeometry x="30" width="170" height="30" as="geometry"><mxRectangle width="170" height="30" as="alternateBounds"/></mxGeometry></mxCell><mxCell id="0rB0F-Ur0wucUoMe_7N4-428" value="String" style="shape=partialRectangle;connectable=0;fillColor=none;top=0;left=0;bottom=0;right=0;align=left;spacingLeft=6;overflow=hidden;fontFamily=Helvetica;fontStyle=1" parent="0rB0F-Ur0wucUoMe_7N4-425" vertex="1"><mxGeometry x="200" width="140" height="30" as="geometry"><mxRectangle width="140" height="30" as="alternateBounds"/></mxGeometry></mxCell><mxCell id="0rB0F-Ur0wucUoMe_7N4-429" style="shape=partialRectangle;collapsible=0;dropTarget=0;pointerEvents=0;fillColor=none;top=0;left=0;bottom=0;right=0;points=[[0,0.5],[1,0.5]];portConstraint=eastwest;fontFamily=Helvetica;" parent="0rB0F-Ur0wucUoMe_7N4-396" vertex="1"><mxGeometry y="150" width="340" height="30" as="geometry"/></mxCell><mxCell id="0rB0F-Ur0wucUoMe_7N4-430" value="" style="shape=partialRectangle;connectable=0;fillColor=none;top=0;left=0;bottom=0;right=0;editable=1;overflow=hidden;fontFamily=Helvetica;fontStyle=1" parent="0rB0F-Ur0wucUoMe_7N4-429" vertex="1"><mxGeometry width="30" height="30" as="geometry"><mxRectangle width="30" height="30" as="alternateBounds"/></mxGeometry></mxCell><mxCell id="0rB0F-Ur0wucUoMe_7N4-431" value="coordinates" style="shape=partialRectangle;connectable=0;fillColor=none;top=0;left=0;bottom=0;right=0;align=left;spacingLeft=6;overflow=hidden;fontFamily=Helvetica;fontStyle=1;fontColor=#3399FF;" parent="0rB0F-Ur0wucUoMe_7N4-429" vertex="1"><mxGeometry x="30" width="170" height="30" as="geometry"><mxRectangle width="170" height="30" as="alternateBounds"/></mxGeometry></mxCell><mxCell id="0rB0F-Ur0wucUoMe_7N4-432" value="List&lt;Coordinate&gt;" style="shape=partialRectangle;connectable=0;fillColor=none;top=0;left=0;bottom=0;right=0;align=left;spacingLeft=6;overflow=hidden;fontFamily=Helvetica;fontStyle=1" parent="0rB0F-Ur0wucUoMe_7N4-429" vertex="1"><mxGeometry x="200" width="140" height="30" as="geometry"><mxRectangle width="140" height="30" as="alternateBounds"/></mxGeometry></mxCell><mxCell id="0rB0F-Ur0wucUoMe_7N4-433" value="readers" style="shape=table;startSize=30;container=1;collapsible=1;childLayout=tableLayout;fixedRows=1;rowLines=0;fontStyle=1;align=center;resizeLast=1;rounded=0;sketch=0;shadow=0;swimlaneFillColor=#ffffff;fontFamily=Helvetica;perimeterSpacing=0;strokeColor=#3399FF;fillColor=#99CCFF;" parent="1" vertex="1"><mxGeometry x="-570" y="620" width="180" height="180" as="geometry"><mxRectangle x="-590" y="80" width="60" height="30" as="alternateBounds"/></mxGeometry></mxCell><mxCell id="0rB0F-Ur0wucUoMe_7N4-434" value="" style="shape=partialRectangle;collapsible=0;dropTarget=0;pointerEvents=0;fillColor=none;top=0;left=0;bottom=0;right=0;points=[[0,0.5],[1,0.5]];portConstraint=eastwest;fontFamily=Helvetica;" parent="0rB0F-Ur0wucUoMe_7N4-433" vertex="1"><mxGeometry y="30" width="180" height="30" as="geometry"/></mxCell><mxCell id="0rB0F-Ur0wucUoMe_7N4-435" value="PK" style="shape=partialRectangle;connectable=0;fillColor=none;top=0;left=0;bottom=0;right=0;editable=1;overflow=hidden;fontFamily=Helvetica;fontStyle=1" parent="0rB0F-Ur0wucUoMe_7N4-434" vertex="1"><mxGeometry width="30" height="30" as="geometry"><mxRectangle width="30" height="30" as="alternateBounds"/></mxGeometry></mxCell><mxCell id="0rB0F-Ur0wucUoMe_7N4-436" value="id" style="shape=partialRectangle;connectable=0;fillColor=none;top=0;left=0;bottom=0;right=0;align=left;spacingLeft=6;overflow=hidden;fontColor=#3399FF;fontFamily=Helvetica;fontStyle=1" parent="0rB0F-Ur0wucUoMe_7N4-434" vertex="1"><mxGeometry x="30" width="90" height="30" as="geometry"><mxRectangle width="90" height="30" as="alternateBounds"/></mxGeometry></mxCell><mxCell id="0rB0F-Ur0wucUoMe_7N4-437" value="String" style="shape=partialRectangle;connectable=0;fillColor=none;top=0;left=0;bottom=0;right=0;align=left;spacingLeft=6;overflow=hidden;fontFamily=Helvetica;fontStyle=1" parent="0rB0F-Ur0wucUoMe_7N4-434" vertex="1"><mxGeometry x="120" width="60" height="30" as="geometry"><mxRectangle width="60" height="30" as="alternateBounds"/></mxGeometry></mxCell><mxCell id="0rB0F-Ur0wucUoMe_7N4-470" style="shape=partialRectangle;collapsible=0;dropTarget=0;pointerEvents=0;fillColor=none;top=0;left=0;bottom=0;right=0;points=[[0,0.5],[1,0.5]];portConstraint=eastwest;fontFamily=Helvetica;" parent="0rB0F-Ur0wucUoMe_7N4-433" vertex="1"><mxGeometry y="60" width="180" height="30" as="geometry"/></mxCell><mxCell id="0rB0F-Ur0wucUoMe_7N4-471" value="" style="shape=partialRectangle;connectable=0;fillColor=none;top=0;left=0;bottom=0;right=0;editable=1;overflow=hidden;fontFamily=Helvetica;fontStyle=1" parent="0rB0F-Ur0wucUoMe_7N4-470" vertex="1"><mxGeometry width="30" height="30" as="geometry"><mxRectangle width="30" height="30" as="alternateBounds"/></mxGeometry></mxCell><mxCell id="0rB0F-Ur0wucUoMe_7N4-472" value="uuid" style="shape=partialRectangle;connectable=0;fillColor=none;top=0;left=0;bottom=0;right=0;align=left;spacingLeft=6;overflow=hidden;fontFamily=Helvetica;fontStyle=1;fontColor=#3399FF;" parent="0rB0F-Ur0wucUoMe_7N4-470" vertex="1"><mxGeometry x="30" width="90" height="30" as="geometry"><mxRectangle width="90" height="30" as="alternateBounds"/></mxGeometry></mxCell><mxCell id="0rB0F-Ur0wucUoMe_7N4-473" value="String" style="shape=partialRectangle;connectable=0;fillColor=none;top=0;left=0;bottom=0;right=0;align=left;spacingLeft=6;overflow=hidden;fontFamily=Helvetica;fontStyle=1" parent="0rB0F-Ur0wucUoMe_7N4-470" vertex="1"><mxGeometry x="120" width="60" height="30" as="geometry"><mxRectangle width="60" height="30" as="alternateBounds"/></mxGeometry></mxCell><mxCell id="0rB0F-Ur0wucUoMe_7N4-438" value="" style="shape=partialRectangle;collapsible=0;dropTarget=0;pointerEvents=0;fillColor=none;top=0;left=0;bottom=0;right=0;points=[[0,0.5],[1,0.5]];portConstraint=eastwest;sketch=0;strokeWidth=1;fontFamily=Helvetica;" parent="0rB0F-Ur0wucUoMe_7N4-433" vertex="1"><mxGeometry y="90" width="180" height="30" as="geometry"/></mxCell><mxCell id="0rB0F-Ur0wucUoMe_7N4-439" value="" style="shape=partialRectangle;connectable=0;fillColor=none;top=0;left=0;bottom=0;right=0;editable=1;overflow=hidden;fontFamily=Helvetica;fontStyle=1" parent="0rB0F-Ur0wucUoMe_7N4-438" vertex="1"><mxGeometry width="30" height="30" as="geometry"><mxRectangle width="30" height="30" as="alternateBounds"/></mxGeometry></mxCell><mxCell id="0rB0F-Ur0wucUoMe_7N4-440" value="latitude" style="shape=partialRectangle;connectable=0;fillColor=none;top=0;left=0;bottom=0;right=0;align=left;spacingLeft=6;overflow=hidden;fontColor=#3399FF;fontFamily=Helvetica;fontStyle=1" parent="0rB0F-Ur0wucUoMe_7N4-438" vertex="1"><mxGeometry x="30" width="90" height="30" as="geometry"><mxRectangle width="90" height="30" as="alternateBounds"/></mxGeometry></mxCell><mxCell id="0rB0F-Ur0wucUoMe_7N4-441" value="double" style="shape=partialRectangle;connectable=0;fillColor=none;top=0;left=0;bottom=0;right=0;align=left;spacingLeft=6;overflow=hidden;fontFamily=Helvetica;fontStyle=1" parent="0rB0F-Ur0wucUoMe_7N4-438" vertex="1"><mxGeometry x="120" width="60" height="30" as="geometry"><mxRectangle width="60" height="30" as="alternateBounds"/></mxGeometry></mxCell><mxCell id="0rB0F-Ur0wucUoMe_7N4-442" style="shape=partialRectangle;collapsible=0;dropTarget=0;pointerEvents=0;fillColor=none;top=0;left=0;bottom=0;right=0;points=[[0,0.5],[1,0.5]];portConstraint=eastwest;sketch=0;strokeWidth=1;fontFamily=Helvetica;" parent="0rB0F-Ur0wucUoMe_7N4-433" vertex="1"><mxGeometry y="120" width="180" height="30" as="geometry"/></mxCell><mxCell id="0rB0F-Ur0wucUoMe_7N4-443" value="" style="shape=partialRectangle;connectable=0;fillColor=none;top=0;left=0;bottom=0;right=0;editable=1;overflow=hidden;fontFamily=Helvetica;fontStyle=1" parent="0rB0F-Ur0wucUoMe_7N4-442" vertex="1"><mxGeometry width="30" height="30" as="geometry"><mxRectangle width="30" height="30" as="alternateBounds"/></mxGeometry></mxCell><mxCell id="0rB0F-Ur0wucUoMe_7N4-444" value="longitude" style="shape=partialRectangle;connectable=0;fillColor=none;top=0;left=0;bottom=0;right=0;align=left;spacingLeft=6;overflow=hidden;fontColor=#3399FF;fontFamily=Helvetica;fontStyle=1" parent="0rB0F-Ur0wucUoMe_7N4-442" vertex="1"><mxGeometry x="30" width="90" height="30" as="geometry"><mxRectangle width="90" height="30" as="alternateBounds"/></mxGeometry></mxCell><mxCell id="0rB0F-Ur0wucUoMe_7N4-445" value="double" style="shape=partialRectangle;connectable=0;fillColor=none;top=0;left=0;bottom=0;right=0;align=left;spacingLeft=6;overflow=hidden;fontFamily=Helvetica;fontStyle=1" parent="0rB0F-Ur0wucUoMe_7N4-442" vertex="1"><mxGeometry x="120" width="60" height="30" as="geometry"><mxRectangle width="60" height="30" as="alternateBounds"/></mxGeometry></mxCell><mxCell id="0rB0F-Ur0wucUoMe_7N4-446" value="" style="shape=partialRectangle;collapsible=0;dropTarget=0;pointerEvents=0;fillColor=none;top=0;left=0;bottom=0;right=0;points=[[0,0.5],[1,0.5]];portConstraint=eastwest;fontFamily=Helvetica;" parent="0rB0F-Ur0wucUoMe_7N4-433" vertex="1"><mxGeometry y="150" width="180" height="30" as="geometry"/></mxCell><mxCell id="0rB0F-Ur0wucUoMe_7N4-447" value="FK" style="shape=partialRectangle;connectable=0;fillColor=none;top=0;left=0;bottom=0;right=0;editable=1;overflow=hidden;fontFamily=Helvetica;fontStyle=1" parent="0rB0F-Ur0wucUoMe_7N4-446" vertex="1"><mxGeometry width="30" height="30" as="geometry"><mxRectangle width="30" height="30" as="alternateBounds"/></mxGeometry></mxCell><mxCell id="0rB0F-Ur0wucUoMe_7N4-448" value="levelId" style="shape=partialRectangle;connectable=0;fillColor=none;top=0;left=0;bottom=0;right=0;align=left;spacingLeft=6;overflow=hidden;fontColor=#3399FF;fontFamily=Helvetica;fontStyle=1" parent="0rB0F-Ur0wucUoMe_7N4-446" vertex="1"><mxGeometry x="30" width="90" height="30" as="geometry"><mxRectangle width="90" height="30" as="alternateBounds"/></mxGeometry></mxCell><mxCell id="0rB0F-Ur0wucUoMe_7N4-449" value="String" style="shape=partialRectangle;connectable=0;fillColor=none;top=0;left=0;bottom=0;right=0;align=left;spacingLeft=6;overflow=hidden;fontFamily=Helvetica;fontStyle=1;flipV=1;flipH=1;" parent="0rB0F-Ur0wucUoMe_7N4-446" vertex="1"><mxGeometry x="120" width="60" height="30" as="geometry"><mxRectangle width="60" height="30" as="alternateBounds"/></mxGeometry></mxCell><mxCell id="0rB0F-Ur0wucUoMe_7N4-537" value="users" style="shape=table;startSize=30;container=1;collapsible=1;childLayout=tableLayout;fixedRows=1;rowLines=0;fontStyle=1;align=center;resizeLast=1;rounded=0;sketch=0;shadow=0;swimlaneFillColor=#ffffff;fontFamily=Helvetica;perimeterSpacing=0;strokeColor=#3399FF;fillColor=#99CCFF;" parent="1" vertex="1"><mxGeometry x="890" y="355" width="300" height="410" as="geometry"><mxRectangle x="1410" y="-130" width="60" height="30" as="alternateBounds"/></mxGeometry></mxCell><mxCell id="0rB0F-Ur0wucUoMe_7N4-538" value="" style="shape=partialRectangle;collapsible=0;dropTarget=0;pointerEvents=0;fillColor=none;top=0;left=0;bottom=0;right=0;points=[[0,0.5],[1,0.5]];portConstraint=eastwest;fontFamily=Helvetica;" parent="0rB0F-Ur0wucUoMe_7N4-537" vertex="1"><mxGeometry y="30" width="300" height="30" as="geometry"/></mxCell><mxCell id="0rB0F-Ur0wucUoMe_7N4-539" value="PK" style="shape=partialRectangle;connectable=0;fillColor=none;top=0;left=0;bottom=0;right=0;editable=1;overflow=hidden;fontFamily=Helvetica;fontStyle=1" parent="0rB0F-Ur0wucUoMe_7N4-538" vertex="1"><mxGeometry width="30" height="30" as="geometry"><mxRectangle width="30" height="30" as="alternateBounds"/></mxGeometry></mxCell><mxCell id="0rB0F-Ur0wucUoMe_7N4-540" value="id" style="shape=partialRectangle;connectable=0;fillColor=none;top=0;left=0;bottom=0;right=0;align=left;spacingLeft=6;overflow=hidden;fontColor=#3399FF;fontFamily=Helvetica;fontStyle=1" parent="0rB0F-Ur0wucUoMe_7N4-538" vertex="1"><mxGeometry x="30" width="150" height="30" as="geometry"><mxRectangle width="150" height="30" as="alternateBounds"/></mxGeometry></mxCell><mxCell id="0rB0F-Ur0wucUoMe_7N4-541" value="String" style="shape=partialRectangle;connectable=0;fillColor=none;top=0;left=0;bottom=0;right=0;align=left;spacingLeft=6;overflow=hidden;fontFamily=Helvetica;fontStyle=1" parent="0rB0F-Ur0wucUoMe_7N4-538" vertex="1"><mxGeometry x="180" width="120" height="30" as="geometry"><mxRectangle width="120" height="30" as="alternateBounds"/></mxGeometry></mxCell><mxCell id="0rB0F-Ur0wucUoMe_7N4-542" value="" style="shape=partialRectangle;collapsible=0;dropTarget=0;pointerEvents=0;fillColor=none;top=0;left=0;bottom=0;right=0;points=[[0,0.5],[1,0.5]];portConstraint=eastwest;sketch=0;strokeWidth=1;fontFamily=Helvetica;" parent="0rB0F-Ur0wucUoMe_7N4-537" vertex="1"><mxGeometry y="60" width="300" height="30" as="geometry"/></mxCell><mxCell id="0rB0F-Ur0wucUoMe_7N4-543" value="" style="shape=partialRectangle;connectable=0;fillColor=none;top=0;left=0;bottom=0;right=0;editable=1;overflow=hidden;fontFamily=Helvetica;fontStyle=1" parent="0rB0F-Ur0wucUoMe_7N4-542" vertex="1"><mxGeometry width="30" height="30" as="geometry"><mxRectangle width="30" height="30" as="alternateBounds"/></mxGeometry></mxCell><mxCell id="0rB0F-Ur0wucUoMe_7N4-544" value="login" style="shape=partialRectangle;connectable=0;fillColor=none;top=0;left=0;bottom=0;right=0;align=left;spacingLeft=6;overflow=hidden;fontColor=#3399FF;fontFamily=Helvetica;fontStyle=1" parent="0rB0F-Ur0wucUoMe_7N4-542" vertex="1"><mxGeometry x="30" width="150" height="30" as="geometry"><mxRectangle width="150" height="30" as="alternateBounds"/></mxGeometry></mxCell><mxCell id="0rB0F-Ur0wucUoMe_7N4-545" value="String" style="shape=partialRectangle;connectable=0;fillColor=none;top=0;left=0;bottom=0;right=0;align=left;spacingLeft=6;overflow=hidden;fontFamily=Helvetica;fontStyle=1" parent="0rB0F-Ur0wucUoMe_7N4-542" vertex="1"><mxGeometry x="180" width="120" height="30" as="geometry"><mxRectangle width="120" height="30" as="alternateBounds"/></mxGeometry></mxCell><mxCell id="XEkfb_qRTGP3oeACjC1f-9" value="" style="shape=partialRectangle;collapsible=0;dropTarget=0;pointerEvents=0;fillColor=none;top=0;left=0;bottom=0;right=0;points=[[0,0.5],[1,0.5]];portConstraint=eastwest;fontFamily=Helvetica;" parent="0rB0F-Ur0wucUoMe_7N4-537" vertex="1"><mxGeometry y="90" width="300" height="30" as="geometry"/></mxCell><mxCell id="XEkfb_qRTGP3oeACjC1f-10" value="" style="shape=partialRectangle;connectable=0;fillColor=none;top=0;left=0;bottom=0;right=0;editable=1;overflow=hidden;fontFamily=Helvetica;fontStyle=1" parent="XEkfb_qRTGP3oeACjC1f-9" vertex="1"><mxGeometry width="30" height="30" as="geometry"><mxRectangle width="30" height="30" as="alternateBounds"/></mxGeometry></mxCell><mxCell id="XEkfb_qRTGP3oeACjC1f-11" value="passHash" style="shape=partialRectangle;connectable=0;fillColor=none;top=0;left=0;bottom=0;right=0;align=left;spacingLeft=6;overflow=hidden;fontColor=#3399FF;fontFamily=Helvetica;fontStyle=1" parent="XEkfb_qRTGP3oeACjC1f-9" vertex="1"><mxGeometry x="30" width="150" height="30" as="geometry"><mxRectangle width="150" height="30" as="alternateBounds"/></mxGeometry></mxCell><mxCell id="XEkfb_qRTGP3oeACjC1f-12" value="String" style="shape=partialRectangle;connectable=0;fillColor=none;top=0;left=0;bottom=0;right=0;align=left;spacingLeft=6;overflow=hidden;fontFamily=Helvetica;fontStyle=1;flipV=1;flipH=1;" parent="XEkfb_qRTGP3oeACjC1f-9" vertex="1"><mxGeometry x="180" width="120" height="30" as="geometry"><mxRectangle width="120" height="30" as="alternateBounds"/></mxGeometry></mxCell><mxCell id="0rB0F-Ur0wucUoMe_7N4-582" style="shape=partialRectangle;collapsible=0;dropTarget=0;pointerEvents=0;fillColor=none;top=0;left=0;bottom=0;right=0;points=[[0,0.5],[1,0.5]];portConstraint=eastwest;fontFamily=Helvetica;" parent="0rB0F-Ur0wucUoMe_7N4-537" vertex="1"><mxGeometry y="120" width="300" height="30" as="geometry"/></mxCell><mxCell id="0rB0F-Ur0wucUoMe_7N4-583" style="shape=partialRectangle;connectable=0;fillColor=none;top=0;left=0;bottom=0;right=0;editable=1;overflow=hidden;fontFamily=Helvetica;fontStyle=1" parent="0rB0F-Ur0wucUoMe_7N4-582" vertex="1"><mxGeometry width="30" height="30" as="geometry"><mxRectangle width="30" height="30" as="alternateBounds"/></mxGeometry></mxCell><mxCell id="0rB0F-Ur0wucUoMe_7N4-584" value="email" style="shape=partialRectangle;connectable=0;fillColor=none;top=0;left=0;bottom=0;right=0;align=left;spacingLeft=6;overflow=hidden;fontColor=#3399FF;fontFamily=Helvetica;fontStyle=1" parent="0rB0F-Ur0wucUoMe_7N4-582" vertex="1"><mxGeometry x="30" width="150" height="30" as="geometry"><mxRectangle width="150" height="30" as="alternateBounds"/></mxGeometry></mxCell><mxCell id="0rB0F-Ur0wucUoMe_7N4-585" value="String" style="shape=partialRectangle;connectable=0;fillColor=none;top=0;left=0;bottom=0;right=0;align=left;spacingLeft=6;overflow=hidden;fontFamily=Helvetica;fontStyle=1;flipV=1;flipH=1;" parent="0rB0F-Ur0wucUoMe_7N4-582" vertex="1"><mxGeometry x="180" width="120" height="30" as="geometry"><mxRectangle width="120" height="30" as="alternateBounds"/></mxGeometry></mxCell><mxCell id="0rB0F-Ur0wucUoMe_7N4-574" style="shape=partialRectangle;collapsible=0;dropTarget=0;pointerEvents=0;fillColor=none;top=0;left=0;bottom=0;right=0;points=[[0,0.5],[1,0.5]];portConstraint=eastwest;fontFamily=Helvetica;" parent="0rB0F-Ur0wucUoMe_7N4-537" vertex="1"><mxGeometry y="150" width="300" height="30" as="geometry"/></mxCell><mxCell id="0rB0F-Ur0wucUoMe_7N4-575" style="shape=partialRectangle;connectable=0;fillColor=none;top=0;left=0;bottom=0;right=0;editable=1;overflow=hidden;fontFamily=Helvetica;fontStyle=1" parent="0rB0F-Ur0wucUoMe_7N4-574" vertex="1"><mxGeometry width="30" height="30" as="geometry"><mxRectangle width="30" height="30" as="alternateBounds"/></mxGeometry></mxCell><mxCell id="0rB0F-Ur0wucUoMe_7N4-576" value="name" style="shape=partialRectangle;connectable=0;fillColor=none;top=0;left=0;bottom=0;right=0;align=left;spacingLeft=6;overflow=hidden;fontColor=#3399FF;fontFamily=Helvetica;fontStyle=1" parent="0rB0F-Ur0wucUoMe_7N4-574" vertex="1"><mxGeometry x="30" width="150" height="30" as="geometry"><mxRectangle width="150" height="30" as="alternateBounds"/></mxGeometry></mxCell><mxCell id="0rB0F-Ur0wucUoMe_7N4-577" value="String" style="shape=partialRectangle;connectable=0;fillColor=none;top=0;left=0;bottom=0;right=0;align=left;spacingLeft=6;overflow=hidden;fontFamily=Helvetica;fontStyle=1;flipV=1;flipH=1;" parent="0rB0F-Ur0wucUoMe_7N4-574" vertex="1"><mxGeometry x="180" width="120" height="30" as="geometry"><mxRectangle width="120" height="30" as="alternateBounds"/></mxGeometry></mxCell><mxCell id="0rB0F-Ur0wucUoMe_7N4-570" style="shape=partialRectangle;collapsible=0;dropTarget=0;pointerEvents=0;fillColor=none;top=0;left=0;bottom=0;right=0;points=[[0,0.5],[1,0.5]];portConstraint=eastwest;fontFamily=Helvetica;" parent="0rB0F-Ur0wucUoMe_7N4-537" vertex="1"><mxGeometry y="180" width="300" height="30" as="geometry"/></mxCell><mxCell id="0rB0F-Ur0wucUoMe_7N4-571" style="shape=partialRectangle;connectable=0;fillColor=none;top=0;left=0;bottom=0;right=0;editable=1;overflow=hidden;fontFamily=Helvetica;fontStyle=1" parent="0rB0F-Ur0wucUoMe_7N4-570" vertex="1"><mxGeometry width="30" height="30" as="geometry"><mxRectangle width="30" height="30" as="alternateBounds"/></mxGeometry></mxCell><mxCell id="0rB0F-Ur0wucUoMe_7N4-572" value="locale" style="shape=partialRectangle;connectable=0;fillColor=none;top=0;left=0;bottom=0;right=0;align=left;spacingLeft=6;overflow=hidden;fontColor=#3399FF;fontFamily=Helvetica;fontStyle=1" parent="0rB0F-Ur0wucUoMe_7N4-570" vertex="1"><mxGeometry x="30" width="150" height="30" as="geometry"><mxRectangle width="150" height="30" as="alternateBounds"/></mxGeometry></mxCell><mxCell id="0rB0F-Ur0wucUoMe_7N4-573" value="String" style="shape=partialRectangle;connectable=0;fillColor=none;top=0;left=0;bottom=0;right=0;align=left;spacingLeft=6;overflow=hidden;fontFamily=Helvetica;fontStyle=1;flipV=1;flipH=1;" parent="0rB0F-Ur0wucUoMe_7N4-570" vertex="1"><mxGeometry x="180" width="120" height="30" as="geometry"><mxRectangle width="120" height="30" as="alternateBounds"/></mxGeometry></mxCell><mxCell id="0rB0F-Ur0wucUoMe_7N4-566" style="shape=partialRectangle;collapsible=0;dropTarget=0;pointerEvents=0;fillColor=none;top=0;left=0;bottom=0;right=0;points=[[0,0.5],[1,0.5]];portConstraint=eastwest;fontFamily=Helvetica;" parent="0rB0F-Ur0wucUoMe_7N4-537" vertex="1"><mxGeometry y="210" width="300" height="30" as="geometry"/></mxCell><mxCell id="0rB0F-Ur0wucUoMe_7N4-567" style="shape=partialRectangle;connectable=0;fillColor=none;top=0;left=0;bottom=0;right=0;editable=1;overflow=hidden;fontFamily=Helvetica;fontStyle=1" parent="0rB0F-Ur0wucUoMe_7N4-566" vertex="1"><mxGeometry width="30" height="30" as="geometry"><mxRectangle width="30" height="30" as="alternateBounds"/></mxGeometry></mxCell><mxCell id="0rB0F-Ur0wucUoMe_7N4-568" value="lastEntryDate" style="shape=partialRectangle;connectable=0;fillColor=none;top=0;left=0;bottom=0;right=0;align=left;spacingLeft=6;overflow=hidden;fontColor=#3399FF;fontFamily=Helvetica;fontStyle=1" parent="0rB0F-Ur0wucUoMe_7N4-566" vertex="1"><mxGeometry x="30" width="150" height="30" as="geometry"><mxRectangle width="150" height="30" as="alternateBounds"/></mxGeometry></mxCell><mxCell id="0rB0F-Ur0wucUoMe_7N4-569" value="LocalDateTime" style="shape=partialRectangle;connectable=0;fillColor=none;top=0;left=0;bottom=0;right=0;align=left;spacingLeft=6;overflow=hidden;fontFamily=Helvetica;fontStyle=1;flipV=1;flipH=1;" parent="0rB0F-Ur0wucUoMe_7N4-566" vertex="1"><mxGeometry x="180" width="120" height="30" as="geometry"><mxRectangle width="120" height="30" as="alternateBounds"/></mxGeometry></mxCell><mxCell id="0rB0F-Ur0wucUoMe_7N4-558" style="shape=partialRectangle;collapsible=0;dropTarget=0;pointerEvents=0;fillColor=none;top=0;left=0;bottom=0;right=0;points=[[0,0.5],[1,0.5]];portConstraint=eastwest;fontFamily=Helvetica;" parent="0rB0F-Ur0wucUoMe_7N4-537" vertex="1"><mxGeometry y="240" width="300" height="30" as="geometry"/></mxCell><mxCell id="0rB0F-Ur0wucUoMe_7N4-559" style="shape=partialRectangle;connectable=0;fillColor=none;top=0;left=0;bottom=0;right=0;editable=1;overflow=hidden;fontFamily=Helvetica;fontStyle=1" parent="0rB0F-Ur0wucUoMe_7N4-558" vertex="1"><mxGeometry width="30" height="30" as="geometry"><mxRectangle width="30" height="30" as="alternateBounds"/></mxGeometry></mxCell><mxCell id="0rB0F-Ur0wucUoMe_7N4-560" value="role" style="shape=partialRectangle;connectable=0;fillColor=none;top=0;left=0;bottom=0;right=0;align=left;spacingLeft=6;overflow=hidden;fontColor=#3399FF;fontFamily=Helvetica;fontStyle=1" parent="0rB0F-Ur0wucUoMe_7N4-558" vertex="1"><mxGeometry x="30" width="150" height="30" as="geometry"><mxRectangle width="150" height="30" as="alternateBounds"/></mxGeometry></mxCell><mxCell id="0rB0F-Ur0wucUoMe_7N4-561" value="RoleName" style="shape=partialRectangle;connectable=0;fillColor=none;top=0;left=0;bottom=0;right=0;align=left;spacingLeft=6;overflow=hidden;fontFamily=Helvetica;fontStyle=1;flipV=1;flipH=1;" parent="0rB0F-Ur0wucUoMe_7N4-558" vertex="1"><mxGeometry x="180" width="120" height="30" as="geometry"><mxRectangle width="120" height="30" as="alternateBounds"/></mxGeometry></mxCell><mxCell id="0rB0F-Ur0wucUoMe_7N4-550" style="shape=partialRectangle;collapsible=0;dropTarget=0;pointerEvents=0;fillColor=none;top=0;left=0;bottom=0;right=0;points=[[0,0.5],[1,0.5]];portConstraint=eastwest;fontFamily=Helvetica;" parent="0rB0F-Ur0wucUoMe_7N4-537" vertex="1"><mxGeometry y="270" width="300" height="30" as="geometry"/></mxCell><mxCell id="0rB0F-Ur0wucUoMe_7N4-551" style="shape=partialRectangle;connectable=0;fillColor=none;top=0;left=0;bottom=0;right=0;editable=1;overflow=hidden;fontFamily=Helvetica;fontStyle=1" parent="0rB0F-Ur0wucUoMe_7N4-550" vertex="1"><mxGeometry width="30" height="30" as="geometry"><mxRectangle width="30" height="30" as="alternateBounds"/></mxGeometry></mxCell><mxCell id="0rB0F-Ur0wucUoMe_7N4-552" value="status" style="shape=partialRectangle;connectable=0;fillColor=none;top=0;left=0;bottom=0;right=0;align=left;spacingLeft=6;overflow=hidden;fontColor=#3399FF;fontFamily=Helvetica;fontStyle=1" parent="0rB0F-Ur0wucUoMe_7N4-550" vertex="1"><mxGeometry x="30" width="150" height="30" as="geometry"><mxRectangle width="150" height="30" as="alternateBounds"/></mxGeometry></mxCell><mxCell id="0rB0F-Ur0wucUoMe_7N4-553" value="UserStatus" style="shape=partialRectangle;connectable=0;fillColor=none;top=0;left=0;bottom=0;right=0;align=left;spacingLeft=6;overflow=hidden;fontFamily=Helvetica;fontStyle=1;flipV=1;flipH=1;" parent="0rB0F-Ur0wucUoMe_7N4-550" vertex="1"><mxGeometry x="180" width="120" height="30" as="geometry"><mxRectangle width="120" height="30" as="alternateBounds"/></mxGeometry></mxCell><mxCell id="0rB0F-Ur0wucUoMe_7N4-586" style="shape=partialRectangle;collapsible=0;dropTarget=0;pointerEvents=0;fillColor=none;top=0;left=0;bottom=0;right=0;points=[[0,0.5],[1,0.5]];portConstraint=eastwest;fontFamily=Helvetica;" parent="0rB0F-Ur0wucUoMe_7N4-537" vertex="1"><mxGeometry y="300" width="300" height="30" as="geometry"/></mxCell><mxCell id="0rB0F-Ur0wucUoMe_7N4-587" style="shape=partialRectangle;connectable=0;fillColor=none;top=0;left=0;bottom=0;right=0;editable=1;overflow=hidden;fontFamily=Helvetica;fontStyle=1" parent="0rB0F-Ur0wucUoMe_7N4-586" vertex="1"><mxGeometry width="30" height="30" as="geometry"><mxRectangle width="30" height="30" as="alternateBounds"/></mxGeometry></mxCell><mxCell id="0rB0F-Ur0wucUoMe_7N4-588" value="avatarAsByteArray" style="shape=partialRectangle;connectable=0;fillColor=none;top=0;left=0;bottom=0;right=0;align=left;spacingLeft=6;overflow=hidden;fontColor=#3399FF;fontFamily=Helvetica;fontStyle=1" parent="0rB0F-Ur0wucUoMe_7N4-586" vertex="1"><mxGeometry x="30" width="150" height="30" as="geometry"><mxRectangle width="150" height="30" as="alternateBounds"/></mxGeometry></mxCell><mxCell id="0rB0F-Ur0wucUoMe_7N4-589" value="byte[]" style="shape=partialRectangle;connectable=0;fillColor=none;top=0;left=0;bottom=0;right=0;align=left;spacingLeft=6;overflow=hidden;fontFamily=Helvetica;fontStyle=1;flipV=1;flipH=1;" parent="0rB0F-Ur0wucUoMe_7N4-586" vertex="1"><mxGeometry x="180" width="120" height="30" as="geometry"><mxRectangle width="120" height="30" as="alternateBounds"/></mxGeometry></mxCell><mxCell id="0rB0F-Ur0wucUoMe_7N4-590" style="shape=partialRectangle;collapsible=0;dropTarget=0;pointerEvents=0;fillColor=none;top=0;left=0;bottom=0;right=0;points=[[0,0.5],[1,0.5]];portConstraint=eastwest;fontFamily=Helvetica;" parent="0rB0F-Ur0wucUoMe_7N4-537" vertex="1"><mxGeometry y="330" width="300" height="30" as="geometry"/></mxCell><mxCell id="0rB0F-Ur0wucUoMe_7N4-591" style="shape=partialRectangle;connectable=0;fillColor=none;top=0;left=0;bottom=0;right=0;editable=1;overflow=hidden;fontFamily=Helvetica;fontStyle=1" parent="0rB0F-Ur0wucUoMe_7N4-590" vertex="1"><mxGeometry width="30" height="30" as="geometry"><mxRectangle width="30" height="30" as="alternateBounds"/></mxGeometry></mxCell><mxCell id="0rB0F-Ur0wucUoMe_7N4-592" value="mimeType" style="shape=partialRectangle;connectable=0;fillColor=none;top=0;left=0;bottom=0;right=0;align=left;spacingLeft=6;overflow=hidden;fontColor=#3399FF;fontFamily=Helvetica;fontStyle=1" parent="0rB0F-Ur0wucUoMe_7N4-590" vertex="1"><mxGeometry x="30" width="150" height="30" as="geometry"><mxRectangle width="150" height="30" as="alternateBounds"/></mxGeometry></mxCell><mxCell id="0rB0F-Ur0wucUoMe_7N4-593" value="String" style="shape=partialRectangle;connectable=0;fillColor=none;top=0;left=0;bottom=0;right=0;align=left;spacingLeft=6;overflow=hidden;fontFamily=Helvetica;fontStyle=1;flipV=1;flipH=1;" parent="0rB0F-Ur0wucUoMe_7N4-590" vertex="1"><mxGeometry x="180" width="120" height="30" as="geometry"><mxRectangle width="120" height="30" as="alternateBounds"/></mxGeometry></mxCell><mxCell id="0rB0F-Ur0wucUoMe_7N4-562" style="shape=partialRectangle;collapsible=0;dropTarget=0;pointerEvents=0;fillColor=none;top=0;left=0;bottom=0;right=0;points=[[0,0.5],[1,0.5]];portConstraint=eastwest;fontFamily=Helvetica;" parent="0rB0F-Ur0wucUoMe_7N4-537" vertex="1"><mxGeometry y="360" width="300" height="35" as="geometry"/></mxCell><mxCell id="0rB0F-Ur0wucUoMe_7N4-563" value="" style="shape=partialRectangle;connectable=0;fillColor=none;top=0;left=0;bottom=0;right=0;editable=1;overflow=hidden;fontFamily=Helvetica;fontStyle=1" parent="0rB0F-Ur0wucUoMe_7N4-562" vertex="1"><mxGeometry width="30" height="35" as="geometry"><mxRectangle width="30" height="35" as="alternateBounds"/></mxGeometry></mxCell><mxCell id="0rB0F-Ur0wucUoMe_7N4-564" value="" style="shape=partialRectangle;connectable=0;fillColor=none;top=0;left=0;bottom=0;right=0;align=left;spacingLeft=6;overflow=hidden;fontColor=#3399FF;fontFamily=Helvetica;fontStyle=1" parent="0rB0F-Ur0wucUoMe_7N4-562" vertex="1"><mxGeometry x="30" width="150" height="35" as="geometry"><mxRectangle width="150" height="35" as="alternateBounds"/></mxGeometry></mxCell><mxCell id="0rB0F-Ur0wucUoMe_7N4-565" value="" style="shape=partialRectangle;connectable=0;fillColor=none;top=0;left=0;bottom=0;right=0;align=left;spacingLeft=6;overflow=hidden;fontFamily=Helvetica;fontStyle=1;flipV=1;flipH=1;" parent="0rB0F-Ur0wucUoMe_7N4-562" vertex="1"><mxGeometry x="180" width="120" height="35" as="geometry"><mxRectangle width="120" height="35" as="alternateBounds"/></mxGeometry></mxCell><mxCell id="0rB0F-Ur0wucUoMe_7N4-546" value="" style="shape=partialRectangle;collapsible=0;dropTarget=0;pointerEvents=0;fillColor=none;top=0;left=0;bottom=0;right=0;points=[[0,0.5],[1,0.5]];portConstraint=eastwest;fontFamily=Helvetica;" parent="0rB0F-Ur0wucUoMe_7N4-537" vertex="1"><mxGeometry y="395" width="300" height="15" as="geometry"/></mxCell><mxCell id="0rB0F-Ur0wucUoMe_7N4-547" value="" style="shape=partialRectangle;connectable=0;fillColor=none;top=0;left=0;bottom=0;right=0;editable=1;overflow=hidden;fontFamily=Helvetica;fontStyle=1" parent="0rB0F-Ur0wucUoMe_7N4-546" vertex="1"><mxGeometry width="30" height="15" as="geometry"><mxRectangle width="30" height="15" as="alternateBounds"/></mxGeometry></mxCell><mxCell id="0rB0F-Ur0wucUoMe_7N4-548" value="" style="shape=partialRectangle;connectable=0;fillColor=none;top=0;left=0;bottom=0;right=0;align=left;spacingLeft=6;overflow=hidden;fontColor=#3399FF;fontFamily=Helvetica;fontStyle=1" parent="0rB0F-Ur0wucUoMe_7N4-546" vertex="1"><mxGeometry x="30" width="150" height="15" as="geometry"><mxRectangle width="150" height="15" as="alternateBounds"/></mxGeometry></mxCell><mxCell id="0rB0F-Ur0wucUoMe_7N4-549" value="" style="shape=partialRectangle;connectable=0;fillColor=none;top=0;left=0;bottom=0;right=0;align=left;spacingLeft=6;overflow=hidden;fontFamily=Helvetica;fontStyle=1;flipV=1;flipH=1;" parent="0rB0F-Ur0wucUoMe_7N4-546" vertex="1"><mxGeometry x="180" width="120" height="15" as="geometry"><mxRectangle width="120" height="15" as="alternateBounds"/></mxGeometry></mxCell><mxCell id="0rB0F-Ur0wucUoMe_7N4-594" value="graphs" style="shape=table;startSize=30;container=1;collapsible=1;childLayout=tableLayout;fixedRows=1;rowLines=0;fontStyle=1;align=center;resizeLast=1;rounded=0;sketch=0;shadow=0;swimlaneFillColor=#ffffff;fontFamily=Helvetica;perimeterSpacing=0;strokeColor=#3399FF;fillColor=#99CCFF;" parent="1" vertex="1"><mxGeometry x="-125" y="900" width="250" height="150" as="geometry"><mxRectangle x="-125" y="1040" width="60" height="30" as="alternateBounds"/></mxGeometry></mxCell><mxCell id="0rB0F-Ur0wucUoMe_7N4-595" value="" style="shape=partialRectangle;collapsible=0;dropTarget=0;pointerEvents=0;fillColor=none;top=0;left=0;bottom=0;right=0;points=[[0,0.5],[1,0.5]];portConstraint=eastwest;fontFamily=Helvetica;" parent="0rB0F-Ur0wucUoMe_7N4-594" vertex="1"><mxGeometry y="30" width="250" height="30" as="geometry"/></mxCell><mxCell id="0rB0F-Ur0wucUoMe_7N4-596" value="PK" style="shape=partialRectangle;connectable=0;fillColor=none;top=0;left=0;bottom=0;right=0;editable=1;overflow=hidden;fontFamily=Helvetica;fontStyle=1" parent="0rB0F-Ur0wucUoMe_7N4-595" vertex="1"><mxGeometry width="30" height="30" as="geometry"><mxRectangle width="30" height="30" as="alternateBounds"/></mxGeometry></mxCell><mxCell id="0rB0F-Ur0wucUoMe_7N4-597" value="id" style="shape=partialRectangle;connectable=0;fillColor=none;top=0;left=0;bottom=0;right=0;align=left;spacingLeft=6;overflow=hidden;fontColor=#3399FF;fontFamily=Helvetica;fontStyle=1" parent="0rB0F-Ur0wucUoMe_7N4-595" vertex="1"><mxGeometry x="30" width="95" height="30" as="geometry"><mxRectangle width="95" height="30" as="alternateBounds"/></mxGeometry></mxCell><mxCell id="0rB0F-Ur0wucUoMe_7N4-598" value="String" style="shape=partialRectangle;connectable=0;fillColor=none;top=0;left=0;bottom=0;right=0;align=left;spacingLeft=6;overflow=hidden;fontFamily=Helvetica;fontStyle=1" parent="0rB0F-Ur0wucUoMe_7N4-595" vertex="1"><mxGeometry x="125" width="125" height="30" as="geometry"><mxRectangle width="90" height="30" as="alternateBounds"/></mxGeometry></mxCell><mxCell id="0rB0F-Ur0wucUoMe_7N4-599" value="" style="shape=partialRectangle;collapsible=0;dropTarget=0;pointerEvents=0;fillColor=none;top=0;left=0;bottom=0;right=0;points=[[0,0.5],[1,0.5]];portConstraint=eastwest;sketch=0;strokeWidth=1;fontFamily=Helvetica;" parent="0rB0F-Ur0wucUoMe_7N4-594" vertex="1"><mxGeometry y="60" width="250" height="30" as="geometry"/></mxCell><mxCell id="0rB0F-Ur0wucUoMe_7N4-600" value="FK" style="shape=partialRectangle;connectable=0;fillColor=none;top=0;left=0;bottom=0;right=0;editable=1;overflow=hidden;fontFamily=Helvetica;fontStyle=1" parent="0rB0F-Ur0wucUoMe_7N4-599" vertex="1"><mxGeometry width="30" height="30" as="geometry"><mxRectangle width="30" height="30" as="alternateBounds"/></mxGeometry></mxCell><mxCell id="0rB0F-Ur0wucUoMe_7N4-601" value="buildingId" style="shape=partialRectangle;connectable=0;fillColor=none;top=0;left=0;bottom=0;right=0;align=left;spacingLeft=6;overflow=hidden;fontColor=#3399FF;fontFamily=Helvetica;fontStyle=1" parent="0rB0F-Ur0wucUoMe_7N4-599" vertex="1"><mxGeometry x="30" width="95" height="30" as="geometry"><mxRectangle width="95" height="30" as="alternateBounds"/></mxGeometry></mxCell><mxCell id="0rB0F-Ur0wucUoMe_7N4-602" value="String" style="shape=partialRectangle;connectable=0;fillColor=none;top=0;left=0;bottom=0;right=0;align=left;spacingLeft=6;overflow=hidden;fontFamily=Helvetica;fontStyle=1" parent="0rB0F-Ur0wucUoMe_7N4-599" vertex="1"><mxGeometry x="125" width="125" height="30" as="geometry"><mxRectangle width="90" height="30" as="alternateBounds"/></mxGeometry></mxCell><mxCell id="D6duT-2y6LJUgeoojalW-19" style="shape=partialRectangle;collapsible=0;dropTarget=0;pointerEvents=0;fillColor=none;top=0;left=0;bottom=0;right=0;points=[[0,0.5],[1,0.5]];portConstraint=eastwest;sketch=0;strokeWidth=1;fontFamily=Helvetica;" parent="0rB0F-Ur0wucUoMe_7N4-594" vertex="1"><mxGeometry y="90" width="250" height="30" as="geometry"/></mxCell><mxCell id="D6duT-2y6LJUgeoojalW-20" style="shape=partialRectangle;connectable=0;fillColor=none;top=0;left=0;bottom=0;right=0;editable=1;overflow=hidden;fontFamily=Helvetica;fontStyle=1" parent="D6duT-2y6LJUgeoojalW-19" vertex="1"><mxGeometry width="30" height="30" as="geometry"><mxRectangle width="30" height="30" as="alternateBounds"/></mxGeometry></mxCell><mxCell id="D6duT-2y6LJUgeoojalW-21" value="vertices" style="shape=partialRectangle;connectable=0;fillColor=none;top=0;left=0;bottom=0;right=0;align=left;spacingLeft=6;overflow=hidden;fontColor=#3399FF;fontFamily=Helvetica;fontStyle=1" parent="D6duT-2y6LJUgeoojalW-19" vertex="1"><mxGeometry x="30" width="95" height="30" as="geometry"><mxRectangle width="95" height="30" as="alternateBounds"/></mxGeometry></mxCell><mxCell id="D6duT-2y6LJUgeoojalW-22" value="Collection&lt;Vertex&gt;" style="shape=partialRectangle;connectable=0;fillColor=none;top=0;left=0;bottom=0;right=0;align=left;spacingLeft=6;overflow=hidden;fontFamily=Helvetica;fontStyle=1" parent="D6duT-2y6LJUgeoojalW-19" vertex="1"><mxGeometry x="125" width="125" height="30" as="geometry"><mxRectangle width="90" height="30" as="alternateBounds"/></mxGeometry></mxCell><mxCell id="D6duT-2y6LJUgeoojalW-27" style="shape=partialRectangle;collapsible=0;dropTarget=0;pointerEvents=0;fillColor=none;top=0;left=0;bottom=0;right=0;points=[[0,0.5],[1,0.5]];portConstraint=eastwest;sketch=0;strokeWidth=1;fontFamily=Helvetica;" parent="0rB0F-Ur0wucUoMe_7N4-594" vertex="1"><mxGeometry y="120" width="250" height="30" as="geometry"/></mxCell><mxCell id="D6duT-2y6LJUgeoojalW-28" style="shape=partialRectangle;connectable=0;fillColor=none;top=0;left=0;bottom=0;right=0;editable=1;overflow=hidden;fontFamily=Helvetica;fontStyle=1" parent="D6duT-2y6LJUgeoojalW-27" vertex="1"><mxGeometry width="30" height="30" as="geometry"><mxRectangle width="30" height="30" as="alternateBounds"/></mxGeometry></mxCell><mxCell id="D6duT-2y6LJUgeoojalW-29" value="edges" style="shape=partialRectangle;connectable=0;fillColor=none;top=0;left=0;bottom=0;right=0;align=left;spacingLeft=6;overflow=hidden;fontColor=#3399FF;fontFamily=Helvetica;fontStyle=1" parent="D6duT-2y6LJUgeoojalW-27" vertex="1"><mxGeometry x="30" width="95" height="30" as="geometry"><mxRectangle width="95" height="30" as="alternateBounds"/></mxGeometry></mxCell><mxCell id="D6duT-2y6LJUgeoojalW-30" value="Collection&lt;Edge&gt;" style="shape=partialRectangle;connectable=0;fillColor=none;top=0;left=0;bottom=0;right=0;align=left;spacingLeft=6;overflow=hidden;fontFamily=Helvetica;fontStyle=1" parent="D6duT-2y6LJUgeoojalW-27" vertex="1"><mxGeometry x="125" width="125" height="30" as="geometry"><mxRectangle width="90" height="30" as="alternateBounds"/></mxGeometry></mxCell><mxCell id="0rB0F-Ur0wucUoMe_7N4-611" value="visitor" style="shape=table;startSize=30;container=1;collapsible=1;childLayout=tableLayout;fixedRows=1;rowLines=0;fontStyle=1;align=center;resizeLast=1;rounded=0;sketch=0;shadow=0;swimlaneFillColor=#ffffff;fontFamily=Helvetica;perimeterSpacing=0;strokeColor=#3399FF;fillColor=#99CCFF;" parent="1" vertex="1"><mxGeometry x="800" y="-110" width="220" height="150" as="geometry"><mxRectangle x="800" y="-25" width="60" height="30" as="alternateBounds"/></mxGeometry></mxCell><mxCell id="0rB0F-Ur0wucUoMe_7N4-612" value="" style="shape=partialRectangle;collapsible=0;dropTarget=0;pointerEvents=0;fillColor=none;top=0;left=0;bottom=0;right=0;points=[[0,0.5],[1,0.5]];portConstraint=eastwest;fontFamily=Helvetica;" parent="0rB0F-Ur0wucUoMe_7N4-611" vertex="1"><mxGeometry y="30" width="220" height="30" as="geometry"/></mxCell><mxCell id="0rB0F-Ur0wucUoMe_7N4-613" value="PK" style="shape=partialRectangle;connectable=0;fillColor=none;top=0;left=0;bottom=0;right=0;editable=1;overflow=hidden;fontFamily=Helvetica;fontStyle=1" parent="0rB0F-Ur0wucUoMe_7N4-612" vertex="1"><mxGeometry width="30" height="30" as="geometry"><mxRectangle width="30" height="30" as="alternateBounds"/></mxGeometry></mxCell><mxCell id="0rB0F-Ur0wucUoMe_7N4-614" value="id" style="shape=partialRectangle;connectable=0;fillColor=none;top=0;left=0;bottom=0;right=0;align=left;spacingLeft=6;overflow=hidden;fontColor=#3399FF;fontFamily=Helvetica;fontStyle=1" parent="0rB0F-Ur0wucUoMe_7N4-612" vertex="1"><mxGeometry x="30" width="90" height="30" as="geometry"><mxRectangle width="90" height="30" as="alternateBounds"/></mxGeometry></mxCell><mxCell id="0rB0F-Ur0wucUoMe_7N4-615" value="String" style="shape=partialRectangle;connectable=0;fillColor=none;top=0;left=0;bottom=0;right=0;align=left;spacingLeft=6;overflow=hidden;fontFamily=Helvetica;fontStyle=1" parent="0rB0F-Ur0wucUoMe_7N4-612" vertex="1"><mxGeometry x="120" width="100" height="30" as="geometry"><mxRectangle width="100" height="30" as="alternateBounds"/></mxGeometry></mxCell><mxCell id="0rB0F-Ur0wucUoMe_7N4-616" value="" style="shape=partialRectangle;collapsible=0;dropTarget=0;pointerEvents=0;fillColor=none;top=0;left=0;bottom=0;right=0;points=[[0,0.5],[1,0.5]];portConstraint=eastwest;sketch=0;strokeWidth=1;fontFamily=Helvetica;" parent="0rB0F-Ur0wucUoMe_7N4-611" vertex="1"><mxGeometry y="60" width="220" height="30" as="geometry"/></mxCell><mxCell id="0rB0F-Ur0wucUoMe_7N4-617" value="" style="shape=partialRectangle;connectable=0;fillColor=none;top=0;left=0;bottom=0;right=0;editable=1;overflow=hidden;fontFamily=Helvetica;fontStyle=1" parent="0rB0F-Ur0wucUoMe_7N4-616" vertex="1"><mxGeometry width="30" height="30" as="geometry"><mxRectangle width="30" height="30" as="alternateBounds"/></mxGeometry></mxCell><mxCell id="0rB0F-Ur0wucUoMe_7N4-618" value="name" style="shape=partialRectangle;connectable=0;fillColor=none;top=0;left=0;bottom=0;right=0;align=left;spacingLeft=6;overflow=hidden;fontColor=#3399FF;fontFamily=Helvetica;fontStyle=1" parent="0rB0F-Ur0wucUoMe_7N4-616" vertex="1"><mxGeometry x="30" width="90" height="30" as="geometry"><mxRectangle width="90" height="30" as="alternateBounds"/></mxGeometry></mxCell><mxCell id="0rB0F-Ur0wucUoMe_7N4-619" value="String" style="shape=partialRectangle;connectable=0;fillColor=none;top=0;left=0;bottom=0;right=0;align=left;spacingLeft=6;overflow=hidden;fontFamily=Helvetica;fontStyle=1" parent="0rB0F-Ur0wucUoMe_7N4-616" vertex="1"><mxGeometry x="120" width="100" height="30" as="geometry"><mxRectangle width="100" height="30" as="alternateBounds"/></mxGeometry></mxCell><mxCell id="0rB0F-Ur0wucUoMe_7N4-628" style="shape=partialRectangle;collapsible=0;dropTarget=0;pointerEvents=0;fillColor=none;top=0;left=0;bottom=0;right=0;points=[[0,0.5],[1,0.5]];portConstraint=eastwest;fontFamily=Helvetica;" parent="0rB0F-Ur0wucUoMe_7N4-611" vertex="1"><mxGeometry y="90" width="220" height="30" as="geometry"/></mxCell><mxCell id="0rB0F-Ur0wucUoMe_7N4-629" value="" style="shape=partialRectangle;connectable=0;fillColor=none;top=0;left=0;bottom=0;right=0;editable=1;overflow=hidden;fontFamily=Helvetica;fontStyle=1" parent="0rB0F-Ur0wucUoMe_7N4-628" vertex="1"><mxGeometry width="30" height="30" as="geometry"><mxRectangle width="30" height="30" as="alternateBounds"/></mxGeometry></mxCell><mxCell id="0rB0F-Ur0wucUoMe_7N4-630" value="deviceId" style="shape=partialRectangle;connectable=0;fillColor=none;top=0;left=0;bottom=0;right=0;align=left;spacingLeft=6;overflow=hidden;fontColor=#3399FF;fontFamily=Helvetica;fontStyle=1" parent="0rB0F-Ur0wucUoMe_7N4-628" vertex="1"><mxGeometry x="30" width="90" height="30" as="geometry"><mxRectangle width="90" height="30" as="alternateBounds"/></mxGeometry></mxCell><mxCell id="0rB0F-Ur0wucUoMe_7N4-631" value="String" style="shape=partialRectangle;connectable=0;fillColor=none;top=0;left=0;bottom=0;right=0;align=left;spacingLeft=6;overflow=hidden;fontFamily=Helvetica;fontStyle=1" parent="0rB0F-Ur0wucUoMe_7N4-628" vertex="1"><mxGeometry x="120" width="100" height="30" as="geometry"><mxRectangle width="100" height="30" as="alternateBounds"/></mxGeometry></mxCell><mxCell id="0rB0F-Ur0wucUoMe_7N4-640" value="visitor_groups" style="shape=table;startSize=30;container=1;collapsible=1;childLayout=tableLayout;fixedRows=1;rowLines=0;fontStyle=1;align=center;resizeLast=1;rounded=0;sketch=0;shadow=0;swimlaneFillColor=#ffffff;fontFamily=Helvetica;perimeterSpacing=0;strokeColor=#3399FF;fillColor=#99CCFF;" parent="1" vertex="1"><mxGeometry x="1140" y="-95" width="220" height="120" as="geometry"><mxRectangle x="1100" y="14.5" width="60" height="30" as="alternateBounds"/></mxGeometry></mxCell><mxCell id="0rB0F-Ur0wucUoMe_7N4-641" value="" style="shape=partialRectangle;collapsible=0;dropTarget=0;pointerEvents=0;fillColor=none;top=0;left=0;bottom=0;right=0;points=[[0,0.5],[1,0.5]];portConstraint=eastwest;fontFamily=Helvetica;" parent="0rB0F-Ur0wucUoMe_7N4-640" vertex="1"><mxGeometry y="30" width="220" height="30" as="geometry"/></mxCell><mxCell id="0rB0F-Ur0wucUoMe_7N4-642" value="PK" style="shape=partialRectangle;connectable=0;fillColor=none;top=0;left=0;bottom=0;right=0;editable=1;overflow=hidden;fontFamily=Helvetica;fontStyle=1" parent="0rB0F-Ur0wucUoMe_7N4-641" vertex="1"><mxGeometry width="30" height="30" as="geometry"><mxRectangle width="30" height="30" as="alternateBounds"/></mxGeometry></mxCell><mxCell id="0rB0F-Ur0wucUoMe_7N4-643" value="id" style="shape=partialRectangle;connectable=0;fillColor=none;top=0;left=0;bottom=0;right=0;align=left;spacingLeft=6;overflow=hidden;fontColor=#3399FF;fontFamily=Helvetica;fontStyle=1" parent="0rB0F-Ur0wucUoMe_7N4-641" vertex="1"><mxGeometry x="30" width="90" height="30" as="geometry"><mxRectangle width="90" height="30" as="alternateBounds"/></mxGeometry></mxCell><mxCell id="0rB0F-Ur0wucUoMe_7N4-644" value="String" style="shape=partialRectangle;connectable=0;fillColor=none;top=0;left=0;bottom=0;right=0;align=left;spacingLeft=6;overflow=hidden;fontFamily=Helvetica;fontStyle=1" parent="0rB0F-Ur0wucUoMe_7N4-641" vertex="1"><mxGeometry x="120" width="100" height="30" as="geometry"><mxRectangle width="100" height="30" as="alternateBounds"/></mxGeometry></mxCell><mxCell id="0rB0F-Ur0wucUoMe_7N4-645" value="" style="shape=partialRectangle;collapsible=0;dropTarget=0;pointerEvents=0;fillColor=none;top=0;left=0;bottom=0;right=0;points=[[0,0.5],[1,0.5]];portConstraint=eastwest;sketch=0;strokeWidth=1;fontFamily=Helvetica;" parent="0rB0F-Ur0wucUoMe_7N4-640" vertex="1"><mxGeometry y="60" width="220" height="30" as="geometry"/></mxCell><mxCell id="0rB0F-Ur0wucUoMe_7N4-646" value="" style="shape=partialRectangle;connectable=0;fillColor=none;top=0;left=0;bottom=0;right=0;editable=1;overflow=hidden;fontFamily=Helvetica;fontStyle=1" parent="0rB0F-Ur0wucUoMe_7N4-645" vertex="1"><mxGeometry width="30" height="30" as="geometry"><mxRectangle width="30" height="30" as="alternateBounds"/></mxGeometry></mxCell><mxCell id="0rB0F-Ur0wucUoMe_7N4-647" value="name" style="shape=partialRectangle;connectable=0;fillColor=none;top=0;left=0;bottom=0;right=0;align=left;spacingLeft=6;overflow=hidden;fontColor=#3399FF;fontFamily=Helvetica;fontStyle=1" parent="0rB0F-Ur0wucUoMe_7N4-645" vertex="1"><mxGeometry x="30" width="90" height="30" as="geometry"><mxRectangle width="90" height="30" as="alternateBounds"/></mxGeometry></mxCell><mxCell id="0rB0F-Ur0wucUoMe_7N4-648" value="String" style="shape=partialRectangle;connectable=0;fillColor=none;top=0;left=0;bottom=0;right=0;align=left;spacingLeft=6;overflow=hidden;fontFamily=Helvetica;fontStyle=1" parent="0rB0F-Ur0wucUoMe_7N4-645" vertex="1"><mxGeometry x="120" width="100" height="30" as="geometry"><mxRectangle width="100" height="30" as="alternateBounds"/></mxGeometry></mxCell><mxCell id="0rB0F-Ur0wucUoMe_7N4-649" style="shape=partialRectangle;collapsible=0;dropTarget=0;pointerEvents=0;fillColor=none;top=0;left=0;bottom=0;right=0;points=[[0,0.5],[1,0.5]];portConstraint=eastwest;sketch=0;strokeWidth=1;fontFamily=Helvetica;" parent="0rB0F-Ur0wucUoMe_7N4-640" vertex="1"><mxGeometry y="90" width="220" height="30" as="geometry"/></mxCell><mxCell id="0rB0F-Ur0wucUoMe_7N4-650" value="FK" style="shape=partialRectangle;connectable=0;fillColor=none;top=0;left=0;bottom=0;right=0;editable=1;overflow=hidden;fontFamily=Helvetica;fontStyle=1" parent="0rB0F-Ur0wucUoMe_7N4-649" vertex="1"><mxGeometry width="30" height="30" as="geometry"><mxRectangle width="30" height="30" as="alternateBounds"/></mxGeometry></mxCell><mxCell id="0rB0F-Ur0wucUoMe_7N4-651" value="visitorIds" style="shape=partialRectangle;connectable=0;fillColor=none;top=0;left=0;bottom=0;right=0;align=left;spacingLeft=6;overflow=hidden;fontColor=#3399FF;fontFamily=Helvetica;fontStyle=1" parent="0rB0F-Ur0wucUoMe_7N4-649" vertex="1"><mxGeometry x="30" width="90" height="30" as="geometry"><mxRectangle width="90" height="30" as="alternateBounds"/></mxGeometry></mxCell><mxCell id="0rB0F-Ur0wucUoMe_7N4-652" value="Set&lt;String&gt;" style="shape=partialRectangle;connectable=0;fillColor=none;top=0;left=0;bottom=0;right=0;align=left;spacingLeft=6;overflow=hidden;fontFamily=Helvetica;fontStyle=1" parent="0rB0F-Ur0wucUoMe_7N4-649" vertex="1"><mxGeometry x="120" width="100" height="30" as="geometry"><mxRectangle width="100" height="30" as="alternateBounds"/></mxGeometry></mxCell><mxCell id="0rB0F-Ur0wucUoMe_7N4-669" value="" style="fontSize=12;html=1;endArrow=ERoneToMany;fontFamily=Helvetica;fontColor=#3399FF;exitX=0.5;exitY=0;exitDx=0;exitDy=0;strokeColor=#3399FF;edgeStyle=orthogonalEdgeStyle;" parent="1" source="0rB0F-Ur0wucUoMe_7N4-359" edge="1"><mxGeometry width="100" height="100" relative="1" as="geometry"><mxPoint x="310" y="580" as="sourcePoint"/><mxPoint y="170" as="targetPoint"/><Array as="points"><mxPoint y="270"/><mxPoint y="270"/></Array></mxGeometry></mxCell><mxCell id="0rB0F-Ur0wucUoMe_7N4-670" value="" style="fontSize=12;html=1;endArrow=ERoneToMany;fontFamily=Helvetica;fontColor=#3399FF;strokeColor=#3399FF;entryX=1;entryY=0.5;entryDx=0;entryDy=0;exitX=-0.001;exitY=0.827;exitDx=0;exitDy=0;exitPerimeter=0;" parent="1" source="0rB0F-Ur0wucUoMe_7N4-323" target="0rB0F-Ur0wucUoMe_7N4-380" edge="1"><mxGeometry width="100" height="100" relative="1" as="geometry"><mxPoint x="280" y="550" as="sourcePoint"/><mxPoint x="600" y="490" as="targetPoint"/></mxGeometry></mxCell><mxCell id="0rB0F-Ur0wucUoMe_7N4-673" style="rounded=0;orthogonalLoop=1;jettySize=auto;html=1;fontFamily=Helvetica;fontColor=#3399FF;strokeColor=#3399FF;endArrow=none;endFill=0;startArrow=ERoneToMany;startFill=0;exitX=0.5;exitY=0;exitDx=0;exitDy=0;" parent="1" source="0rB0F-Ur0wucUoMe_7N4-594" target="0rB0F-Ur0wucUoMe_7N4-392" edge="1"><mxGeometry relative="1" as="geometry"><mxPoint x="-100" y="830" as="targetPoint"/><mxPoint x="-80" y="1200" as="sourcePoint"/></mxGeometry></mxCell><mxCell id="0rB0F-Ur0wucUoMe_7N4-674" value="" style="fontSize=12;html=1;endArrow=ERoneToMany;fontFamily=Helvetica;fontColor=#3399FF;strokeColor=#3399FF;exitX=0;exitY=0.5;exitDx=0;exitDy=0;entryX=1;entryY=0.5;entryDx=0;entryDy=0;" parent="1" source="0rB0F-Ur0wucUoMe_7N4-368" target="0rB0F-Ur0wucUoMe_7N4-421" edge="1"><mxGeometry width="100" height="100" relative="1" as="geometry"><mxPoint x="339.73" y="584.81" as="sourcePoint"/><mxPoint x="-300" y="430" as="targetPoint"/></mxGeometry></mxCell><mxCell id="0rB0F-Ur0wucUoMe_7N4-685" value="" style="fontSize=12;html=1;endArrow=ERoneToMany;fontFamily=Helvetica;fontColor=#3399FF;exitX=1;exitY=0.5;exitDx=0;exitDy=0;entryX=0;entryY=0.5;entryDx=0;entryDy=0;strokeColor=#3399FF;edgeStyle=orthogonalEdgeStyle;" parent="1" source="0rB0F-Ur0wucUoMe_7N4-360" target="0rB0F-Ur0wucUoMe_7N4-331" edge="1"><mxGeometry width="100" height="100" relative="1" as="geometry"><mxPoint x="-120" y="545" as="sourcePoint"/><mxPoint x="-310" y="545" as="targetPoint"/><Array as="points"><mxPoint x="290" y="395"/><mxPoint x="290" y="-215"/></Array></mxGeometry></mxCell><mxCell id="0rB0F-Ur0wucUoMe_7N4-687" value="" style="fontSize=12;html=1;endArrow=ERoneToMany;fontFamily=Helvetica;fontColor=#3399FF;exitX=0;exitY=0.5;exitDx=0;exitDy=0;entryX=1;entryY=0.5;entryDx=0;entryDy=0;strokeColor=#3399FF;edgeStyle=orthogonalEdgeStyle;" parent="1" source="0rB0F-Ur0wucUoMe_7N4-388" target="0rB0F-Ur0wucUoMe_7N4-442" edge="1"><mxGeometry width="100" height="100" relative="1" as="geometry"><mxPoint x="-100" y="565" as="sourcePoint"/><mxPoint x="-290" y="565" as="targetPoint"/></mxGeometry></mxCell><mxCell id="6gP9qJFttQQGHEHYtYaa-23" value="" style="fontSize=12;html=1;endArrow=ERoneToMany;fontFamily=Helvetica;fontColor=#3399FF;entryX=1;entryY=0.5;entryDx=0;entryDy=0;strokeColor=#3399FF;edgeStyle=orthogonalEdgeStyle;" parent="1" target="0rB0F-Ur0wucUoMe_7N4-331" edge="1"><mxGeometry width="100" height="100" relative="1" as="geometry"><mxPoint x="800" as="sourcePoint"/><mxPoint x="680" y="-53" as="targetPoint"/><Array as="points"><mxPoint x="720"/><mxPoint x="720" y="-215"/></Array></mxGeometry></mxCell><mxCell id="6gP9qJFttQQGHEHYtYaa-24" value="" style="fontSize=12;html=1;endArrow=ERoneToMany;fontFamily=Helvetica;fontColor=#3399FF;strokeColor=#3399FF;edgeStyle=orthogonalEdgeStyle;" parent="1" target="0rB0F-Ur0wucUoMe_7N4-645" edge="1"><mxGeometry width="100" height="100" relative="1" as="geometry"><mxPoint x="1020" y="-20" as="sourcePoint"/><mxPoint x="1100" y="-20" as="targetPoint"/><Array as="points"/></mxGeometry></mxCell><mxCell id="D6duT-2y6LJUgeoojalW-1" style="shape=partialRectangle;collapsible=0;dropTarget=0;pointerEvents=0;fillColor=none;top=0;left=0;bottom=0;right=0;points=[[0,0.5],[1,0.5]];portConstraint=eastwest;fontFamily=Helvetica;" parent="1" vertex="1"><mxGeometry x="800" y="10" width="210" height="30" as="geometry"/></mxCell><mxCell id="D6duT-2y6LJUgeoojalW-2" value="" style="shape=partialRectangle;connectable=0;fillColor=none;top=0;left=0;bottom=0;right=0;editable=1;overflow=hidden;fontFamily=Helvetica;fontStyle=1" parent="D6duT-2y6LJUgeoojalW-1" vertex="1"><mxGeometry width="30" height="30" as="geometry"/></mxCell><mxCell id="D6duT-2y6LJUgeoojalW-3" value="type" style="shape=partialRectangle;connectable=0;fillColor=none;top=0;left=0;bottom=0;right=0;align=left;spacingLeft=6;overflow=hidden;fontColor=#3399FF;fontFamily=Helvetica;fontStyle=1" parent="D6duT-2y6LJUgeoojalW-1" vertex="1"><mxGeometry x="30" width="90" height="30" as="geometry"/></mxCell><mxCell id="D6duT-2y6LJUgeoojalW-4" value="VisitorType" style="shape=partialRectangle;connectable=0;fillColor=none;top=0;left=0;bottom=0;right=0;align=left;spacingLeft=6;overflow=hidden;fontFamily=Helvetica;fontStyle=1" parent="D6duT-2y6LJUgeoojalW-1" vertex="1"><mxGeometry x="120" width="90" height="30" as="geometry"/></mxCell><mxCell id="XEkfb_qRTGP3oeACjC1f-8" value="" style="endArrow=none;dashed=1;html=1;fontColor=#3399FF;strokeColor=#3399FF;entryX=0;entryY=0.5;entryDx=0;entryDy=0;exitX=1;exitY=0.5;exitDx=0;exitDy=0;fontFamily=Helvetica;" parent="1" source="0rB0F-Ur0wucUoMe_7N4-191" target="0rB0F-Ur0wucUoMe_7N4-538" edge="1"><mxGeometry width="50" height="50" relative="1" as="geometry"><mxPoint x="780" y="750" as="sourcePoint"/><mxPoint x="830" y="700" as="targetPoint"/><Array as="points"><mxPoint x="760" y="745"/><mxPoint x="760" y="400"/></Array></mxGeometry></mxCell><mxCell id="cw4sGsZYmiLh-KyLxp-m-1" value="latest_history" style="shape=table;startSize=30;container=1;collapsible=1;childLayout=tableLayout;fixedRows=1;rowLines=0;fontStyle=1;align=center;resizeLast=1;rounded=0;sketch=0;shadow=0;swimlaneFillColor=#ffffff;fontFamily=Helvetica;perimeterSpacing=0;strokeColor=#3399FF;fillColor=#99CCFF;" parent="1" vertex="1"><mxGeometry x="360" width="320" height="330" as="geometry"><mxRectangle x="360" y="-130" width="60" height="30" as="alternateBounds"/></mxGeometry></mxCell><mxCell id="cw4sGsZYmiLh-KyLxp-m-2" value="" style="shape=partialRectangle;collapsible=0;dropTarget=0;pointerEvents=0;fillColor=none;top=0;left=0;bottom=0;right=0;points=[[0,0.5],[1,0.5]];portConstraint=eastwest;fontFamily=Helvetica;" parent="cw4sGsZYmiLh-KyLxp-m-1" vertex="1"><mxGeometry y="30" width="320" height="30" as="geometry"/></mxCell><mxCell id="cw4sGsZYmiLh-KyLxp-m-3" value="PK" style="shape=partialRectangle;connectable=0;fillColor=none;top=0;left=0;bottom=0;right=0;editable=1;overflow=hidden;fontFamily=Helvetica;fontStyle=1" parent="cw4sGsZYmiLh-KyLxp-m-2" vertex="1"><mxGeometry width="30" height="30" as="geometry"><mxRectangle width="30" height="30" as="alternateBounds"/></mxGeometry></mxCell><mxCell id="cw4sGsZYmiLh-KyLxp-m-4" value="id" style="shape=partialRectangle;connectable=0;fillColor=none;top=0;left=0;bottom=0;right=0;align=left;spacingLeft=6;overflow=hidden;fontColor=#3399FF;fontFamily=Helvetica;fontStyle=1" parent="cw4sGsZYmiLh-KyLxp-m-2" vertex="1"><mxGeometry x="30" width="180" height="30" as="geometry"><mxRectangle width="180" height="30" as="alternateBounds"/></mxGeometry></mxCell><mxCell id="cw4sGsZYmiLh-KyLxp-m-5" value="String" style="shape=partialRectangle;connectable=0;fillColor=none;top=0;left=0;bottom=0;right=0;align=left;spacingLeft=6;overflow=hidden;fontFamily=Helvetica;fontStyle=1" parent="cw4sGsZYmiLh-KyLxp-m-2" vertex="1"><mxGeometry x="210" width="110" height="30" as="geometry"><mxRectangle width="110" height="30" as="alternateBounds"/></mxGeometry></mxCell><mxCell id="cw4sGsZYmiLh-KyLxp-m-10" value="" style="shape=partialRectangle;collapsible=0;dropTarget=0;pointerEvents=0;fillColor=none;top=0;left=0;bottom=0;right=0;points=[[0,0.5],[1,0.5]];portConstraint=eastwest;fontFamily=Helvetica;" parent="cw4sGsZYmiLh-KyLxp-m-1" vertex="1"><mxGeometry y="60" width="320" height="30" as="geometry"/></mxCell><mxCell id="cw4sGsZYmiLh-KyLxp-m-11" value="" style="shape=partialRectangle;connectable=0;fillColor=none;top=0;left=0;bottom=0;right=0;editable=1;overflow=hidden;fontFamily=Helvetica;fontStyle=1" parent="cw4sGsZYmiLh-KyLxp-m-10" vertex="1"><mxGeometry width="30" height="30" as="geometry"><mxRectangle width="30" height="30" as="alternateBounds"/></mxGeometry></mxCell><mxCell id="cw4sGsZYmiLh-KyLxp-m-12" value="timestamp" style="shape=partialRectangle;connectable=0;fillColor=none;top=0;left=0;bottom=0;right=0;align=left;spacingLeft=6;overflow=hidden;fontColor=#3399FF;fontFamily=Helvetica;fontStyle=1" parent="cw4sGsZYmiLh-KyLxp-m-10" vertex="1"><mxGeometry x="30" width="180" height="30" as="geometry"><mxRectangle width="180" height="30" as="alternateBounds"/></mxGeometry></mxCell><mxCell id="cw4sGsZYmiLh-KyLxp-m-13" value="LocalDateTime" style="shape=partialRectangle;connectable=0;fillColor=none;top=0;left=0;bottom=0;right=0;align=left;spacingLeft=6;overflow=hidden;fontFamily=Helvetica;fontStyle=1;flipV=1;flipH=1;" parent="cw4sGsZYmiLh-KyLxp-m-10" vertex="1"><mxGeometry x="210" width="110" height="30" as="geometry"><mxRectangle width="110" height="30" as="alternateBounds"/></mxGeometry></mxCell><mxCell id="cw4sGsZYmiLh-KyLxp-m-14" style="shape=partialRectangle;collapsible=0;dropTarget=0;pointerEvents=0;fillColor=none;top=0;left=0;bottom=0;right=0;points=[[0,0.5],[1,0.5]];portConstraint=eastwest;fontFamily=Helvetica;" parent="cw4sGsZYmiLh-KyLxp-m-1" vertex="1"><mxGeometry y="90" width="320" height="30" as="geometry"/></mxCell><mxCell id="cw4sGsZYmiLh-KyLxp-m-15" style="shape=partialRectangle;connectable=0;fillColor=none;top=0;left=0;bottom=0;right=0;editable=1;overflow=hidden;fontFamily=Helvetica;fontStyle=1" parent="cw4sGsZYmiLh-KyLxp-m-14" vertex="1"><mxGeometry width="30" height="30" as="geometry"><mxRectangle width="30" height="30" as="alternateBounds"/></mxGeometry></mxCell><mxCell id="cw4sGsZYmiLh-KyLxp-m-16" value="latitude" style="shape=partialRectangle;connectable=0;fillColor=none;top=0;left=0;bottom=0;right=0;align=left;spacingLeft=6;overflow=hidden;fontColor=#3399FF;fontFamily=Helvetica;fontStyle=1" parent="cw4sGsZYmiLh-KyLxp-m-14" vertex="1"><mxGeometry x="30" width="180" height="30" as="geometry"><mxRectangle width="180" height="30" as="alternateBounds"/></mxGeometry></mxCell><mxCell id="cw4sGsZYmiLh-KyLxp-m-17" value="double" style="shape=partialRectangle;connectable=0;fillColor=none;top=0;left=0;bottom=0;right=0;align=left;spacingLeft=6;overflow=hidden;fontFamily=Helvetica;fontStyle=1" parent="cw4sGsZYmiLh-KyLxp-m-14" vertex="1"><mxGeometry x="210" width="110" height="30" as="geometry"><mxRectangle width="110" height="30" as="alternateBounds"/></mxGeometry></mxCell><mxCell id="cw4sGsZYmiLh-KyLxp-m-18" style="shape=partialRectangle;collapsible=0;dropTarget=0;pointerEvents=0;fillColor=none;top=0;left=0;bottom=0;right=0;points=[[0,0.5],[1,0.5]];portConstraint=eastwest;fontFamily=Helvetica;" parent="cw4sGsZYmiLh-KyLxp-m-1" vertex="1"><mxGeometry y="120" width="320" height="30" as="geometry"/></mxCell><mxCell id="cw4sGsZYmiLh-KyLxp-m-19" style="shape=partialRectangle;connectable=0;fillColor=none;top=0;left=0;bottom=0;right=0;editable=1;overflow=hidden;fontFamily=Helvetica;fontStyle=1" parent="cw4sGsZYmiLh-KyLxp-m-18" vertex="1"><mxGeometry width="30" height="30" as="geometry"><mxRectangle width="30" height="30" as="alternateBounds"/></mxGeometry></mxCell><mxCell id="cw4sGsZYmiLh-KyLxp-m-20" value="longitude" style="shape=partialRectangle;connectable=0;fillColor=none;top=0;left=0;bottom=0;right=0;align=left;spacingLeft=6;overflow=hidden;fontColor=#3399FF;fontFamily=Helvetica;fontStyle=1" parent="cw4sGsZYmiLh-KyLxp-m-18" vertex="1"><mxGeometry x="30" width="180" height="30" as="geometry"><mxRectangle width="180" height="30" as="alternateBounds"/></mxGeometry></mxCell><mxCell id="cw4sGsZYmiLh-KyLxp-m-21" value="double" style="shape=partialRectangle;connectable=0;fillColor=none;top=0;left=0;bottom=0;right=0;align=left;spacingLeft=6;overflow=hidden;fontFamily=Helvetica;fontStyle=1" parent="cw4sGsZYmiLh-KyLxp-m-18" vertex="1"><mxGeometry x="210" width="110" height="30" as="geometry"><mxRectangle width="110" height="30" as="alternateBounds"/></mxGeometry></mxCell><mxCell id="i9lH0kLctUFSdABLEqn4-9" style="shape=partialRectangle;collapsible=0;dropTarget=0;pointerEvents=0;fillColor=none;top=0;left=0;bottom=0;right=0;points=[[0,0.5],[1,0.5]];portConstraint=eastwest;fontFamily=Helvetica;" parent="cw4sGsZYmiLh-KyLxp-m-1" vertex="1"><mxGeometry y="150" width="320" height="30" as="geometry"/></mxCell><mxCell id="i9lH0kLctUFSdABLEqn4-10" style="shape=partialRectangle;connectable=0;fillColor=none;top=0;left=0;bottom=0;right=0;editable=1;overflow=hidden;fontFamily=Helvetica;fontStyle=1" parent="i9lH0kLctUFSdABLEqn4-9" vertex="1"><mxGeometry width="30" height="30" as="geometry"><mxRectangle width="30" height="30" as="alternateBounds"/></mxGeometry></mxCell><mxCell id="i9lH0kLctUFSdABLEqn4-11" value="deviceId" style="shape=partialRectangle;connectable=0;fillColor=none;top=0;left=0;bottom=0;right=0;align=left;spacingLeft=6;overflow=hidden;fontColor=#3399FF;fontFamily=Helvetica;fontStyle=1" parent="i9lH0kLctUFSdABLEqn4-9" vertex="1"><mxGeometry x="30" width="180" height="30" as="geometry"><mxRectangle width="180" height="30" as="alternateBounds"/></mxGeometry></mxCell><mxCell id="i9lH0kLctUFSdABLEqn4-12" value="String" style="shape=partialRectangle;connectable=0;fillColor=none;top=0;left=0;bottom=0;right=0;align=left;spacingLeft=6;overflow=hidden;fontFamily=Helvetica;fontStyle=1" parent="i9lH0kLctUFSdABLEqn4-9" vertex="1"><mxGeometry x="210" width="110" height="30" as="geometry"><mxRectangle width="110" height="30" as="alternateBounds"/></mxGeometry></mxCell><mxCell id="cw4sGsZYmiLh-KyLxp-m-22" style="shape=partialRectangle;collapsible=0;dropTarget=0;pointerEvents=0;fillColor=none;top=0;left=0;bottom=0;right=0;points=[[0,0.5],[1,0.5]];portConstraint=eastwest;fontFamily=Helvetica;" parent="cw4sGsZYmiLh-KyLxp-m-1" vertex="1"><mxGeometry y="180" width="320" height="30" as="geometry"/></mxCell><mxCell id="cw4sGsZYmiLh-KyLxp-m-23" value="FK" style="shape=partialRectangle;connectable=0;fillColor=none;top=0;left=0;bottom=0;right=0;editable=1;overflow=hidden;fontFamily=Helvetica;fontStyle=1" parent="cw4sGsZYmiLh-KyLxp-m-22" vertex="1"><mxGeometry width="30" height="30" as="geometry"><mxRectangle width="30" height="30" as="alternateBounds"/></mxGeometry></mxCell><mxCell id="cw4sGsZYmiLh-KyLxp-m-24" value="levelId" style="shape=partialRectangle;connectable=0;fillColor=none;top=0;left=0;bottom=0;right=0;align=left;spacingLeft=6;overflow=hidden;fontColor=#3399FF;fontFamily=Helvetica;fontStyle=1" parent="cw4sGsZYmiLh-KyLxp-m-22" vertex="1"><mxGeometry x="30" width="180" height="30" as="geometry"><mxRectangle width="180" height="30" as="alternateBounds"/></mxGeometry></mxCell><mxCell id="cw4sGsZYmiLh-KyLxp-m-25" value="String" style="shape=partialRectangle;connectable=0;fillColor=none;top=0;left=0;bottom=0;right=0;align=left;spacingLeft=6;overflow=hidden;fontFamily=Helvetica;fontStyle=1" parent="cw4sGsZYmiLh-KyLxp-m-22" vertex="1"><mxGeometry x="210" width="110" height="30" as="geometry"><mxRectangle width="110" height="30" as="alternateBounds"/></mxGeometry></mxCell><mxCell id="cw4sGsZYmiLh-KyLxp-m-26" style="shape=partialRectangle;collapsible=0;dropTarget=0;pointerEvents=0;fillColor=none;top=0;left=0;bottom=0;right=0;points=[[0,0.5],[1,0.5]];portConstraint=eastwest;fontFamily=Helvetica;" parent="cw4sGsZYmiLh-KyLxp-m-1" vertex="1"><mxGeometry y="210" width="320" height="30" as="geometry"/></mxCell><mxCell id="cw4sGsZYmiLh-KyLxp-m-27" style="shape=partialRectangle;connectable=0;fillColor=none;top=0;left=0;bottom=0;right=0;editable=1;overflow=hidden;fontFamily=Helvetica;fontStyle=1" parent="cw4sGsZYmiLh-KyLxp-m-26" vertex="1"><mxGeometry width="30" height="30" as="geometry"><mxRectangle width="30" height="30" as="alternateBounds"/></mxGeometry></mxCell><mxCell id="cw4sGsZYmiLh-KyLxp-m-28" value="heartRate" style="shape=partialRectangle;connectable=0;fillColor=none;top=0;left=0;bottom=0;right=0;align=left;spacingLeft=6;overflow=hidden;fontFamily=Helvetica;fontStyle=1;fontColor=#3399FF;" parent="cw4sGsZYmiLh-KyLxp-m-26" vertex="1"><mxGeometry x="30" width="180" height="30" as="geometry"><mxRectangle width="180" height="30" as="alternateBounds"/></mxGeometry></mxCell><mxCell id="cw4sGsZYmiLh-KyLxp-m-29" value="int" style="shape=partialRectangle;connectable=0;fillColor=none;top=0;left=0;bottom=0;right=0;align=left;spacingLeft=6;overflow=hidden;fontFamily=Helvetica;fontStyle=1" parent="cw4sGsZYmiLh-KyLxp-m-26" vertex="1"><mxGeometry x="210" width="110" height="30" as="geometry"><mxRectangle width="110" height="30" as="alternateBounds"/></mxGeometry></mxCell><mxCell id="cw4sGsZYmiLh-KyLxp-m-30" style="shape=partialRectangle;collapsible=0;dropTarget=0;pointerEvents=0;fillColor=none;top=0;left=0;bottom=0;right=0;points=[[0,0.5],[1,0.5]];portConstraint=eastwest;fontFamily=Helvetica;" parent="cw4sGsZYmiLh-KyLxp-m-1" vertex="1"><mxGeometry y="240" width="320" height="30" as="geometry"/></mxCell><mxCell id="cw4sGsZYmiLh-KyLxp-m-31" style="shape=partialRectangle;connectable=0;fillColor=none;top=0;left=0;bottom=0;right=0;editable=1;overflow=hidden;fontFamily=Helvetica;fontStyle=1" parent="cw4sGsZYmiLh-KyLxp-m-30" vertex="1"><mxGeometry width="30" height="30" as="geometry"><mxRectangle width="30" height="30" as="alternateBounds"/></mxGeometry></mxCell><mxCell id="cw4sGsZYmiLh-KyLxp-m-32" value="bodyTemperature" style="shape=partialRectangle;connectable=0;fillColor=none;top=0;left=0;bottom=0;right=0;align=left;spacingLeft=6;overflow=hidden;fontFamily=Helvetica;fontStyle=1;fontColor=#3399FF;" parent="cw4sGsZYmiLh-KyLxp-m-30" vertex="1"><mxGeometry x="30" width="180" height="30" as="geometry"><mxRectangle width="180" height="30" as="alternateBounds"/></mxGeometry></mxCell><mxCell id="cw4sGsZYmiLh-KyLxp-m-33" value="double" style="shape=partialRectangle;connectable=0;fillColor=none;top=0;left=0;bottom=0;right=0;align=left;spacingLeft=6;overflow=hidden;fontFamily=Helvetica;fontStyle=1" parent="cw4sGsZYmiLh-KyLxp-m-30" vertex="1"><mxGeometry x="210" width="110" height="30" as="geometry"><mxRectangle width="110" height="30" as="alternateBounds"/></mxGeometry></mxCell><mxCell id="cw4sGsZYmiLh-KyLxp-m-34" style="shape=partialRectangle;collapsible=0;dropTarget=0;pointerEvents=0;fillColor=none;top=0;left=0;bottom=0;right=0;points=[[0,0.5],[1,0.5]];portConstraint=eastwest;fontFamily=Helvetica;" parent="cw4sGsZYmiLh-KyLxp-m-1" vertex="1"><mxGeometry y="270" width="320" height="30" as="geometry"/></mxCell><mxCell id="cw4sGsZYmiLh-KyLxp-m-35" style="shape=partialRectangle;connectable=0;fillColor=none;top=0;left=0;bottom=0;right=0;editable=1;overflow=hidden;fontFamily=Helvetica;fontStyle=1" parent="cw4sGsZYmiLh-KyLxp-m-34" vertex="1"><mxGeometry width="30" height="30" as="geometry"><mxRectangle width="30" height="30" as="alternateBounds"/></mxGeometry></mxCell><mxCell id="cw4sGsZYmiLh-KyLxp-m-36" value="stepCount" style="shape=partialRectangle;connectable=0;fillColor=none;top=0;left=0;bottom=0;right=0;align=left;spacingLeft=6;overflow=hidden;fontFamily=Helvetica;fontStyle=1;fontColor=#3399FF;" parent="cw4sGsZYmiLh-KyLxp-m-34" vertex="1"><mxGeometry x="30" width="180" height="30" as="geometry"><mxRectangle width="180" height="30" as="alternateBounds"/></mxGeometry></mxCell><mxCell id="cw4sGsZYmiLh-KyLxp-m-37" value="int" style="shape=partialRectangle;connectable=0;fillColor=none;top=0;left=0;bottom=0;right=0;align=left;spacingLeft=6;overflow=hidden;fontFamily=Helvetica;fontStyle=1" parent="cw4sGsZYmiLh-KyLxp-m-34" vertex="1"><mxGeometry x="210" width="110" height="30" as="geometry"><mxRectangle width="110" height="30" as="alternateBounds"/></mxGeometry></mxCell><mxCell id="cw4sGsZYmiLh-KyLxp-m-6" value="" style="shape=partialRectangle;collapsible=0;dropTarget=0;pointerEvents=0;fillColor=none;top=0;left=0;bottom=0;right=0;points=[[0,0.5],[1,0.5]];portConstraint=eastwest;sketch=0;strokeWidth=1;fontFamily=Helvetica;" parent="cw4sGsZYmiLh-KyLxp-m-1" vertex="1"><mxGeometry y="300" width="320" height="30" as="geometry"/></mxCell><mxCell id="cw4sGsZYmiLh-KyLxp-m-7" value="" style="shape=partialRectangle;connectable=0;fillColor=none;top=0;left=0;bottom=0;right=0;editable=1;overflow=hidden;fontFamily=Helvetica;fontStyle=1" parent="cw4sGsZYmiLh-KyLxp-m-6" vertex="1"><mxGeometry width="30" height="30" as="geometry"><mxRectangle width="30" height="30" as="alternateBounds"/></mxGeometry></mxCell><mxCell id="cw4sGsZYmiLh-KyLxp-m-8" value="" style="shape=partialRectangle;connectable=0;fillColor=none;top=0;left=0;bottom=0;right=0;align=left;spacingLeft=6;overflow=hidden;fontColor=#3399FF;fontFamily=Helvetica;fontStyle=1" parent="cw4sGsZYmiLh-KyLxp-m-6" vertex="1"><mxGeometry x="30" width="180" height="30" as="geometry"><mxRectangle width="180" height="30" as="alternateBounds"/></mxGeometry></mxCell><mxCell id="cw4sGsZYmiLh-KyLxp-m-9" value="" style="shape=partialRectangle;connectable=0;fillColor=none;top=0;left=0;bottom=0;right=0;align=left;spacingLeft=6;overflow=hidden;fontFamily=Helvetica;fontStyle=1" parent="cw4sGsZYmiLh-KyLxp-m-6" vertex="1"><mxGeometry x="210" width="110" height="30" as="geometry"><mxRectangle width="110" height="30" as="alternateBounds"/></mxGeometry></mxCell><mxCell id="cw4sGsZYmiLh-KyLxp-m-38" value="" style="fontSize=12;html=1;endArrow=ERoneToMany;fontFamily=Helvetica;fontColor=#3399FF;exitX=1;exitY=0.5;exitDx=0;exitDy=0;strokeColor=#3399FF;edgeStyle=orthogonalEdgeStyle;entryX=0;entryY=0.5;entryDx=0;entryDy=0;" parent="1" source="0rB0F-Ur0wucUoMe_7N4-360" target="cw4sGsZYmiLh-KyLxp-m-22" edge="1"><mxGeometry width="100" height="100" relative="1" as="geometry"><mxPoint x="170" y="405" as="sourcePoint"/><mxPoint x="330" y="90" as="targetPoint"/><Array as="points"><mxPoint x="290" y="395"/><mxPoint x="290" y="195"/></Array></mxGeometry></mxCell><mxCell id="cw4sGsZYmiLh-KyLxp-m-39" value="" style="fontSize=12;html=1;endArrow=ERoneToMany;fontFamily=Helvetica;fontColor=#3399FF;strokeColor=#3399FF;edgeStyle=orthogonalEdgeStyle;exitX=0;exitY=0.5;exitDx=0;exitDy=0;" parent="1" source="0rB0F-Ur0wucUoMe_7N4-628" edge="1"><mxGeometry width="100" height="100" relative="1" as="geometry"><mxPoint x="798" y="5" as="sourcePoint"/><mxPoint x="680" y="195" as="targetPoint"/><Array as="points"><mxPoint x="800"/><mxPoint x="720"/><mxPoint x="720" y="195"/></Array></mxGeometry></mxCell><mxCell id="zsgav32dKOXWc2WvuA6r-1" value="position_history" style="shape=table;startSize=30;container=1;collapsible=1;childLayout=tableLayout;fixedRows=1;rowLines=0;fontStyle=1;align=center;resizeLast=1;rounded=0;sketch=0;shadow=0;swimlaneFillColor=#ffffff;fontFamily=Helvetica;perimeterSpacing=0;strokeColor=#3399FF;fillColor=#99CCFF;" parent="1" vertex="1"><mxGeometry x="360" y="-730" width="320" height="330" as="geometry"><mxRectangle x="360" y="-130" width="60" height="30" as="alternateBounds"/></mxGeometry></mxCell><mxCell id="zsgav32dKOXWc2WvuA6r-2" value="" style="shape=partialRectangle;collapsible=0;dropTarget=0;pointerEvents=0;fillColor=none;top=0;left=0;bottom=0;right=0;points=[[0,0.5],[1,0.5]];portConstraint=eastwest;fontFamily=Helvetica;" parent="zsgav32dKOXWc2WvuA6r-1" vertex="1"><mxGeometry y="30" width="320" height="30" as="geometry"/></mxCell><mxCell id="zsgav32dKOXWc2WvuA6r-3" value="PK" style="shape=partialRectangle;connectable=0;fillColor=none;top=0;left=0;bottom=0;right=0;editable=1;overflow=hidden;fontFamily=Helvetica;fontStyle=1" parent="zsgav32dKOXWc2WvuA6r-2" vertex="1"><mxGeometry width="30" height="30" as="geometry"><mxRectangle width="30" height="30" as="alternateBounds"/></mxGeometry></mxCell><mxCell id="zsgav32dKOXWc2WvuA6r-4" value="id" style="shape=partialRectangle;connectable=0;fillColor=none;top=0;left=0;bottom=0;right=0;align=left;spacingLeft=6;overflow=hidden;fontColor=#3399FF;fontFamily=Helvetica;fontStyle=1" parent="zsgav32dKOXWc2WvuA6r-2" vertex="1"><mxGeometry x="30" width="180" height="30" as="geometry"><mxRectangle width="180" height="30" as="alternateBounds"/></mxGeometry></mxCell><mxCell id="zsgav32dKOXWc2WvuA6r-5" value="String" style="shape=partialRectangle;connectable=0;fillColor=none;top=0;left=0;bottom=0;right=0;align=left;spacingLeft=6;overflow=hidden;fontFamily=Helvetica;fontStyle=1" parent="zsgav32dKOXWc2WvuA6r-2" vertex="1"><mxGeometry x="210" width="110" height="30" as="geometry"><mxRectangle width="110" height="30" as="alternateBounds"/></mxGeometry></mxCell><mxCell id="zsgav32dKOXWc2WvuA6r-6" value="" style="shape=partialRectangle;collapsible=0;dropTarget=0;pointerEvents=0;fillColor=none;top=0;left=0;bottom=0;right=0;points=[[0,0.5],[1,0.5]];portConstraint=eastwest;fontFamily=Helvetica;" parent="zsgav32dKOXWc2WvuA6r-1" vertex="1"><mxGeometry y="60" width="320" height="30" as="geometry"/></mxCell><mxCell id="zsgav32dKOXWc2WvuA6r-7" value="" style="shape=partialRectangle;connectable=0;fillColor=none;top=0;left=0;bottom=0;right=0;editable=1;overflow=hidden;fontFamily=Helvetica;fontStyle=1" parent="zsgav32dKOXWc2WvuA6r-6" vertex="1"><mxGeometry width="30" height="30" as="geometry"><mxRectangle width="30" height="30" as="alternateBounds"/></mxGeometry></mxCell><mxCell id="zsgav32dKOXWc2WvuA6r-8" value="timestamp" style="shape=partialRectangle;connectable=0;fillColor=none;top=0;left=0;bottom=0;right=0;align=left;spacingLeft=6;overflow=hidden;fontColor=#3399FF;fontFamily=Helvetica;fontStyle=1" parent="zsgav32dKOXWc2WvuA6r-6" vertex="1"><mxGeometry x="30" width="180" height="30" as="geometry"><mxRectangle width="180" height="30" as="alternateBounds"/></mxGeometry></mxCell><mxCell id="zsgav32dKOXWc2WvuA6r-9" value="LocalDateTime" style="shape=partialRectangle;connectable=0;fillColor=none;top=0;left=0;bottom=0;right=0;align=left;spacingLeft=6;overflow=hidden;fontFamily=Helvetica;fontStyle=1;flipV=1;flipH=1;" parent="zsgav32dKOXWc2WvuA6r-6" vertex="1"><mxGeometry x="210" width="110" height="30" as="geometry"><mxRectangle width="110" height="30" as="alternateBounds"/></mxGeometry></mxCell><mxCell id="zsgav32dKOXWc2WvuA6r-10" style="shape=partialRectangle;collapsible=0;dropTarget=0;pointerEvents=0;fillColor=none;top=0;left=0;bottom=0;right=0;points=[[0,0.5],[1,0.5]];portConstraint=eastwest;fontFamily=Helvetica;" parent="zsgav32dKOXWc2WvuA6r-1" vertex="1"><mxGeometry y="90" width="320" height="30" as="geometry"/></mxCell><mxCell id="zsgav32dKOXWc2WvuA6r-11" style="shape=partialRectangle;connectable=0;fillColor=none;top=0;left=0;bottom=0;right=0;editable=1;overflow=hidden;fontFamily=Helvetica;fontStyle=1" parent="zsgav32dKOXWc2WvuA6r-10" vertex="1"><mxGeometry width="30" height="30" as="geometry"><mxRectangle width="30" height="30" as="alternateBounds"/></mxGeometry></mxCell><mxCell id="zsgav32dKOXWc2WvuA6r-12" value="latitude" style="shape=partialRectangle;connectable=0;fillColor=none;top=0;left=0;bottom=0;right=0;align=left;spacingLeft=6;overflow=hidden;fontColor=#3399FF;fontFamily=Helvetica;fontStyle=1" parent="zsgav32dKOXWc2WvuA6r-10" vertex="1"><mxGeometry x="30" width="180" height="30" as="geometry"><mxRectangle width="180" height="30" as="alternateBounds"/></mxGeometry></mxCell><mxCell id="zsgav32dKOXWc2WvuA6r-13" value="double" style="shape=partialRectangle;connectable=0;fillColor=none;top=0;left=0;bottom=0;right=0;align=left;spacingLeft=6;overflow=hidden;fontFamily=Helvetica;fontStyle=1" parent="zsgav32dKOXWc2WvuA6r-10" vertex="1"><mxGeometry x="210" width="110" height="30" as="geometry"><mxRectangle width="110" height="30" as="alternateBounds"/></mxGeometry></mxCell><mxCell id="zsgav32dKOXWc2WvuA6r-14" style="shape=partialRectangle;collapsible=0;dropTarget=0;pointerEvents=0;fillColor=none;top=0;left=0;bottom=0;right=0;points=[[0,0.5],[1,0.5]];portConstraint=eastwest;fontFamily=Helvetica;" parent="zsgav32dKOXWc2WvuA6r-1" vertex="1"><mxGeometry y="120" width="320" height="30" as="geometry"/></mxCell><mxCell id="zsgav32dKOXWc2WvuA6r-15" style="shape=partialRectangle;connectable=0;fillColor=none;top=0;left=0;bottom=0;right=0;editable=1;overflow=hidden;fontFamily=Helvetica;fontStyle=1" parent="zsgav32dKOXWc2WvuA6r-14" vertex="1"><mxGeometry width="30" height="30" as="geometry"><mxRectangle width="30" height="30" as="alternateBounds"/></mxGeometry></mxCell><mxCell id="zsgav32dKOXWc2WvuA6r-16" value="longitude" style="shape=partialRectangle;connectable=0;fillColor=none;top=0;left=0;bottom=0;right=0;align=left;spacingLeft=6;overflow=hidden;fontColor=#3399FF;fontFamily=Helvetica;fontStyle=1" parent="zsgav32dKOXWc2WvuA6r-14" vertex="1"><mxGeometry x="30" width="180" height="30" as="geometry"><mxRectangle width="180" height="30" as="alternateBounds"/></mxGeometry></mxCell><mxCell id="zsgav32dKOXWc2WvuA6r-17" value="double" style="shape=partialRectangle;connectable=0;fillColor=none;top=0;left=0;bottom=0;right=0;align=left;spacingLeft=6;overflow=hidden;fontFamily=Helvetica;fontStyle=1" parent="zsgav32dKOXWc2WvuA6r-14" vertex="1"><mxGeometry x="210" width="110" height="30" as="geometry"><mxRectangle width="110" height="30" as="alternateBounds"/></mxGeometry></mxCell><mxCell id="zsgav32dKOXWc2WvuA6r-18" style="shape=partialRectangle;collapsible=0;dropTarget=0;pointerEvents=0;fillColor=none;top=0;left=0;bottom=0;right=0;points=[[0,0.5],[1,0.5]];portConstraint=eastwest;fontFamily=Helvetica;" parent="zsgav32dKOXWc2WvuA6r-1" vertex="1"><mxGeometry y="150" width="320" height="30" as="geometry"/></mxCell><mxCell id="zsgav32dKOXWc2WvuA6r-19" style="shape=partialRectangle;connectable=0;fillColor=none;top=0;left=0;bottom=0;right=0;editable=1;overflow=hidden;fontFamily=Helvetica;fontStyle=1" parent="zsgav32dKOXWc2WvuA6r-18" vertex="1"><mxGeometry width="30" height="30" as="geometry"><mxRectangle width="30" height="30" as="alternateBounds"/></mxGeometry></mxCell><mxCell id="zsgav32dKOXWc2WvuA6r-20" value="deviceId" style="shape=partialRectangle;connectable=0;fillColor=none;top=0;left=0;bottom=0;right=0;align=left;spacingLeft=6;overflow=hidden;fontColor=#3399FF;fontFamily=Helvetica;fontStyle=1" parent="zsgav32dKOXWc2WvuA6r-18" vertex="1"><mxGeometry x="30" width="180" height="30" as="geometry"><mxRectangle width="180" height="30" as="alternateBounds"/></mxGeometry></mxCell><mxCell id="zsgav32dKOXWc2WvuA6r-21" value="String" style="shape=partialRectangle;connectable=0;fillColor=none;top=0;left=0;bottom=0;right=0;align=left;spacingLeft=6;overflow=hidden;fontFamily=Helvetica;fontStyle=1" parent="zsgav32dKOXWc2WvuA6r-18" vertex="1"><mxGeometry x="210" width="110" height="30" as="geometry"><mxRectangle width="110" height="30" as="alternateBounds"/></mxGeometry></mxCell><mxCell id="zsgav32dKOXWc2WvuA6r-22" style="shape=partialRectangle;collapsible=0;dropTarget=0;pointerEvents=0;fillColor=none;top=0;left=0;bottom=0;right=0;points=[[0,0.5],[1,0.5]];portConstraint=eastwest;fontFamily=Helvetica;" parent="zsgav32dKOXWc2WvuA6r-1" vertex="1"><mxGeometry y="180" width="320" height="30" as="geometry"/></mxCell><mxCell id="zsgav32dKOXWc2WvuA6r-23" value="FK" style="shape=partialRectangle;connectable=0;fillColor=none;top=0;left=0;bottom=0;right=0;editable=1;overflow=hidden;fontFamily=Helvetica;fontStyle=1" parent="zsgav32dKOXWc2WvuA6r-22" vertex="1"><mxGeometry width="30" height="30" as="geometry"><mxRectangle width="30" height="30" as="alternateBounds"/></mxGeometry></mxCell><mxCell id="zsgav32dKOXWc2WvuA6r-24" value="levelId" style="shape=partialRectangle;connectable=0;fillColor=none;top=0;left=0;bottom=0;right=0;align=left;spacingLeft=6;overflow=hidden;fontColor=#3399FF;fontFamily=Helvetica;fontStyle=1" parent="zsgav32dKOXWc2WvuA6r-22" vertex="1"><mxGeometry x="30" width="180" height="30" as="geometry"><mxRectangle width="180" height="30" as="alternateBounds"/></mxGeometry></mxCell><mxCell id="zsgav32dKOXWc2WvuA6r-25" value="String" style="shape=partialRectangle;connectable=0;fillColor=none;top=0;left=0;bottom=0;right=0;align=left;spacingLeft=6;overflow=hidden;fontFamily=Helvetica;fontStyle=1" parent="zsgav32dKOXWc2WvuA6r-22" vertex="1"><mxGeometry x="210" width="110" height="30" as="geometry"><mxRectangle width="110" height="30" as="alternateBounds"/></mxGeometry></mxCell><mxCell id="zsgav32dKOXWc2WvuA6r-26" style="shape=partialRectangle;collapsible=0;dropTarget=0;pointerEvents=0;fillColor=none;top=0;left=0;bottom=0;right=0;points=[[0,0.5],[1,0.5]];portConstraint=eastwest;fontFamily=Helvetica;" parent="zsgav32dKOXWc2WvuA6r-1" vertex="1"><mxGeometry y="210" width="320" height="30" as="geometry"/></mxCell><mxCell id="zsgav32dKOXWc2WvuA6r-27" style="shape=partialRectangle;connectable=0;fillColor=none;top=0;left=0;bottom=0;right=0;editable=1;overflow=hidden;fontFamily=Helvetica;fontStyle=1" parent="zsgav32dKOXWc2WvuA6r-26" vertex="1"><mxGeometry width="30" height="30" as="geometry"><mxRectangle width="30" height="30" as="alternateBounds"/></mxGeometry></mxCell><mxCell id="zsgav32dKOXWc2WvuA6r-28" value="heartRate" style="shape=partialRectangle;connectable=0;fillColor=none;top=0;left=0;bottom=0;right=0;align=left;spacingLeft=6;overflow=hidden;fontFamily=Helvetica;fontStyle=1;fontColor=#3399FF;" parent="zsgav32dKOXWc2WvuA6r-26" vertex="1"><mxGeometry x="30" width="180" height="30" as="geometry"><mxRectangle width="180" height="30" as="alternateBounds"/></mxGeometry></mxCell><mxCell id="zsgav32dKOXWc2WvuA6r-29" value="int" style="shape=partialRectangle;connectable=0;fillColor=none;top=0;left=0;bottom=0;right=0;align=left;spacingLeft=6;overflow=hidden;fontFamily=Helvetica;fontStyle=1" parent="zsgav32dKOXWc2WvuA6r-26" vertex="1"><mxGeometry x="210" width="110" height="30" as="geometry"><mxRectangle width="110" height="30" as="alternateBounds"/></mxGeometry></mxCell><mxCell id="zsgav32dKOXWc2WvuA6r-30" style="shape=partialRectangle;collapsible=0;dropTarget=0;pointerEvents=0;fillColor=none;top=0;left=0;bottom=0;right=0;points=[[0,0.5],[1,0.5]];portConstraint=eastwest;fontFamily=Helvetica;" parent="zsgav32dKOXWc2WvuA6r-1" vertex="1"><mxGeometry y="240" width="320" height="30" as="geometry"/></mxCell><mxCell id="zsgav32dKOXWc2WvuA6r-31" style="shape=partialRectangle;connectable=0;fillColor=none;top=0;left=0;bottom=0;right=0;editable=1;overflow=hidden;fontFamily=Helvetica;fontStyle=1" parent="zsgav32dKOXWc2WvuA6r-30" vertex="1"><mxGeometry width="30" height="30" as="geometry"><mxRectangle width="30" height="30" as="alternateBounds"/></mxGeometry></mxCell><mxCell id="zsgav32dKOXWc2WvuA6r-32" value="bodyTemperature" style="shape=partialRectangle;connectable=0;fillColor=none;top=0;left=0;bottom=0;right=0;align=left;spacingLeft=6;overflow=hidden;fontFamily=Helvetica;fontStyle=1;fontColor=#3399FF;" parent="zsgav32dKOXWc2WvuA6r-30" vertex="1"><mxGeometry x="30" width="180" height="30" as="geometry"><mxRectangle width="180" height="30" as="alternateBounds"/></mxGeometry></mxCell><mxCell id="zsgav32dKOXWc2WvuA6r-33" value="double" style="shape=partialRectangle;connectable=0;fillColor=none;top=0;left=0;bottom=0;right=0;align=left;spacingLeft=6;overflow=hidden;fontFamily=Helvetica;fontStyle=1" parent="zsgav32dKOXWc2WvuA6r-30" vertex="1"><mxGeometry x="210" width="110" height="30" as="geometry"><mxRectangle width="110" height="30" as="alternateBounds"/></mxGeometry></mxCell><mxCell id="zsgav32dKOXWc2WvuA6r-34" style="shape=partialRectangle;collapsible=0;dropTarget=0;pointerEvents=0;fillColor=none;top=0;left=0;bottom=0;right=0;points=[[0,0.5],[1,0.5]];portConstraint=eastwest;fontFamily=Helvetica;" parent="zsgav32dKOXWc2WvuA6r-1" vertex="1"><mxGeometry y="270" width="320" height="30" as="geometry"/></mxCell><mxCell id="zsgav32dKOXWc2WvuA6r-35" style="shape=partialRectangle;connectable=0;fillColor=none;top=0;left=0;bottom=0;right=0;editable=1;overflow=hidden;fontFamily=Helvetica;fontStyle=1" parent="zsgav32dKOXWc2WvuA6r-34" vertex="1"><mxGeometry width="30" height="30" as="geometry"><mxRectangle width="30" height="30" as="alternateBounds"/></mxGeometry></mxCell><mxCell id="zsgav32dKOXWc2WvuA6r-36" value="stepCount" style="shape=partialRectangle;connectable=0;fillColor=none;top=0;left=0;bottom=0;right=0;align=left;spacingLeft=6;overflow=hidden;fontFamily=Helvetica;fontStyle=1;fontColor=#3399FF;" parent="zsgav32dKOXWc2WvuA6r-34" vertex="1"><mxGeometry x="30" width="180" height="30" as="geometry"><mxRectangle width="180" height="30" as="alternateBounds"/></mxGeometry></mxCell><mxCell id="zsgav32dKOXWc2WvuA6r-37" value="int" style="shape=partialRectangle;connectable=0;fillColor=none;top=0;left=0;bottom=0;right=0;align=left;spacingLeft=6;overflow=hidden;fontFamily=Helvetica;fontStyle=1" parent="zsgav32dKOXWc2WvuA6r-34" vertex="1"><mxGeometry x="210" width="110" height="30" as="geometry"><mxRectangle width="110" height="30" as="alternateBounds"/></mxGeometry></mxCell><mxCell id="zsgav32dKOXWc2WvuA6r-38" value="" style="shape=partialRectangle;collapsible=0;dropTarget=0;pointerEvents=0;fillColor=none;top=0;left=0;bottom=0;right=0;points=[[0,0.5],[1,0.5]];portConstraint=eastwest;sketch=0;strokeWidth=1;fontFamily=Helvetica;" parent="zsgav32dKOXWc2WvuA6r-1" vertex="1"><mxGeometry y="300" width="320" height="30" as="geometry"/></mxCell><mxCell id="zsgav32dKOXWc2WvuA6r-39" value="" style="shape=partialRectangle;connectable=0;fillColor=none;top=0;left=0;bottom=0;right=0;editable=1;overflow=hidden;fontFamily=Helvetica;fontStyle=1" parent="zsgav32dKOXWc2WvuA6r-38" vertex="1"><mxGeometry width="30" height="30" as="geometry"><mxRectangle width="30" height="30" as="alternateBounds"/></mxGeometry></mxCell><mxCell id="zsgav32dKOXWc2WvuA6r-40" value="" style="shape=partialRectangle;connectable=0;fillColor=none;top=0;left=0;bottom=0;right=0;align=left;spacingLeft=6;overflow=hidden;fontColor=#3399FF;fontFamily=Helvetica;fontStyle=1" parent="zsgav32dKOXWc2WvuA6r-38" vertex="1"><mxGeometry x="30" width="180" height="30" as="geometry"><mxRectangle width="180" height="30" as="alternateBounds"/></mxGeometry></mxCell><mxCell id="zsgav32dKOXWc2WvuA6r-41" value="" style="shape=partialRectangle;connectable=0;fillColor=none;top=0;left=0;bottom=0;right=0;align=left;spacingLeft=6;overflow=hidden;fontFamily=Helvetica;fontStyle=1" parent="zsgav32dKOXWc2WvuA6r-38" vertex="1"><mxGeometry x="210" width="110" height="30" as="geometry"><mxRectangle width="110" height="30" as="alternateBounds"/></mxGeometry></mxCell><mxCell id="zsgav32dKOXWc2WvuA6r-42" value="" style="fontSize=12;html=1;endArrow=ERoneToMany;fontFamily=Helvetica;fontColor=#3399FF;exitX=1;exitY=0.5;exitDx=0;exitDy=0;strokeColor=#3399FF;edgeStyle=orthogonalEdgeStyle;" parent="1" source="0rB0F-Ur0wucUoMe_7N4-360" edge="1"><mxGeometry width="100" height="100" relative="1" as="geometry"><mxPoint x="170.00000000000045" y="405" as="sourcePoint"/><mxPoint x="360" y="-530" as="targetPoint"/><Array as="points"><mxPoint x="290" y="395"/><mxPoint x="290" y="-530"/><mxPoint x="360" y="-530"/></Array></mxGeometry></mxCell><mxCell id="zsgav32dKOXWc2WvuA6r-43" value="" style="fontSize=12;html=1;endArrow=ERoneToMany;fontFamily=Helvetica;fontColor=#3399FF;entryX=1;entryY=0.5;entryDx=0;entryDy=0;strokeColor=#3399FF;edgeStyle=orthogonalEdgeStyle;" parent="1" edge="1"><mxGeometry width="100" height="100" relative="1" as="geometry"><mxPoint x="800" as="sourcePoint"/><mxPoint x="680" y="-565" as="targetPoint"/><Array as="points"><mxPoint x="800"/><mxPoint x="720"/><mxPoint x="720" y="-565"/></Array></mxGeometry></mxCell></root></mxGraphModel></diagram></mxfile>